<svg xmlns="http://www.w3.org/2000/svg">
  <style>:root svg:not(:target){display: none}</style>

  <svg id="home-icon" viewBox="0 0 81 73" fill="none" xmlns="http://www.w3.org/2000/svg">
    <path d="M31.9574 65.3H48.9787V41.4H31.9574V65.3ZM45.8936 62.4H35.0425V44.3H45.7872V62.4H45.8936Z" fill="#81B3D2"/>
    <path d="M77.8085 39.4L80.0425 37.3L69.5106 27.4V0.4H54.8298V13.6L40.2553 0L0.574463 37.4L2.80851 39.5L11.1064 31.7V69.5H6.95744V72.4H74.9362V69.5H69.5106V31.6L77.8085 39.4ZM57.9149 3.4H66.3191V24.5L57.9149 16.6V3.4ZM66.4255 69.4H14.2979V28.7L40.2553 4.2L66.3191 28.7V69.4H66.4255Z" fill="#81B3D2"/>
    <path d="M32.2766 27.2C32.2766 31.5 36 35 40.4681 35C45.0426 35 48.766 31.5 48.766 27.2C48.766 22.9 45.0426 19.5 40.4681 19.5C35.8936 19.5 32.2766 22.9 32.2766 27.2ZM40.4681 22.2C43.3404 22.2 45.7873 24.4 45.7873 27.2C45.7873 29.9 43.4468 32.2 40.4681 32.2C37.5958 32.2 35.149 30 35.149 27.2C35.149 24.5 37.5958 22.2 40.4681 22.2Z" fill="#81B3D2"/>
    <path d="M21.7447 41.4H18.5532V45.3H21.7447V41.4Z" fill="#81B3D2"/>
    <path d="M28.0213 41.4H24.8298V45.3H28.0213V41.4Z" fill="#81B3D2"/>
    <path d="M21.7447 47.4H18.5532V51.3H21.7447V47.4Z" fill="#81B3D2"/>
    <path d="M28.0213 47.4H24.8298V51.3H28.0213V47.4Z" fill="#81B3D2"/>
    <path d="M55.6809 41.4H52.4894V45.3H55.6809V41.4Z" fill="#81B3D2"/>
    <path d="M62.0639 41.4H58.8724V45.3H62.0639V41.4Z" fill="#81B3D2"/>
    <path d="M55.6809 47.4H52.4894V51.3H55.6809V47.4Z" fill="#81B3D2"/>
    <path d="M62.0639 47.4H58.8724V51.3H62.0639V47.4Z" fill="#81B3D2"/>
  </svg>

  <svg id="food-icon" viewBox="0 0 74 69" fill="none" xmlns="http://www.w3.org/2000/svg">
    <path d="M69.0544 46H4.26203C1.96171 46 0.140625 48 0.140625 50.3V53.8C0.140625 56.1 1.96171 58 4.26203 58H5.2205V59C5.2205 64.5 9.5336 68.9 14.7093 68.9H58.6071C63.8786 68.9 68.0959 64.4 68.0959 59V58H69.0544C71.2588 58 73.1758 56.1 73.1758 53.7V50.2C73.1758 48 71.3547 46 69.0544 46ZM65.3163 59C65.3163 62.8 62.3451 65.9 58.7029 65.9H14.6135C10.9713 65.9 8.00005 62.8 8.00005 59V58H65.3163V59ZM70.3004 53.7C70.3004 54.4 69.7253 55 69.0544 55H4.26203C3.5911 55 3.01602 54.4 3.01602 53.7V50.2C3.01602 49.6 3.5911 49 4.26203 49H69.1502C69.8211 49 70.3962 49.6 70.3962 50.3V53.7H70.3004Z" fill="#81B3D2"/>
    <path d="M15.6678 37.9L20.8436 41.9L26.1151 37.9L31.3867 41.9L36.6583 37.9L41.834 41.9L47.1055 37.9L52.3771 41.9L57.6487 37.9L62.9202 41.9L68.9586 37.2L67.3292 34.8L62.9202 38.1L57.6487 34.1L52.3771 38.1L47.1055 34.1L41.834 38.1L36.6583 34.1L31.3867 38.1L26.1151 34.1L20.8436 38.1L15.6678 34.1L10.3963 38.1L5.98732 34.8L4.26208 37.2L10.3963 41.9L15.6678 37.9Z" fill="#81B3D2"/>
    <path d="M68.0958 31.1C68.0958 30.5 68.1916 28.5 68.0958 28.1C67.4248 12.5 53.6229 0 36.6581 0C19.6932 0 5.79544 12.5 5.12451 28.1C5.12451 28.5 5.12451 30.5 5.12451 31.1H68.0958ZM36.6581 3C51.9935 3 64.6453 14.2 65.2204 28.1H7.99991C8.67084 14.2 21.3226 3 36.6581 3Z" fill="#81B3D2"/>
    <path d="M36.6581 17C37.7168 17 38.5751 16.1046 38.5751 15C38.5751 13.8954 37.7168 13 36.6581 13C35.5995 13 34.7412 13.8954 34.7412 15C34.7412 16.1046 35.5995 17 36.6581 17Z" fill="#81B3D2"/>
    <path d="M28.9904 12.1C30.0491 12.1 30.9074 11.2045 30.9074 10.1C30.9074 8.99541 30.0491 8.09998 28.9904 8.09998C27.9317 8.09998 27.0735 8.99541 27.0735 10.1C27.0735 11.2045 27.9317 12.1 28.9904 12.1Z" fill="#81B3D2"/>
    <path d="M44.3259 12.1C45.3846 12.1 46.2428 11.2045 46.2428 10.1C46.2428 8.99541 45.3846 8.09998 44.3259 8.09998C43.2672 8.09998 42.4089 8.99541 42.4089 10.1C42.4089 11.2045 43.2672 12.1 44.3259 12.1Z" fill="#81B3D2"/>
  </svg>

  <svg id="souvenir-icon" viewBox="0 0 78 76" fill="none" xmlns="http://www.w3.org/2000/svg">
    <path d="M74.4427 22.1237H74.3197H44.4427C61.164 15.3237 62.5164 11.0237 61.9017 8.62371C60.5492 4.72371 55.0164 1.72371 49.8525 3.32371C43.0902 5.42371 41.2459 13.6237 39.4017 19.5237C37.0656 13.5237 34.8525 5.92371 29.5656 2.02371C28.0902 0.923705 25.8771 -0.176294 22.5574 0.0237057C17.6394 0.423706 10.6312 5.32371 13.582 10.8237C16.2869 16.1237 25.2623 19.5237 31.2869 22.2237H3.86889C1.90168 22.2237 0.42627 23.5237 0.42627 25.0237V36.2237C0.42627 37.8237 2.02463 39.0237 3.86889 39.0237H4.23774V75.0237H74.3197V39.0237H74.4427C76.4099 39.0237 77.8853 37.7237 77.8853 36.2237V25.0237C77.8853 23.4237 76.2869 22.1237 74.4427 22.1237ZM51.8197 5.82371C54.4017 5.52371 57.8443 7.12371 58.2132 9.02371C58.705 11.7237 54.1558 14.2237 52.0656 15.3237C48.9918 17.0237 46.041 17.9237 43.2132 19.3237C44.1968 15.6237 46.2869 6.42371 51.8197 5.82371ZM24.0328 15.6237C21.3279 14.1237 16.164 11.2237 16.2869 7.92371C16.4099 4.32371 23.2951 1.42371 26.9836 4.12371C31.6558 7.42371 33.8689 15.1237 35.5902 20.5237C31.6558 18.9237 27.9673 17.7237 24.0328 15.6237ZM31.2869 72.0237H7.80332V39.0237H31.2869V72.0237ZM31.2869 36.0237H4.11479V25.1237H31.2869V36.0237ZM43.582 72.0237H34.8525V25.1237H43.582V72.0237ZM70.6312 72.0237H47.2705V39.0237H70.7541V72.0237H70.6312ZM74.1968 36.0237H47.2705V25.1237H74.1968V36.0237Z" fill="#81B3D2"/>
  </svg>

  <svg id="vk-icon" viewBox="0 0 49 48" fill="none" xmlns="http://www.w3.org/2000/svg">
    <path d="M36.1331 17.948C36.2991 17.402 36.1331 17 35.3381 17H32.7131C32.0451 17 31.7371 17.347 31.5701 17.73C31.5701 17.73 30.2351 20.926 28.3441 23.002C27.7321 23.604 27.4541 23.795 27.1201 23.795C26.9531 23.795 26.7021 23.604 26.7021 23.057V17.948C26.7021 17.292 26.5181 17 25.9621 17H21.8341C21.4171 17 21.1661 17.304 21.1661 17.593C21.1661 18.214 22.1121 18.358 22.2091 20.106V23.904C22.2091 24.737 22.0561 24.888 21.7221 24.888C20.8321 24.888 18.6671 21.677 17.3821 18.003C17.1331 17.288 16.8811 17 16.2101 17H13.5831C12.8331 17 12.6831 17.347 12.6831 17.73C12.6831 18.412 13.5731 21.8 16.8281 26.281C18.9981 29.341 22.0531 31 24.8361 31C26.5051 31 26.7111 30.632 26.7111 29.997V27.684C26.7111 26.947 26.8691 26.8 27.3981 26.8C27.7881 26.8 28.4551 26.992 30.0131 28.467C31.7931 30.216 32.0861 31 33.0881 31H35.7131C36.4631 31 36.8391 30.632 36.6231 29.904C36.3851 29.18 35.5351 28.129 34.4081 26.882C33.7961 26.172 32.8781 25.407 32.5991 25.024C32.2101 24.533 32.3211 24.314 32.5991 23.877C32.5991 23.877 35.7991 19.451 36.1321 17.948H36.1331Z" fill="#ffffff"/>
  </svg>

  <svg id="telegram-icon" viewBox="0 0 49 48" fill="none" xmlns="http://www.w3.org/2000/svg">
    <path d="M35.1223 16.6223L31.9535 31.566C31.7143 32.6205 31.091 32.883 30.2053 32.3865L25.3768 28.8285L23.0473 31.0695C22.7893 31.3275 22.574 31.5428 22.0768 31.5428L22.424 26.6258L31.3723 18.54C31.7615 18.1935 31.2875 18.0008 30.7678 18.348L19.7053 25.314L14.9428 23.823C13.907 23.4998 13.8883 22.7873 15.1588 22.29L33.7865 15.1133C34.649 14.79 35.4035 15.3053 35.1223 16.623V16.6223Z" fill="#ffffff"/>
  </svg>

  <svg id="youtube-icon" viewBox="0 0 49 48" fill="none" xmlns="http://www.w3.org/2000/svg">
    <path d="M31.8644 17H17.4964C15.9893 17 14.6831 18.3 14.6831 19.8V28.1C14.6831 29.7 15.9893 31 17.4964 31H31.8644C33.472 31 34.6777 29.7 34.6777 28.2V19.8C34.7781 18.3 33.472 17 31.8644 17ZM21.7164 27.4V20.6L28.5487 24L21.7164 27.4Z" fill="#ffffff"/>
  </svg>

  <svg id="checked" viewBox="0 0 22 16" fill="currentColor" xmlns="http://www.w3.org/2000/svg">
    <path fill="currentColor" d="M21.8053 1.30662L20.759 0.22188C20.4736 -0.0739599 19.9029 -0.0739599 19.6176 0.22188L8.29884 11.9569L2.40167 5.84283C2.11633 5.54699 1.54563 5.54699 1.26028 5.84283L0.21401 6.92758C-0.0713367 7.22342 -0.0713367 7.8151 0.21401 8.11094L7.63303 15.8028C7.82326 16 8.01349 16 8.20373 16C8.39396 16 8.58419 15.9014 8.77442 15.8028L21.615 2.48999C22.0906 2.19415 22.0906 1.70108 21.8053 1.30662Z"/>
  </svg>

  <svg id="divider-advantages" viewBox="0 0 320 37" fill="none" xmlns="http://www.w3.org/2000/svg">
    <path fill-rule="evenodd" clip-rule="evenodd" d="M-225 0H159V37L-225 0Z" fill="white"/>
    <path fill-rule="evenodd" clip-rule="evenodd" d="M543 0H159V37L543 0Z" fill="white"/>
  </svg>

  <svg id="html-academy-logo" viewBox="0 0 27 35" fill="currentColor" xmlns="http://www.w3.org/2000/svg">
    <path fill="currentColor" d="M13.65 0.449951H13.55L0.0500031 1.84995V26.55L13.55 34.5499L26.95 26.55V1.84995L13.65 0.449951ZM25.05 12.55L13.55 5.74995V5.64995H13.45L13.35 5.54995V5.64995L1.95 12.55V3.54995L13.45 2.34995L25.05 3.54995V12.55ZM13.45 7.24995L24.95 13.95L20.45 16.55L13.35 12.35V13.75L19.25 17.25L18.35 17.75L13.35 14.75V16.15L17.15 18.45L16.35 18.95L13.35 17.15V18.55L15.25 19.65L13.45 20.75L2.05 14.05L13.45 7.24995ZM1.95 15.55L13.35 22.35V23.35L5.45 18.65V20.05L13.45 24.85V25.95L5.45 21.25V22.65L13.45 27.45L21.55 22.55V17.35L24.95 15.35V25.35L13.45 32.25L1.95 25.45V15.55Z"/>
  </svg>

  <svg id="like-icon" viewBox="0 0 23 21" fill="none" xmlns="http://www.w3.org/2000/svg">
    <path fill="#000000" d="M12.9636 3.78L12.3364 6.825L11.7091 9.45H14.3227H20.8045V11.55C20.8045 11.55 20.8045 11.55 20.8045 11.655L17.7727 18.9H8.36364V8.4L12.9636 3.78ZM2.09091 10.5V18.9V10.5ZM13.8 0L6.9 6.93C6.48182 7.245 6.27273 7.77 6.27273 8.4V18.9C6.27273 20.055 7.21364 21 8.36364 21H17.7727C18.6091 21 19.3409 20.475 19.6545 19.74L22.7909 12.285C22.8955 12.075 22.8955 11.76 22.8955 11.55V9.45H23C23 8.295 22.0591 7.35 20.9091 7.35H14.3227L15.3682 2.52V2.205C15.3682 1.785 15.1591 1.365 14.95 1.05L13.8 0ZM4.18182 8.4H0V21H4.18182V8.4Z"/>
  </svg>

  <svg id="logo" viewBox="0 0 185 96" fill="none" xmlns="http://www.w3.org/2000/svg">
    <path d="M185 0H0L79.8097 90.1011C86.8489 97.9663 98.2503 97.9663 105.289 90.1011L185 0Z" fill="#81B3D3"/>
    <path d="M42.8296 0.696915L92.0043 58.8395L140.882 1.09515L42.8296 0.696915Z" fill="#23A9E1"/>
    <path d="M120.954 17.2237C115.898 17.2237 110.941 17.3233 105.884 17.3233C111.833 10.4537 114.51 11.1506 120.954 17.2237Z" fill="white"/>
    <path d="M80.1072 22.5999C88.9309 22.5999 97.7546 22.5999 106.578 22.5999C104.595 21.4052 99.9357 15.5312 97.358 17.7215C97.1597 17.9207 89.9223 8.86077 85.1635 13.2414C80.9995 17.0246 79.1158 12.7436 74.3569 15.7304C69.1024 19.3145 77.5295 21.4052 80.1072 22.5999Z" fill="white"/>
    <path d="M92.3017 0H41.8382V22.4008L92.0043 83.6298L92.3017 83.2315L142.567 23.0977V0H92.3017ZM54.4293 1.79207H59.8821V18.9163L54.4293 12.4449V1.79207ZM53.6361 11.5489L48.679 5.67488V1.79207H53.6361V11.5489ZM72.7706 8.86077L67.1195 1.79207H72.7706V8.86077ZM66.2272 12.644L60.6752 1.79207H66.2272V12.644ZM60.5761 3.38501L66.0289 14.0379C63.2529 16.1286 61.3692 18.0202 60.5761 18.9163V3.38501ZM67.0204 2.88722L72.5723 9.75681C71.4818 10.3542 70.3912 11.0511 69.4989 11.6484C68.6066 12.2458 67.8135 12.8431 67.0204 13.4405V2.88722ZM73.5638 2.6881L78.3226 6.86959C76.6372 7.5665 75.0509 8.36298 73.5638 9.15945V2.6881ZM79.1158 6.57091L73.7621 1.79207H79.7106V6.37179C79.4132 6.37179 79.314 6.47135 79.1158 6.57091ZM98.052 1.79207H103.009L98.052 4.18149V1.79207ZM92.3017 1.79207H96.664L92.3017 3.88281V1.79207ZM91.4094 3.78325L87.2454 1.79207H91.4094V3.78325ZM85.9566 4.28105L80.9003 1.79207H85.9566V4.28105ZM80.4046 2.38942L85.0643 4.67928C83.478 5.07752 81.8917 5.47576 80.4046 5.97355V2.38942ZM86.7497 2.38942L90.1206 3.98237C88.9309 4.08193 87.8403 4.18149 86.6506 4.38061V2.38942H86.7497ZM97.0606 2.48898V4.38061C95.97 4.18149 94.8794 4.08193 93.6897 3.98237L97.0606 2.48898ZM103.505 2.38942V6.07311C102.018 5.57532 100.431 5.07752 98.746 4.67928L103.505 2.38942ZM104.199 1.79207H110.048L104.695 6.57091C104.496 6.47135 104.397 6.47135 104.199 6.37179V1.79207ZM117.682 1.79207H123.234L117.682 12.644V1.79207ZM111.139 1.79207H116.79L111.139 8.76121V1.79207ZM110.346 2.6881V9.15945C108.859 8.36298 107.272 7.5665 105.587 6.86959L110.346 2.6881ZM116.889 2.88722V13.3409C116.195 12.8431 115.402 12.3453 114.609 11.748C113.617 11.0511 112.428 10.3542 111.238 9.65725L116.889 2.88722ZM123.234 3.38501V18.518C122.144 17.5224 120.359 15.8299 117.781 13.9383L123.234 3.38501ZM124.027 19.3145V1.79207H129.48V13.1418L124.027 19.3145C124.126 19.4141 124.027 19.4141 124.027 19.3145ZM130.273 1.79207H135.23V6.47135L130.273 12.2458V1.79207ZM47.985 1.79207V4.67928L45.5064 1.79207H47.985ZM60.6752 19.9118L60.7744 20.0114C60.7744 20.0114 64.3435 16.1286 69.8955 12.4449C75.1501 8.96033 83.0815 4.8784 92.0043 4.97796C100.828 4.97796 108.958 9.15945 114.113 12.644C119.665 16.3277 123.333 20.111 123.432 20.2105L119.566 24.6907C112.725 25.5867 107.768 30.7638 101.125 29.6687C97.7546 29.0713 97.6554 27.1797 96.664 25.1885C95.97 23.6951 94.7803 23.8942 93.194 23.2969C91.806 22.6995 90.9137 21.6044 88.0386 22.2017C85.56 22.7991 85.2626 26.6819 82.09 26.4828C80.4046 26.3832 80.3055 23.9938 77.926 21.007C71.6801 13.4405 65.8307 14.5356 61.865 21.5048L91.9051 57.2466L60.6752 19.9118ZM135.924 5.47576V1.79207H139.097L135.924 5.47576Z" fill="#491213"/>
    <path d="M87.9394 70.5875L92.0043 64.1161L95.97 70.5875L92.0043 77.0589L87.9394 70.5875Z" fill="#23A9E1"/>
    <path d="M64.9384 32.1576C65.4341 32.755 65.8307 33.4519 65.7315 34.2484C65.6324 34.8457 64.8392 35.8413 65.4341 36.0404C66.1281 35.1444 66.9212 34.1488 67.6152 33.2528C67.0204 33.0537 62.2615 27.4783 62.2615 26.7814C61.171 27.3788 60.1795 27.9761 59.089 28.4739C59.2873 29.1709 60.3778 28.4739 60.9727 28.4739C61.7658 28.5735 62.3607 29.0713 62.9555 29.6687C61.2701 31.0625 57.1061 34.6466 56.6104 34.7462C56.4121 34.7462 55.5198 34.1488 55.5198 34.6466C55.5198 34.9453 56.4121 35.6422 56.5113 35.8413C57.2053 36.7374 57.9984 37.6334 58.6924 38.5294C59.2873 38.2307 58.5933 37.8325 58.8907 37.3347C59.1881 36.9365 63.7487 33.0537 64.9384 32.1576Z" fill="white"/>
    <path d="M59.6838 25.1885C60.0804 25.0889 60.2787 25.5867 60.6752 25.0889C59.8821 24.0933 59.089 23.1973 58.2958 22.2017C57.8992 21.8035 57.5027 21.3057 57.6018 22.2017C57.701 22.7991 51.5541 27.8766 51.1576 27.9761C50.6618 28.1753 50.3644 27.5779 50.067 28.0757C50.761 28.9717 51.5541 29.7682 52.2481 30.6642C52.4464 30.9629 52.7438 31.2616 52.9421 31.5603C53.2395 31.859 53.1404 30.8634 53.1404 30.9629C53.0413 30.4651 53.6361 30.0669 54.0327 29.7682C55.5198 28.4739 59.2872 25.1885 59.6838 25.1885Z" fill="white"/>
    <path d="M50.9593 24.2925C49.1747 24.7903 47.291 24.0933 46.7953 22.3013C46.2996 20.5092 47.3901 18.518 48.8773 17.5224C50.2653 16.5268 52.4464 16.5268 53.2396 18.3189C53.537 19.1154 53.4378 20.0114 53.1404 20.8079C52.9421 21.3057 52.5456 21.8035 53.2396 22.1022C54.1318 21.007 54.925 19.9118 55.8173 18.8167C54.7267 18.2193 54.3301 17.1242 53.537 16.2282C52.6447 15.133 51.455 14.1374 50.067 13.9383C47.1919 13.5401 44.515 16.5268 44.3167 19.1154C44.2176 20.6088 44.7133 21.903 45.5064 23.0977C46.2996 24.0933 47.3901 24.6907 47.8859 25.8854C48.1833 25.985 50.5627 24.8898 51.1576 24.5911C51.0584 24.4916 51.0584 24.392 50.9593 24.2925C50.9593 24.2925 50.2653 24.4916 50.9593 24.2925Z" fill="white"/>
    <path d="M89.9223 60.532C88.7326 59.7355 85.9566 55.8527 85.3617 55.2554C85.2626 55.1558 85.1635 54.9567 85.0643 54.8571C85.0643 54.8571 84.7669 55.0563 84.866 55.0563C84.6677 55.1558 84.9652 55.6536 84.7669 55.9523C83.9737 57.147 79.0166 60.9303 78.8183 61.1294C78.2235 61.5276 77.6286 60.9303 77.3312 61.4281C78.0252 62.3241 80.1072 64.9126 80.3055 65.0122C80.8012 65.1117 80.4046 64.2157 80.5037 64.0166C80.6029 63.6184 83.0815 61.6272 83.9737 60.8307C84.2712 60.532 84.6677 61.2289 84.866 61.5276C85.1634 62.0254 85.3617 62.5232 85.1635 63.1206C85.0643 63.5188 84.4695 64.0166 84.866 64.3153C85.4609 63.6184 87.2454 61.5276 87.4437 61.3285C87.7412 61.0298 86.8489 61.3285 86.948 61.2289C86.5514 61.4281 86.254 61.4281 85.8574 61.2289C85.7583 61.1294 84.7669 60.1338 84.866 60.0342C85.2626 59.636 85.8574 59.0386 86.3532 58.9391C87.2454 58.74 87.9394 60.4325 88.0386 61.0298C88.1377 61.6272 88.1377 62.2245 87.9394 62.8219C87.8403 63.2201 87.4437 63.5188 87.9394 63.7179C88.6334 62.7223 89.3274 61.8263 90.0214 60.8307C90.2197 60.6316 90.0214 60.532 89.9223 60.532C90.1206 60.532 89.8231 60.4325 89.9223 60.532Z" fill="white"/>
    <path d="M79.8098 56.3505C81.9909 54.4589 82.2883 51.273 80.6029 49.0827C78.7192 46.5937 75.2492 45.9964 72.8698 47.9876C70.6886 49.8792 70.3912 52.9655 72.0766 55.2554C74.0595 57.9435 77.2321 58.2422 79.8098 56.3505C80.9995 55.4545 79.7106 56.4501 79.8098 56.3505ZM79.314 51.6712C78.7192 53.1646 77.1329 54.7576 75.6458 55.3549C73.8612 56.0519 72.5724 54.5585 73.2664 52.7664C73.9603 51.273 75.4475 49.6801 76.9346 49.0827C78.8183 48.3858 80.008 49.9787 79.314 51.6712C79.4132 51.4721 78.9175 52.5673 79.314 51.6712Z" fill="white"/>
    <path d="M73.4646 41.8149C73.9603 41.9144 74.3569 42.3127 74.7535 41.8149C74.0595 40.9188 73.2663 40.0228 72.5723 39.2263C71.9775 39.525 72.5724 39.7241 72.3741 40.2219C72.1758 40.6202 69.7964 41.0184 69.2015 41.118C69.3998 40.5206 70.0938 38.5294 70.3912 38.3303C70.8869 37.9321 71.2835 38.7285 71.6801 38.2307C70.7878 37.1356 69.8955 36.0404 69.0032 34.9453C68.7058 34.5471 68.4084 33.9497 68.0118 34.2484C68.0118 34.2484 68.0118 35.7418 67.9127 35.9409C67.8135 36.14 67.0204 39.525 66.0289 40.421C65.5332 40.8193 63.8478 42.3127 63.3521 42.5118C62.8564 42.7109 62.559 41.9144 62.1624 42.5118C62.9555 43.5074 63.8478 44.503 64.6409 45.4986C64.7401 45.5981 65.2358 46.3946 65.4341 46.3946C65.9298 46.4942 65.5332 45.4986 65.5332 45.2995C65.7315 44.9012 68.0118 42.6114 69.0032 42.4122C70.1929 42.2131 71.9775 41.7153 73.4646 41.8149C73.7621 41.9144 73.0681 41.8149 73.4646 41.8149Z" fill="white"/>
    <path d="M67.2187 22.7991C63.253 22.5999 64.8392 18.8167 67.6152 18.0202C70.1929 17.2237 75.6458 19.7127 77.3312 21.4052C74.5552 22.3013 70.9861 22.1021 68.0118 22.3013C67.8135 19.1154 67.0204 20.2105 67.2187 22.7991Z" fill="#DC6243"/>
    <path d="M76.6372 35.244C68.1109 35.1444 73.8612 22.0026 76.7363 22.7991C80.1072 23.8942 79.7106 35.3435 76.6372 35.244Z" fill="#DC6243"/>
    <path d="M82.6849 30.9629C81.8918 33.4519 80.3055 33.9497 80.5038 30.8634C80.702 27.3788 82.9823 28.1753 85.3617 26.881C87.3446 25.7858 88.4352 21.7039 91.9052 24.0933C93.4914 25.1885 95.276 24.2925 95.7717 25.8854C95.7717 25.7858 91.3103 36.14 93.7889 36.14C88.8317 36.14 91.0129 30.266 92.8966 26.2836C91.112 27.1797 88.1377 32.9541 90.5172 33.8501C89.2283 35.5426 85.3617 37.733 83.3789 36.14C81.8917 35.0449 82.6849 32.9541 82.6849 30.9629Z" fill="#DC6243"/>
    <path d="M86.7497 40.5206C83.2797 41.5162 78.7192 39.3259 84.2712 38.2307C87.7412 37.5338 91.4094 38.9277 86.7497 40.5206C86.8489 40.5206 86.6506 40.5206 86.7497 40.5206Z" fill="#DC6243"/>
    <path d="M91.112 40.421C90.418 38.7285 91.7068 36.8369 93.7888 38.2307C95.5734 39.4255 92.8966 41.3171 91.112 40.421Z" fill="#DC6243"/>
    <path d="M88.1377 45.0008C85.7583 44.3039 77.7278 44.4034 82.9823 42.2131C84.6677 41.6158 93.0949 42.4122 88.1377 45.0008Z" fill="#DC6243"/>
    <path d="M98.5477 48.2862C97.1597 47.0915 95.6725 46.992 94.3837 48.2862C92.5991 45.0008 86.1549 46.0959 83.0815 45.5981C84.6677 49.6801 97.7545 50.4765 98.5477 48.2862Z" fill="#DC6243"/>
    <path d="M96.664 50.7752C93.4914 50.6757 90.0214 50.1779 87.1463 50.8748C89.03 51.3726 93.4914 52.6668 89.3274 53.762C90.8146 55.9523 93.2931 55.7532 94.8794 53.8615C94.1854 53.5629 93.888 53.1646 93.2931 52.7664C94.8794 52.4677 96.4657 51.5717 96.664 50.7752Z" fill="#DC6243"/>
    <path d="M100.233 46.8924C94.9786 43.8061 96.2674 41.5162 100.63 39.3259C102.91 38.2307 107.867 34.1488 109.949 35.4431C106.677 39.3259 103.406 43.1092 100.233 46.8924Z" fill="#DC6243"/>
    <path d="M96.4657 39.6246C92.0043 35.0449 103.108 35.4431 104.893 33.8501C106.182 34.2484 115.6 25.5867 117.88 26.1841C116.195 28.0757 112.725 34.2484 110.147 34.2484C108.165 34.2484 106.182 33.9497 104.695 35.3435C102.513 37.4343 98.8451 38.4299 96.4657 39.6246Z" fill="#F49774"/>
    <path d="M97.9529 34.0493C95.4743 35.3435 93.194 30.1664 97.4571 30.6642C100.233 30.9629 103.108 30.4651 105.686 30.8634C103.703 33.1532 101.026 34.4475 97.9529 34.0493Z" fill="#F4B1A4"/>
    <path d="M110.445 52.2686C110.643 52.866 110.742 53.5629 110.643 54.2598C110.544 55.1558 109.652 57.147 108.462 56.5496C107.272 55.9523 106.281 54.8571 105.289 53.9611C106.083 53.0651 106.777 52.2686 108.165 52.6668C108.561 52.7664 108.859 52.6668 108.462 52.3682C108.065 52.169 105.389 50.377 105.19 50.5761C104.893 50.8748 105.686 51.4721 105.389 52.0695C105.19 52.4677 104.794 52.866 104.496 53.2642C103.802 52.6668 102.613 51.9699 103.406 50.9743C103.901 50.2774 104.695 49.7796 105.488 49.6801C106.083 49.5805 107.272 50.0783 107.471 49.4809C106.38 48.9831 105.289 48.4853 104.199 47.888C104.397 48.6845 100.927 52.3682 100.134 53.3638C100.035 53.4633 99.44 53.9611 99.44 54.1602C99.44 54.5585 100.035 54.2598 100.134 54.2598C100.63 54.0607 106.876 59.3373 107.074 59.7355C107.173 60.0342 106.876 60.3329 107.074 60.4325C107.074 60.4325 107.272 60.6316 107.371 60.6316C107.768 60.1338 111.833 54.658 112.725 54.4589C111.932 53.2642 111.139 52.0695 110.346 50.7752C109.751 51.0739 110.346 51.7708 110.445 52.2686Z" fill="white"/>
    <path d="M104.298 58.9391C102.216 57.6448 98.746 60.2333 98.2503 60.4325C97.2588 60.9303 96.4657 59.9347 96.9614 58.9391C97.4571 58.1426 98.3494 57.7444 99.2417 57.6448C99.5391 57.6448 100.531 57.8439 100.729 57.6448C100.828 57.4457 100.927 57.4457 100.729 57.3461C99.8366 56.7488 99.0434 56.1514 98.1511 55.6536C97.9528 56.7488 96.7631 57.3461 96.0691 58.043C95.276 58.9391 94.582 59.9347 94.582 61.2289C94.582 62.3241 95.276 63.3197 96.2674 63.917C97.358 64.5144 98.5477 64.0166 99.5391 63.4192C100.134 63.021 100.828 62.5232 101.423 62.2245C102.414 61.7267 103.703 62.125 103.406 63.5188C103.108 64.6139 102.018 65.6095 101.026 65.8087C100.431 66.0078 99.7374 65.9082 99.1426 65.7091C98.746 65.6095 98.1511 65.0122 97.9528 65.6095C99.1426 66.406 100.233 67.302 101.423 68.0985C101.522 67.302 101.919 67.0034 102.513 66.5056C103.207 65.9082 103.901 65.2113 104.496 64.4148C105.686 62.7223 106.083 60.3329 104.298 58.9391Z" fill="white"/>
    <path d="M104.298 58.9391C103.703 58.4413 105.289 59.5364 104.298 58.9391V58.9391Z" fill="white"/>
    <path d="M140.683 19.5136C139.989 20.2105 132.355 17.2237 131.76 16.726C131.463 16.6264 131.463 15.4317 131.066 15.9295C130.67 16.4273 130.273 16.9251 129.877 17.4229C129.48 17.9207 129.084 18.4185 128.588 18.9163C128.29 19.2149 128.092 19.4141 128.588 19.6132C129.381 19.2149 133.942 26.881 133.545 28.0757C132.851 28.4739 126.704 22.9982 126.506 22.6995C126.407 22.5999 126.803 21.7039 126.308 21.8035C126.109 21.8035 125.614 22.6995 125.415 22.8986C125.118 23.2969 124.82 23.5955 124.523 23.9938C124.82 24.4916 125.019 23.9938 125.514 23.9938C125.911 24.0933 127.299 25.288 127.696 25.6863C127.002 25.6863 125.019 25.7858 124.82 25.7858C123.928 25.8854 124.424 25.0889 123.829 24.8898C123.036 25.7858 122.342 26.6819 121.549 27.6775C121.152 28.1753 120.656 28.7726 120.26 29.2704C120.161 29.37 120.26 29.2704 120.26 29.37C120.557 29.6687 120.359 29.5691 120.855 29.37C121.35 29.1709 127.398 34.2484 127.596 34.5471C127.993 34.9453 127.398 35.5426 127.993 35.7418C128.588 35.0449 129.183 34.2484 129.778 33.5515C129.877 33.4519 129.877 33.4519 129.778 33.3523C129.381 32.9541 129.282 33.5515 128.786 33.5515C128.29 33.4519 124.424 30.1664 122.937 28.9717C124.721 28.8722 130.174 28.6731 131.066 28.6731C131.364 28.6731 132.157 29.5691 132.157 29.8678C132.058 30.266 131.661 30.4651 132.256 30.6642C132.752 30.0669 133.248 29.5691 133.743 28.9717L133.942 28.6731C134.041 28.5735 134.041 28.5735 134.14 28.3744L134.338 28.1753C134.735 27.6775 136.123 26.1841 135.924 26.0845C135.429 25.6863 135.23 26.5823 134.636 25.985C134.338 25.7858 133.446 24.1929 133.248 23.7947C132.95 23.3964 133.842 22.8986 134.239 22.6995C135.032 22.2017 137.412 21.5048 137.709 22.9982C137.709 23.2969 137.412 23.496 137.61 23.6951C137.61 23.6951 137.808 23.8942 137.907 23.8942C138.106 23.6951 140.287 21.1066 141.179 19.9118C140.882 19.7127 140.782 19.6132 140.683 19.5136ZM133.347 21.7039C133.446 21.7039 133.545 21.6044 133.347 21.7039C133.049 21.903 132.653 22.2017 132.355 22.5004C131.86 21.6044 131.364 20.7083 130.769 19.8123C131.959 20.3101 133.148 20.8079 134.239 21.3057C134.041 21.4052 133.743 21.5048 133.347 21.7039Z" fill="white"/>
    <path d="M123.73 32.8545C121.35 30.8634 118.178 31.4607 116.195 33.651C114.311 35.9409 114.51 39.3259 116.79 41.2175C119.07 43.1092 122.441 42.6114 124.325 40.4211C126.208 38.1312 126.109 34.7462 123.73 32.8545ZM123.432 39.4255C123.432 39.4255 123.432 39.525 123.432 39.4255C122.144 40.7197 120.062 39.525 118.971 38.7285C117.88 37.9321 115.898 36.14 117.087 34.6466C118.178 33.3523 120.161 34.4475 121.251 35.1444C122.441 35.9409 124.622 37.733 123.532 39.3259C123.631 39.2263 123.631 39.2263 123.432 39.4255Z" fill="white"/>
    <path d="M123.73 32.8546C123.432 32.6554 124.92 33.8501 123.73 32.8546V32.8546Z" fill="white"/>
    <path d="M123.432 39.5255C123.432 39.4255 123.432 39.4255 123.432 39.5255C123.532 39.4255 123.532 39.4255 123.532 39.4255C123.432 39.4255 123.432 39.5255 123.432 39.5255Z" fill="white"/>
    <path d="M117.186 41.9144C117.286 42.014 117.484 42.2131 117.186 41.9144C114.311 39.7241 110.941 40.3215 108.759 43.0096C107.768 44.2043 106.777 45.399 105.785 46.5937C106.182 47.0915 106.578 46.4942 107.074 46.7928C107.471 47.0915 113.221 51.8704 113.32 52.169C113.518 52.6668 113.023 52.6668 113.419 53.0651C113.617 53.1646 117.88 47.888 118.277 46.8924C119.169 45.1003 118.574 43.2087 117.186 41.9144ZM115.898 48.6845C115.699 48.9832 115.898 48.784 115.204 49.3814C114.906 49.6801 108.859 44.7021 109.057 44.503C109.85 43.607 111.635 42.91 112.626 43.2087C114.807 43.7065 117.781 46.3946 115.898 48.6845Z" fill="white"/>
  </svg>

  <svg id="mail-icon" viewBox="0 0 58 58" fill="none" xmlns="http://www.w3.org/2000/svg">
    <path d="M29 31C28.7 31 28.5 30.9 28 30.7L21 27V34C21 34.5 21.5 35 22 35H36C36.5 35 37 34.5 37 34V27L30 30.7C29.5 30.9 29.3 31 29 31ZM36 23H22C21.5 23 21 23.5 21 24V24.8L29 29L37 24.8V24C37 23.5 36.5 23 36 23Z" fill="black"/>
  </svg>

  <svg id="telephone-icon" viewBox="0 0 58 58" fill="none" xmlns="http://www.w3.org/2000/svg">
    <path d="M23.6 27.8C25 30.6 27.4 32.9 30.2 34.4L32.4 32.2C32.7 31.9 33.1 31.8 33.4 32C34.5 32.4 35.7 32.6 37 32.6C37.6 32.6 38 33 38 33.6V37C38 37.6 37.6 38 37 38C27.6 38 20 30.4 20 21C20 20.4 20.4 20 21 20H24.5C25.1 20 25.5 20.4 25.5 21C25.5 22.2 25.7 23.4 26.1 24.6C26.2 24.9 26.1 25.3 25.9 25.6L23.6 27.8Z" fill="#010101"/>
  </svg>

  <svg id="text-sedona" viewBox="0 0 229 39" fill="none" xmlns="http://www.w3.org/2000/svg">
    <path d="M27.3156 26.6366C27.3156 26.8879 27.2655 27.0889 27.2655 27.2899C27.0149 29.3003 26.3633 31.2603 25.3108 33.0696C24.2583 34.8789 22.8048 36.2861 21.0506 37.2912C20.399 37.5928 19.6973 37.8441 18.9956 38.0954C18.2939 38.2964 17.5923 38.4974 16.8906 38.6482C16.2891 38.7487 15.7378 38.8492 15.1364 38.8995C14.5349 38.9497 13.9836 39 13.4323 39C13.332 39 13.2318 39 13.1315 39C13.0313 39 12.9311 39 12.8308 39C10.5253 38.8995 8.21974 38.3969 5.96432 37.442C3.75903 36.4369 1.75421 35.1804 0 33.5722L4.6612 26.0838C4.71132 26.134 4.71132 26.134 4.76144 26.1843C4.76144 26.1843 4.81156 26.2345 4.86168 26.2848C5.9142 27.4407 7.11709 28.5464 8.42022 29.5013C9.72335 30.4562 11.2771 31.009 12.9812 31.1095C13.0313 31.1095 13.0814 31.1095 13.1315 31.1598C13.1817 31.1598 13.2318 31.2101 13.2819 31.2101C13.332 31.2101 13.3821 31.2101 13.4323 31.2603C13.4824 31.2603 13.5325 31.3106 13.5826 31.3106C13.733 31.3106 13.8833 31.3106 14.0838 31.2603C14.2342 31.2603 14.4347 31.2101 14.585 31.1598C15.1865 31.0593 15.7879 30.808 16.3392 30.4562C16.8906 30.1044 17.3417 29.7023 17.6424 29.1495C17.6925 29.049 17.7426 28.9987 17.7426 28.8982C17.7927 28.7977 17.8429 28.7474 17.8429 28.6469C17.9431 28.3956 17.9932 28.1443 17.9932 27.893C18.0433 27.6418 18.0433 27.4407 18.0433 27.2397C18.0433 26.1843 17.5923 25.2796 16.6901 24.576C15.7879 23.8724 14.7855 23.3196 13.733 22.9175C13.2819 22.7668 12.8809 22.616 12.5301 22.5155C12.1291 22.4149 11.7783 22.3144 11.4274 22.2642C11.3773 22.2642 11.3272 22.2642 11.3272 22.2139C11.2771 22.2139 11.227 22.1637 11.227 22.1637C9.32239 21.7113 7.51806 20.9575 5.86408 19.9021C4.21011 18.8466 3.05734 17.3892 2.40578 15.4291C2.30554 15.0271 2.2053 14.625 2.10506 14.2229C2.00482 13.7706 1.95469 13.3686 1.90457 12.866C1.85445 12.7152 1.85445 12.5644 1.85445 12.4137C1.85445 12.2629 1.85445 12.1121 1.85445 11.9613C1.85445 11.6598 1.85445 11.3582 1.90457 11.0064C1.90457 10.7049 1.95469 10.4033 2.05494 10.0515C2.15518 9.29768 2.35566 8.49356 2.65638 7.73969C2.90698 6.98582 3.25782 6.28222 3.70891 5.62887C4.96192 3.5683 6.56577 2.11082 8.52046 1.20619C10.3749 0.45232 12.4299 0 14.5349 0C15.0361 0 15.5373 0.0502577 16.0886 0.100515C16.5898 0.150773 17.1412 0.251289 17.6925 0.301546C19.0959 0.552835 20.4992 0.904639 21.8525 1.45747C23.2057 2.01031 24.5089 2.66366 25.6616 3.36727L22.4539 10.5541C21.4014 9.80026 20.2988 9.09665 19.146 8.49356C17.9932 7.89046 16.7402 7.63917 15.387 7.63917C15.2867 7.63917 15.2366 7.63917 15.1364 7.63917C15.0361 7.63917 14.986 7.63917 14.8858 7.63917C13.9836 7.73969 13.1817 8.14175 12.3797 8.84536C11.6279 9.54897 11.227 10.2526 11.227 11.0567C11.227 11.1572 11.227 11.308 11.2771 11.4085C11.2771 11.509 11.3272 11.6598 11.4274 11.7603C11.5277 12.0116 11.6279 12.2629 11.8284 12.5142C12.0289 12.7655 12.2294 12.9665 12.48 13.1675C12.9311 13.5193 13.5325 13.8209 14.3344 14.1224C15.1364 14.424 15.9884 14.6753 16.8906 14.9768C17.6424 15.1778 18.3441 15.3789 19.0457 15.5296C19.7474 15.6804 20.3489 15.8814 20.8 16.0322C22.9551 16.7861 24.6091 18.0928 25.7118 19.9021C26.8144 21.7113 27.3657 23.6211 27.4158 25.6314C27.4158 25.732 27.4158 25.7822 27.4158 25.7822C27.4158 25.8325 27.4158 25.8827 27.4158 25.8827C27.3657 26.134 27.3657 26.3853 27.3156 26.6366ZM57.3878 29.7526V38.0954H34.6332V0.904639H57.3878V9.04639H44.6071V15.5296H56.636V23.4704H44.6071V29.7526H57.3878ZM95.78 28.2951C94.5772 30.8582 92.8731 32.9691 90.6176 34.5773C88.8133 35.8338 86.8085 36.6881 84.7034 37.1405C82.5483 37.5928 80.3931 37.8943 78.2379 37.9948C77.6365 38.0451 76.9849 38.0451 76.3835 38.0451C75.782 38.0451 75.1806 38.0451 74.6292 38.0451H64.4548V0.854381H75.2808C75.8822 0.854381 76.4336 0.854381 77.035 0.854381C77.6365 0.854381 78.2379 0.854381 78.7892 0.904639C80.8943 1.00515 82.9492 1.3067 85.0042 1.75902C87.0591 2.21134 88.9136 3.06572 90.6176 4.32217C92.7728 5.8299 94.4769 7.84021 95.6798 10.3531C96.8827 12.866 97.5844 15.4291 97.7347 18.0425C97.7849 18.2938 97.7849 18.4948 97.7849 18.7461C97.7849 18.9974 97.7849 19.1985 97.7849 19.4497C97.7849 19.5503 97.7849 19.701 97.7849 19.8518C97.7849 20.0026 97.7849 20.1031 97.7849 20.2539C97.6345 23.0683 96.9829 25.732 95.78 28.2951ZM87.5603 19.0979C87.5603 18.9472 87.5603 18.7964 87.5102 18.6456C87.4099 17.1881 87.0591 15.7307 86.4576 14.3737C85.8562 13.0168 85.0042 11.9111 83.9015 11.0567C83.0996 10.4033 82.1974 9.95103 81.195 9.69974C80.1926 9.44845 79.1902 9.34794 78.1377 9.29768C77.9372 9.29768 77.7367 9.29768 77.5362 9.29768C77.3357 9.29768 77.1353 9.29768 76.9348 9.29768H74.3786V29.8028C74.4789 29.8028 74.6292 29.8028 74.7796 29.8531C74.93 29.8531 75.0302 29.9033 75.1806 29.9033C75.3309 29.9033 75.4813 29.9033 75.5815 29.9536C75.6818 29.9536 75.8321 30.0039 75.9324 30.0039C76.3333 30.0039 76.7343 30.0039 77.1353 29.9536C77.5863 29.9536 77.9873 29.9034 78.3382 29.8531C79.3406 29.7526 80.343 29.6018 81.2952 29.3505C82.2475 29.0992 83.1497 28.6469 83.9015 28.1443C85.1545 27.2397 86.0567 26.0335 86.6581 24.4755C87.2596 22.9175 87.5603 21.3093 87.5603 19.6508C87.5603 19.3995 87.5603 19.2487 87.5603 19.0979ZM142.492 21.058C142.492 21.4601 142.442 21.8621 142.342 22.2642C142.242 23.0683 142.141 23.8724 141.891 24.6765C141.69 25.4807 141.39 26.2848 141.089 27.0387C139.435 30.808 136.929 33.7229 133.471 35.8338C130.012 37.8943 126.404 38.9497 122.594 38.9497C122.344 38.9497 122.043 38.9497 121.793 38.8995C121.542 38.8995 121.291 38.8492 120.991 38.8492C119.687 38.7487 118.384 38.4974 117.081 38.1456C115.778 37.7938 114.525 37.2912 113.322 36.6881C110.064 34.9794 107.508 32.5168 105.654 29.3505C103.799 26.1843 102.847 22.8673 102.847 19.4497C102.847 18.9472 102.847 18.4446 102.897 17.942C102.947 17.4394 102.997 16.8866 103.148 16.384C103.348 15.3789 103.599 14.3737 103.95 13.3183C104.3 12.3131 104.701 11.308 105.253 10.3531C107.057 7.03608 109.513 4.5232 112.721 2.76418C115.878 1.00515 119.236 0.150773 122.695 0.150773C123.146 0.150773 123.647 0.150773 124.098 0.201031C124.599 0.251289 125.05 0.301546 125.501 0.301546C126.955 0.502577 128.358 0.854381 129.762 1.35696C131.165 1.85954 132.518 2.51289 133.821 3.31701C136.578 5.12629 138.733 7.4884 140.237 10.4536C141.74 13.4188 142.492 16.5348 142.492 19.7513C142.492 20.2539 142.492 20.6559 142.492 21.058ZM132.368 18.9472C132.368 18.6959 132.318 18.4948 132.318 18.2436C132.117 16.5851 131.616 14.9768 130.814 13.4188C130.012 11.8608 128.859 10.6546 127.456 9.80026C127.055 9.59923 126.704 9.44845 126.303 9.29768C125.902 9.14691 125.552 8.99613 125.151 8.89562C124.75 8.7951 124.399 8.74484 123.998 8.69459C123.597 8.64433 123.246 8.59407 122.845 8.59407C120.89 8.59407 119.036 9.19716 117.382 10.4536C115.728 11.7101 114.525 13.3686 113.873 15.4291C113.823 15.5296 113.823 15.5799 113.773 15.6804C113.773 15.7809 113.723 15.8312 113.723 15.9317C113.623 16.2835 113.523 16.6353 113.422 16.9871C113.322 17.3389 113.272 17.741 113.172 18.143C113.122 18.3943 113.122 18.6959 113.072 18.9472C113.072 19.1985 113.021 19.4497 113.021 19.7513C113.021 19.9021 113.021 20.0528 113.021 20.2036C113.021 20.3544 113.021 20.5052 113.072 20.6559C113.172 22.7165 113.823 24.6765 114.976 26.5361C116.129 28.3956 117.683 29.6018 119.738 30.2049C119.988 30.3054 120.189 30.3557 120.439 30.4059C120.69 30.4562 120.94 30.5064 121.191 30.5567C121.442 30.607 121.642 30.607 121.893 30.6572C122.143 30.6572 122.344 30.7075 122.594 30.7075C124.649 30.7075 126.504 30.1044 128.158 28.8479C129.812 27.6418 131.015 25.9832 131.716 23.9227C131.817 23.5206 131.917 23.1186 132.017 22.7165C132.117 22.2642 132.167 21.8621 132.218 21.4098C132.268 21.1585 132.268 20.857 132.318 20.6057C132.318 20.3544 132.368 20.1031 132.368 19.8518C132.368 19.4497 132.368 19.1985 132.368 18.9472ZM176.223 38.0954L162.139 18.8969C161.738 18.4446 161.388 17.8918 161.037 17.2384C160.686 16.5851 160.335 15.9317 160.034 15.2281C159.784 14.7255 159.583 14.2229 159.383 13.7204C159.182 13.2178 158.982 12.7655 158.781 12.3634C158.982 13.5696 159.132 14.7758 159.232 16.0322C159.333 17.2887 159.383 18.5451 159.383 19.7513V38.0954H149.609V0.904639H159.383L173.366 20.0026C173.717 20.5554 174.068 21.1082 174.369 21.7113C174.72 22.3144 175.02 22.9175 175.321 23.5709C175.572 24.0735 175.772 24.576 176.023 25.0786C176.273 25.5812 176.474 26.0838 176.724 26.5361C176.674 26.0838 176.624 25.6817 176.574 25.3299C176.524 24.9278 176.474 24.5258 176.424 24.1237C176.323 23.3698 176.273 22.5657 176.273 21.7113C176.223 20.9072 176.223 20.0528 176.223 19.1985V0.954897H185.947V38.1456H176.223V38.0954ZM218.876 38.0954L217.021 31.4111H202.687L200.782 38.1456H190.758L203.489 0.954897H216.119L229 38.1456H218.876V38.0954ZM211.107 11.9111C210.907 11.308 210.706 10.7049 210.556 10.0515C210.405 9.3982 210.255 8.7951 210.105 8.14175C210.004 7.89046 209.954 7.68943 209.954 7.4884C209.904 7.28737 209.854 7.08634 209.854 6.88531C209.804 7.08634 209.754 7.28737 209.704 7.4884C209.654 7.68943 209.603 7.94072 209.553 8.14175C209.503 8.24227 209.503 8.29253 209.503 8.34278C209.503 8.39304 209.503 8.49356 209.453 8.54381C209.353 9.14691 209.202 9.69974 209.052 10.2526C208.902 10.8054 208.751 11.3582 208.601 11.9111L204.842 24.2242H214.916L211.107 11.9111Z" fill="white"/>
  </svg>

  <svg id="text-sedona-desktop" viewBox="0 0 460 80" fill="none" xmlns="http://www.w3.org/2000/svg">
    <path d="M44.3 21.7C40.7 18.7 36.2 16.7 31.4 16.7C27.8 16.7 23.1 18.8 23.1 23C23.1 27.4 28.4 29.1 31.7 30.1L36.7 31.6C47.1 34.7 55.2 39.9 55.2 52C55.2 59.4 53.4 67.1 47.5 72.1C41.6 77.1 33.8 79.1 26.3 79.1C16.9 79.1 7.6 75.9 0 70.6L8.3 54.9C13.2 59.2 18.9 62.6 25.6 62.6C30.2 62.6 35 60.3 35 55.1C35 49.6 27.4 47.8 23.2 46.6C10.8 43.3 2.8 40.1 2.8 25.6C2.8 10.4 13.6 0.5 28.6 0.5C36.1 0.5 45.4 2.9 52 6.7L44.3 21.7Z" fill="white"/>
    <path d="M91.6 19V31.5H113.5V48H91.6V60.9H114.8V77.4H72.2V2.5H114.8V19H91.6Z" fill="white"/>
    <path d="M129.2 2.5H156.8C177.6 2.5 194.8 18.9 194.8 39.9C194.8 60.9 177.5 77.3 156.8 77.3H129.2V2.5ZM148.7 60.8H153.1C164.7 60.8 174.6 54.4 174.6 39.9C174.6 26.5 165.8 19 153.3 19H148.7V60.8Z" fill="white"/>
    <path d="M286.7 38.5C286.7 62.7 269.3 79.8 245.3 79.8C221.3 79.8 203.9 62.7 203.9 38.5C203.9 15.9 223.8 0 245.3 0C266.8 0 286.7 15.9 286.7 38.5ZM224.1 38.6C224.1 51.5 233.6 60.9 245.2 60.9C256.8 60.9 266.3 51.5 266.3 38.6C266.3 28.3 256.8 18.8 245.2 18.8C233.7 18.9 224.1 28.3 224.1 38.6Z" fill="white"/>
    <path d="M297 2.5H316.5L352.1 48.3H352.3V2.5H371.8V77.3H352.3L316.7 31.4H316.5V77.3H297V2.5Z" fill="white"/>
    <path d="M407.1 64.3L401.9 77.3H381.3L410.1 2.5H431.3L459.5 77.3H438.8L433.9 64.3H407.1ZM420.7 25.6H420.5L412.5 49.4H428.7L420.7 25.6Z" fill="white"/>
  </svg>

  <svg id="welcome" viewBox="0 0 460 350" fill="none" xmlns="http://www.w3.org/2000/svg">
    <path d="M165.4 70.0001L165.2 70.2001C163.8 71.7001 162.2 72.4001 160.7 72.4001L163.5 67.5001C165.3 64.4001 163.6 61.4001 160.8 61.4001C158.5 61.4001 156.7 62.3001 155 65.3001L153.5 67.9001L152.3 70.0001L152.1 70.2001C149.9 72.7001 147.8 74.7001 146.5 74.7001C145.8 74.7001 145.5 74.2001 146.2 73.1001L152.6 61.9001H155L155.9 60.5001H153.4L156.2 55.6001H153.2L150.4 60.5001H147.7L146.8 61.9001H149.5L143.5 72.3001C142.2 74.5001 143.1 76.6001 145.5 76.6001C147.2 76.6001 149.2 75.3001 151 73.5001C151 77.3001 156.3 78.1001 159.5 74.0001H160.2C162 74.0001 164.8 72.9001 166.3 71.1001C166.3 70.6001 165.8 70.2001 165.4 70.0001ZM159 70.2001H158.9C157.9 70.2001 157.1 71.0001 157.1 72.0001C157.1 72.4001 157.2 72.7001 157.4 73.0001V73.1001C156 75.5001 152.6 75.1001 154.3 71.9001L156.6 68.0001L158 65.6001C160.1 62.0001 163 63.4001 161.2 66.5001L159 70.2001Z" fill="#766458"/>
    <path d="M206.9 70.0001L206.7 70.2001C204.5 72.7001 201.8 74.7001 199.7 74.7001C197.9 74.7001 196.8 73.5001 198.1 71.1001L198.4 70.6001C200.3 71.4001 204 71.0001 206.2 67.1001L206.6 66.4001C208.2 63.6001 206.7 61.6001 204.2 61.6001C201.8 61.6001 199.9 62.9001 198.6 65.1001L195.7 70.1001L195.5 70.3001C193.3 72.8001 191.2 74.8001 189.9 74.8001C189.2 74.8001 188.9 74.3001 189.6 73.2001L193.9 65.6001C195.2 63.3001 194 61.7001 192.3 61.7001C191 61.7001 189.6 62.4001 188.1 64.0001L192.9 55.7001H189.9L181.6 70.0001L181.4 70.2001C179.2 72.7001 177.1 74.7001 175.8 74.7001C175.1 74.7001 174.8 74.2001 175.5 73.1001L181.9 61.9001H184.3L185.2 60.5001H182.7L185.5 55.6001H182.5L179.7 60.5001H177L176.1 61.9001H178.8L172.8 72.3001C171.5 74.5001 172.4 76.6001 174.8 76.6001C176 76.6001 177.3 76.0001 178.6 75.0001L177.8 76.3001H180.8L185.3 68.4001C189.9 62.6001 191.9 63.4001 190.7 65.6001L186.8 72.4001C185.5 74.6001 186.4 76.7001 188.8 76.7001C190.6 76.7001 192.6 75.3001 194.4 73.5001C194.5 75.4001 196.1 76.7001 198.5 76.7001C201.9 76.7001 205.3 74.1001 207.7 71.2001C207.8 70.6001 207.3 70.2001 206.9 70.0001ZM201.2 65.8001C202.9 62.8001 206 63.3001 204.2 66.4001L203.8 67.1001C202.4 69.5001 200.4 69.5001 199.3 69.1001L201.2 65.8001Z" fill="#766458"/>
    <path d="M316 70.0001L315.8 70.2001C314.7 71.5001 313.4 72.6001 312.2 73.5001C313.2 70.6001 312.9 66.3001 314.8 62.4001L312.6 61.2001C311.4 62.9001 308.7 66.8001 305.9 70.0001L305.7 70.2001C303.5 72.7001 301.4 74.7001 300.1 74.7001C299.4 74.7001 299.1 74.2001 299.8 73.1001L306.2 61.9001H303.2L297.9 71.2001C295.6 73.3001 293.9 74.4001 293.3 74.2001C292.6 73.9001 293.3 72.8001 293.7 72.1001L299.5 61.9001H296.5L291.8 70.0001L291.6 70.2001C290.2 71.7001 288.6 72.4001 287.1 72.4001L289.9 67.5001C291.7 64.4001 290 61.4001 287.2 61.4001C284.9 61.4001 283.1 62.3001 281.4 65.3001L279.9 67.9001L278.7 70.0001L278.5 70.2001C276.3 72.7001 273.6 74.7001 271.5 74.7001C269.7 74.7001 268.6 73.5001 269.9 71.1001L270.2 70.6001C272.1 71.4001 275.8 71.0001 278 67.1001L278.4 66.4001C280 63.6001 278.5 61.6001 276 61.6001C273.6 61.6001 271.7 62.9001 270.4 65.1001L267.5 70.1001L267.3 70.3001C264.8 73.2001 262.7 75.0001 260.3 76.0001L267 64.5001H265.2C265.2 63.3001 263.9 61.6001 262.1 61.6001C260.5 61.6001 258.2 62.9001 257 65.1001L254.1 70.1001L253.9 70.3001C251.7 72.8001 249.6 74.8001 248.3 74.8001C247.6 74.8001 247.3 74.3001 248 73.2001L251 68.0001C252 66.2001 251.5 65.1001 250.6 63.9001L248.9 61.9001C248.5 61.4001 248.5 60.7001 249.1 60.2001L247.5 58.5001C245.8 60.0001 245.7 61.7001 246.7 63.1001L247 63.4001C245.7 65.3001 243.9 67.8001 241.9 70.1001L241.7 70.3001C240.3 71.8001 238.7 72.5001 237.2 72.5001L240 67.6001C241.8 64.5001 240.1 61.5001 237.3 61.5001C235 61.5001 233.2 62.4001 231.5 65.4001L230 68.0001L228.8 70.1001L228.6 70.3001C226.1 73.2001 224 75.0001 221.6 76.0001L228.3 64.5001H226.5C226.5 63.3001 225.2 61.6001 223.4 61.6001C221.8 61.6001 219.5 62.9001 218.3 65.1001L214.1 72.4001C212.8 74.6001 213.7 76.7001 216.1 76.7001C216.9 76.7001 217.9 76.3001 219 75.7001L218.2 77.1001C214.2 78.3001 211.6 80.0001 211.6 82.2001C211.6 85.1001 216 85.7001 218.2 82.0001L220.5 78.1001C222.9 77.4001 225.2 75.9001 227.7 73.6001C227.7 77.4001 233 78.2001 236.2 74.1001H236.9C238.7 74.1001 241.5 73.0001 243 71.2001C244.4 69.5001 245.6 68.0001 248 64.8001L248.4 65.3001C248.8 65.8001 248.9 66.4001 248.6 67.0001L245.4 72.5001C244.1 74.7001 245 76.8001 247.4 76.8001C248.9 76.8001 250.6 75.8001 252.2 74.4001C252.2 75.8001 253.1 76.8001 254.8 76.8001C255.6 76.8001 256.6 76.4001 257.7 75.8001L257 77.0001C253 78.2001 250.4 79.9001 250.4 82.1001C250.4 85.0001 254.8 85.6001 257 81.9001L259.3 78.0001C261.7 77.2001 264.1 75.8001 266.6 73.4001C266.7 75.3001 268.2 76.6001 270.7 76.6001C273.1 76.6001 275.6 75.2001 277.6 73.4001C277.5 77.3001 282.9 78.1001 286.1 74.0001H286.8C287.7 74.0001 289 73.7001 290.1 73.1001C289.3 75.2001 290 76.6001 291.7 76.6001C293.3 76.6001 295.2 75.1001 296.6 73.7001C296.3 75.3001 297.3 76.6001 299.2 76.6001C301.7 76.6001 304.5 74.0001 307 71.1001C308.7 69.1001 310.2 67.0001 311.3 65.6001C310.1 68.7001 310.8 74.3001 307.9 74.3001C306.9 74.3001 306.5 73.2001 306.5 73.2001L304.6 74.2001C304.6 74.2001 305.1 76.6001 307.9 76.6001C308.2 76.6001 308.4 76.6001 308.7 76.5001H308.8C311.9 76.1001 314.9 73.7001 317.1 71.1001C317 70.6001 316.5 70.1001 316 70.0001ZM273.1 65.8001C274.8 62.8001 277.9 63.3001 276.1 66.4001L275.7 67.1001C274.3 69.5001 272.3 69.5001 271.2 69.1001L273.1 65.8001ZM215.9 81.4001C215.3 82.5001 214.3 82.4001 214.3 81.5001C214.3 80.7001 215 79.8001 217.3 78.9001L215.9 81.4001ZM217.3 74.7001C216.6 74.7001 216.3 74.2001 217 73.1001L221.2 65.8001C222.8 63.0001 226 63.7001 224.5 66.4001L222.2 70.4001C220.4 73.3001 218.5 74.7001 217.3 74.7001ZM235.7 70.2001H235.6C234.6 70.2001 233.8 71.0001 233.8 72.0001C233.8 72.4001 233.9 72.7001 234.1 73.0001V73.1001C232.7 75.5001 229.3 75.1001 231 71.9001L233.3 68.0001L234.7 65.6001C236.8 62.0001 239.7 63.4001 237.9 66.5001L235.7 70.2001ZM254.5 81.4001C253.9 82.5001 252.9 82.4001 252.9 81.5001C252.9 80.7001 253.6 79.8001 255.9 78.9001L254.5 81.4001ZM255.9 74.7001C255.2 74.7001 254.9 74.2001 255.6 73.1001L259.8 65.8001C261.4 63.0001 264.6 63.7001 263.1 66.4001L260.8 70.4001C259 73.3001 257.1 74.7001 255.9 74.7001ZM285.4 70.2001H285.3C284.3 70.2001 283.5 71.0001 283.5 72.0001C283.5 72.4001 283.6 72.7001 283.8 73.0001V73.1001C282.4 75.5001 279 75.1001 280.7 71.9001L283 68.0001L284.4 65.6001C286.5 62.0001 289.4 63.4001 287.6 66.5001L285.4 70.2001Z" fill="#766458"/>
    <path d="M130.3 66.8H101.4V68.8H130.3V66.8Z" fill="#766458"/>
    <path d="M357.3 66.8H328.4V68.8H357.3V66.8Z" fill="#766458"/>
    <path d="M163.2 0H170.9L169.7 44.9H155.2L153.2 26.4L151.2 44.9H136.6L135.5 0H143.1L143.7 37.2H144.5L149.4 0H157L161.9 37.2H162.7L163.2 0Z" fill="#81B3D3"/>
    <path d="M195 37.2V45H174.1V0H195V7.7H181.7V18.5H192.3V26.2H181.7V37.1H195V37.2Z" fill="#81B3D3"/>
    <path d="M216.4 37.2V45H198.1V0H205.7V37.2H216.4Z" fill="#81B3D3"/>
    <path d="M232.6 28.4L240.3 26.6V40.2C240.3 42.8 238.1 44.9 235.6 44.9H224.1C221.5 44.9 219.4 42.7 219.4 40.2V4.7C219.4 2.1 221.5 0 224.1 0H235.6C238.1 0 240.3 2.1 240.3 4.7V13.8L232.6 15.6V7.6H227.1V37.1H232.6V28.4Z" fill="#81B3D3"/>
    <path d="M261.1 0C263.6 0 265.8 2.1 265.8 4.7V40.1C265.8 42.7 263.6 44.8 261.1 44.8H249.6C247 44.8 244.9 42.6 244.9 40.1V4.7C244.9 2.1 247 0 249.6 0H261.1ZM258.1 7.7H252.6V37.2H258.1V7.7Z" fill="#81B3D3"/>
    <path d="M290.8 0H298.4V44.9H290.8V22.8L287.7 34.2H280.2L277.2 22.8V44.9H269.6V0H277.2L284 21.7L290.8 0Z" fill="#81B3D3"/>
    <path d="M323.1 37.2V45H302.2V0H323.1V7.7H309.8V18.5H320.4V26.2H309.8V37.1H323.1V37.2Z" fill="#81B3D3"/>
    <path d="M44.5 157.6C40.9 154.6 36.4 152.6 31.6 152.6C28 152.6 23.2999 154.7 23.2999 158.9C23.2999 163.3 28.6 165 31.9 166L36.9 167.5C47.2999 170.6 55.4 175.8 55.4 187.9C55.4 195.3 53.6 203 47.7 208C41.7999 213 34 215 26.5 215C17.1 215 7.79995 211.8 0.199951 206.5L8.29995 191C13.2 195.3 18.9 198.7 25.6 198.7C30.2 198.7 35 196.4 35 191.2C35 185.7 27.4 183.9 23.2 182.7C11 179.1 2.99995 176 2.99995 161.5C2.99995 146.3 13.7999 136.4 28.7999 136.4C36.2999 136.4 45.6 138.8 52.2 142.6L44.5 157.6Z" fill="white"/>
    <path d="M91.7999 154.8V167.3H113.7V183.8H91.7999V196.7H115V213.2H72.3999V138.4H115V154.9L91.7999 154.8Z" fill="white"/>
    <path d="M129.4 138.4H157C177.8 138.4 195 154.8 195 175.8C195 196.8 177.7 213.2 157 213.2H129.4V138.4ZM148.9 196.7H153.3C164.9 196.7 174.8 190.3 174.8 175.8C174.8 162.4 166 154.9 153.5 154.9H148.9V196.7Z" fill="white"/>
    <path d="M286.9 174.4C286.9 198.6 269.5 215.7 245.5 215.7C221.5 215.7 204.1 198.6 204.1 174.4C204.1 151.8 224 135.9 245.5 135.9C267 135.9 286.9 151.8 286.9 174.4ZM224.3 174.5C224.3 187.4 233.8 196.8 245.4 196.8C257 196.8 266.5 187.4 266.5 174.5C266.5 164.2 257 154.7 245.4 154.7C233.9 154.7 224.3 164.2 224.3 174.5Z" fill="white"/>
    <path d="M297.2 138.4H316.7L352.3 184.2H352.5V138.4H372V213.2H352.5L316.9 167.3H316.7V213.2H297.2V138.4Z" fill="white"/>
    <path d="M407.3 200.2L402.1 213.2H381.5L410.3 138.4H431.5L459.7 213.2H439L434.1 200.2H407.3ZM420.9 161.5H420.7L412.7 185.3H428.9L420.9 161.5Z" fill="white"/>
    <path d="M108.1 287.7C115.8 285.1 116.3 275.5 108.8 275.5C106.7 275.5 104.2 277 102.5 279.9L92.3 297.6C91.8 298.4 91.4 299.1 90.8 299.8C88.2 296.2 88.9 290.8 92.6 288.4L91.1 286.5C83.1 291.6 85.5 306.2 98.8 306.2C110.1 306.2 115.4 292.6 108.1 287.7ZM98.7 303.3C96.4 303.3 94.7 302.8 93.2 302C93.9 301.2 94.5 300.3 95.1 299.3L101.5 288.2L102.5 288.3C111.4 290.2 107.9 303.3 98.7 303.3ZM102.8 286L105.9 280.7C108.7 275.9 112.2 278.7 110.3 282.3C108.8 285.1 106.7 285.9 102.8 286Z" fill="white"/>
    <path d="M140.2 300C139.6 302.2 140.8 304.1 143.3 304.1C144.8 304.1 146.7 303.1 148.6 301.6C148.8 303.1 150 304.1 151.9 304.1C153.9 304.1 156.1 302.7 158.3 300.7C157.9 302.7 158.8 304.1 160.7 304.1C162.8 304.1 165.1 302.2 166.9 300.5C166.5 302.5 167.7 304.1 170.1 304.1C173.2 304.1 176.8 300.7 180 297.1C180 297 179.9 297 179.9 296.9C182 294.5 183.8 291.9 185.2 290.1C183.7 294 184.5 301.1 180.9 301.1C179.6 301.1 179.1 299.7 179.1 299.7L176.7 300.9C176.7 300.9 177.4 304 180.9 304C181.3 304 181.6 304 182 303.9H182.1C184.9 303.5 187.6 301.8 190 299.7C190.1 302.2 192 304 195.1 304C199.4 304 203.7 300.6 206.8 297C206.5 296.5 205.9 295.9 205.4 295.7L205.1 296C202.4 299.2 198.9 301.7 196.2 301.7C193.9 301.7 192.5 300.2 194.2 297.2L194.6 296.5C197 297.5 201.6 297 204.5 292.1L205 291.2C207 287.7 205.1 285.1 202 285.1C198.9 285.1 196.5 286.7 194.9 289.5L191.2 295.8H191.1L190.8 296.1C189.4 297.7 187.7 299.2 186.2 300.2C187.4 296.6 187.1 291 189.5 286.2L186.7 284.7C185.1 286.9 181.7 291.8 178.3 295.8L178.4 295.9L178.3 296.1C175.6 299.3 172.9 301.8 171.2 301.8C170.4 301.8 169.9 301.2 170.8 299.7L178.9 285.5H175.1L168.4 297.3C165.5 299.9 163.3 301.4 162.6 301.1C161.7 300.7 162.6 299.3 163.1 298.5L170.5 285.6H166.7L160.7 296C160.6 295.9 160.5 295.9 160.4 295.8L160.1 296.1C157.4 299.3 154.7 301.8 153 301.8C152.2 301.8 151.7 301.2 152.6 299.7L158.7 289H156.5C156.6 287.4 155 285.2 152.5 285.2C150.5 285.2 147.6 286.8 146 289.6L142.2 296.2C142 296 141.8 295.9 141.6 295.8L141.3 296.1C138.6 299.3 135.1 301.8 132.4 301.8C130.1 301.8 128.7 300.3 130.4 297.3L134.3 290.5C136.5 286.7 140.4 287.4 138.1 291.3L137.6 292.2H140.7L141.2 291.3C143.2 287.8 141.3 285.2 138.2 285.2C135.1 285.2 132.7 286.8 131.1 289.6L127.3 296.1C127.2 296 127.1 296 127 295.9L126.7 296.2C124 299.4 120.5 301.9 117.8 301.9C115.5 301.9 114.1 300.4 115.8 297.4L116.2 296.7C118.6 297.7 123.2 297.2 126.1 292.3L126.6 291.4C128.6 287.9 126.7 285.3 123.6 285.3C120.5 285.3 118.1 286.9 116.5 289.7L112.5 296.5C110.1 300.5 112.2 304.3 116.7 304.3C120 304.3 123.4 302.3 126.1 299.7C126 302.3 128 304.3 131.2 304.3C134.4 304.1 137.5 302.3 140.2 300ZM198.2 290.4C200.4 286.6 204.3 287.3 202 291.2L201.5 292.1C199.7 295.2 197.2 295.1 195.8 294.6L198.2 290.4ZM144 299.7L149.3 290.5C151.3 287 155.4 287.9 153.5 291.3L150.5 296.5C148.2 300.1 145.9 301.8 144.4 301.8C143.6 301.7 143.1 301.2 144 299.7ZM119.8 290.4C122 286.6 125.9 287.3 123.6 291.2L123.1 292.1C121.3 295.2 118.8 295.1 117.4 294.6L119.8 290.4Z" fill="white"/>
    <path d="M248.4 304.1C252.7 304.1 257 300.7 260.1 297.1C259.8 296.6 259.2 296 258.7 295.8L258.4 296.1C255.7 299.3 252.2 301.8 249.5 301.8C247.2 301.8 245.8 300.3 247.5 297.3L247.9 296.6C250.3 297.6 254.9 297.1 257.8 292.2L258.3 291.3C260.3 287.8 258.4 285.2 255.3 285.2C252.2 285.2 249.8 286.8 248.2 289.6L244.5 295.9C244.5 295.9 244.4 295.9 244.4 295.8L244.1 296.1C241.4 299.3 238.7 301.8 237 301.8C236.2 301.8 235.7 301.2 236.6 299.7L242.1 290.1C243.7 287.2 242.2 285.1 240.1 285.1C238.5 285.1 236.7 286 234.8 288L240.9 277.5H237L226.3 296C226.2 295.9 226 295.8 225.9 295.7L225.6 296C222.9 299.2 220.2 301.7 218.5 301.7C217.7 301.7 217.2 301.1 218.1 299.6L226.2 285.4H229.3L230.4 283.6H227.3L230.9 277.4H227.1L223.5 283.6H220.1L219 285.4H222.5L214.9 298.6C213.3 301.4 214.4 304 217.5 304C219.4 304 221.4 302.8 223.5 301L222 303.6H225.8L231.6 293.6C237.4 286.3 240 287.2 238.4 290L233.5 298.6C231.9 301.4 233 304 236.1 304C238.4 304 241 302.2 243.4 299.8C243.4 302.3 245.3 304.1 248.4 304.1ZM251.5 290.4C253.7 286.6 257.6 287.3 255.3 291.2L254.8 292.1C253 295.2 250.5 295.1 249.1 294.6L251.5 290.4Z" fill="white"/>
    <path d="M363.4 295.8L363.1 296.1C360.4 299.3 357.7 301.8 356 301.8C355.2 301.8 354.7 301.2 355.6 299.7L368.4 277.5H364.6L359 287.1C358.3 286 357.1 285.1 355.5 285.1C353.5 285.1 350.6 286.7 349 289.5L345.3 295.9C345.2 295.9 345.1 295.8 345.1 295.8L344.8 296.1C342.1 299.3 339.4 301.8 337.7 301.8C336.9 301.8 336.4 301.2 337.3 299.7L342.8 290.1C344.4 287.2 342.9 285.1 340.8 285.1C339.2 285.1 337.4 286 335.5 287.9L336.9 285.4H333.1L327 295.9C326.9 295.8 326.8 295.7 326.6 295.7L326.3 296C323.6 299.2 320.9 301.7 319.2 301.7C318.4 301.7 317.9 301.1 318.8 299.6L324.9 288.9H323C323.1 287.3 321.5 285.1 319 285.1C317 285.1 314.1 286.7 312.5 289.5L308.8 295.8L308.6 296C305.9 299.2 303.2 301.7 301.5 301.7C300.7 301.7 300.2 301.1 301.1 299.6L304.9 293C306.2 290.7 305.6 289.4 304.4 287.9L302.3 285.3C301.8 284.6 301.8 283.8 302.5 283.1L300.5 280.9C298.3 282.8 298.2 285 299.5 286.7L299.8 287.1C298.1 289.5 295.9 292.7 293.4 295.6C293.5 295.7 293.6 295.8 293.7 295.9C290.6 299.5 287.9 301.8 284.9 303.1L289.7 294.9H286L285.6 295.6C283.6 299.1 281.3 301.7 278.3 301.7C275.7 301.7 275.2 299.1 277.5 295.2L278.6 293.3C279.3 293.4 280 293.5 280.8 293.5C294.3 293.5 300.8 275.4 288.9 275.4C286.8 275.4 284.3 276.9 282.6 279.8L276.7 290C274.5 288.8 273.3 286.7 273.3 284.6C273.3 282.8 274.1 281.1 275.7 279.8L274.5 277.6C271.8 279.5 270.6 282.1 270.6 284.7C270.6 287.7 272.3 290.6 275.4 292.2L274.3 294.2C271.6 298.8 272.1 303.9 277.5 303.9C279.1 303.9 280.5 303.4 281.6 302.7L280.6 304.4C275.5 306 272.3 308 272.3 310.9C272.3 314.5 277.9 315.3 280.6 310.6L283.5 305.6C287.4 304.4 291.3 301.7 295.5 296.8C295.4 296.7 295.4 296.6 295.3 296.4C297 294.4 298.4 292.5 301.3 288.6L301.8 289.2C302.3 289.8 302.5 290.6 302 291.4L298 298.4C296.4 301.2 297.5 303.8 300.6 303.8C302.5 303.8 304.6 302.6 306.6 300.8C306.6 302.5 307.7 303.8 309.9 303.8C311.4 303.8 313.3 302.8 315.2 301.3C315.4 302.8 316.6 303.8 318.5 303.8C320.3 303.8 322.3 302.7 324.2 301L322.8 303.4H326.6L332.4 293.3C338.2 286 340.8 287 339.1 289.8L334.2 298.4C332.6 301.2 333.7 303.8 336.8 303.8C338.8 303.8 341 302.4 343.2 300.5C343 302.4 344.2 303.8 346.5 303.8C348 303.8 349.9 302.8 351.8 301.3C352 302.8 353.2 303.8 355.1 303.8C358.2 303.8 361.8 300.4 365 296.8C364.6 296.6 363.9 296 363.4 295.8ZM285.5 281.6C286.6 279.7 287.9 278.8 288.9 278.8C294.9 278.8 290.7 291.1 280.8 291.1H280L285.5 281.6ZM277.4 310.2C276.6 311.6 275.3 311.4 275.3 310.4C275.3 309.4 276.2 308.3 279.1 307.2L277.4 310.2ZM317.1 296.4C314.8 300 312.5 301.7 311 301.7C310.2 301.7 309.7 301.1 310.6 299.6L315.9 290.4C317.9 286.9 322 287.8 320.1 291.2L317.1 296.4ZM353.8 296.2C351.5 300 349.2 301.7 347.6 301.7C346.8 301.7 346.3 301.1 347.2 299.6L352.5 290.4C354.5 286.9 358.6 287.8 356.7 291.2L353.8 296.2Z" fill="white"/>
    <path d="M236.7 331.8L236.4 332.1C233.7 335.3 231 337.8 229.3 337.8C228.5 337.8 228 337.2 228.9 335.7L234.4 326.1C236 323.2 234.5 321.1 232.4 321.1C230.8 321.1 229 322 227.1 323.9L228.5 321.4H224.7L218.6 332C218.4 331.9 218.3 331.8 218.1 331.7L217.8 332C216.1 333.9 214 334.8 212.1 334.8L215.7 328.6C218 324.6 215.9 320.9 212.3 320.9C209.4 320.9 207.1 322.1 204.9 325.9L203 329.1L201.4 331.9C201.3 331.8 201.2 331.8 201.1 331.7L200.8 332C197.7 335.6 195 337.9 192 339.2L202.4 321.4H198.6L191.9 333.1C189 335.8 186.7 337.3 186 337C185.1 336.6 186 335.2 186.5 334.4L193.9 321.5H190.1L184 332C183.9 331.9 183.8 331.9 183.7 331.8L183.4 332.1C180.7 335.3 178 337.8 176.3 337.8C175.5 337.8 175 337.2 175.9 335.7L181.4 326.1C183 323.2 181.5 321.1 179.4 321.1C177.8 321.1 176 322 174.1 323.9L175.5 321.4H171.7L165.6 331.9C165.5 331.8 165.4 331.7 165.2 331.7L164.9 332C162.2 335.2 159.5 337.7 157.8 337.7C157 337.7 156.5 337.1 157.4 335.6L163.5 324.9H161.3C161.4 323.3 159.8 321.1 157.3 321.1C155.3 321.1 152.4 322.7 150.8 325.5L146.9 332.3C146.6 332.1 146.3 331.9 146.1 331.8L145.8 332.1C143.1 335.3 139.7 337.8 136 337.8C133.4 337.8 131.8 335.2 134.1 331.3L135.2 329.4C135.9 329.5 136.6 329.6 137.4 329.6C141.4 329.6 146 327.5 149 322.3C150.1 320.4 150.5 318.7 150.5 317.2C150.5 313.8 148.3 311.5 145.5 311.5C143.4 311.5 140.9 313 139.2 315.9L133.3 326.1C131.1 324.9 129.9 322.8 129.9 320.7C129.9 318.9 130.7 317.2 132.3 315.9L131.1 313.7C128.4 315.6 127.2 318.2 127.2 320.8C127.2 323.8 128.9 326.7 132 328.3L130.9 330.3C128.2 334.9 129.8 340 135.2 340C139.4 340 142.6 338.1 145.2 335.6C144.4 338 145.6 340 148.3 340C149.8 340 151.7 339 153.6 337.5C153.8 339 155 340 156.9 340C158.7 340 160.7 338.9 162.6 337.2L161.2 339.6H165L170.8 329.5C176.6 322.2 179.2 323.2 177.5 326L172.6 334.6C171 337.4 172.1 340 175.2 340C177.2 340 179.5 338.6 181.7 336.6C181.2 338.7 182.2 340 184.1 340C185.9 340 188 338.5 189.7 336.9L187.6 340.5C182.5 342 179.2 344.1 179.2 347C179.2 350.6 184.8 351.4 187.5 346.7L190.4 341.7C193.6 340.7 196.7 338.7 200 335.5C199.5 340.8 206.5 342 210.8 336.6H211.6C213 336.6 214.9 336.1 216.6 335.1L214.1 339.5H217.9L223.7 329.4C229.5 322.1 232.1 323.1 230.4 325.9L225.5 334.5C223.9 337.3 225 339.9 228.1 339.9C231.2 339.9 234.8 336.5 238 332.9C237.9 332.6 237.2 332 236.7 331.8ZM142.3 317.6C143.4 315.7 144.7 314.8 145.7 314.8C147.1 314.8 147.8 315.7 147.8 317.1C147.8 320.6 143.5 327 137.6 327H136.8L142.3 317.6ZM155.7 332.4C153.4 336 151.1 337.7 149.6 337.7C148.8 337.7 148.3 337.1 149.2 335.6L154.5 326.4C156.5 322.9 160.6 323.8 158.7 327.2L155.7 332.4ZM184.5 346.2C183.7 347.6 182.4 347.4 182.4 346.4C182.4 345.4 183.3 344.3 186.2 343.2L184.5 346.2ZM210.1 332H209.9C208.7 332 207.7 333 207.7 334.3C207.7 334.8 207.8 335.2 208.1 335.6V335.7C206.3 338.8 202 338.2 204.2 334.2L207.1 329.2L208.9 326.1C211.6 321.6 215.2 323.4 212.9 327.3L210.1 332Z" fill="white"/>
    <path d="M324.6 333.1C324.4 332.5 323.7 331.9 323.2 331.8L322.9 332.1C321.5 333.7 319.8 335.2 318.3 336.2C319.5 332.6 319.2 327 321.6 322.2L318.8 320.7C317.2 322.9 313.8 327.8 310.4 331.8L310.1 332.1C307.4 335.3 304.7 337.8 303 337.8C302.2 337.8 301.4 337 301.4 335.2V333.6C304.1 333.9 306.9 332.2 308.7 329.1L309.7 327.3C313.2 321.2 307.5 319.2 303.6 322.8L309 313.4H305.2L294.4 332.2C294.2 332 293.9 331.8 293.7 331.7L293.4 332C290.7 335.2 287.2 337.7 284.5 337.7C282.2 337.7 280.8 336.2 282.5 333.2L286.4 326.4C288.6 322.6 292.5 323.3 290.2 327.2L289.7 328.1H292.8L293.3 327.2C295.3 323.7 293.4 321.1 290.3 321.1C287.2 321.1 284.8 322.7 283.2 325.5L279.5 331.9C279.4 331.9 279.3 331.8 279.3 331.8L279 332.1C276.3 335.3 273.6 337.8 271.9 337.8C271.1 337.8 270.6 337.2 271.5 335.7L279.6 321.5H275.8L269.1 333.3C266.2 335.9 264 337.4 263.3 337.1C262.4 336.7 263.3 335.3 263.8 334.5L271.2 321.6H267.4L260 334.3C259.2 335 258.3 335.7 257.6 336.3C258.8 332.7 258.5 327.1 260.9 322.3L258.1 320.8C256.5 323 247.8 334.6 244.3 338.6C244.6 339.1 245.2 339.5 245.7 339.9C247.9 337.4 255.1 328.1 256.4 326.3C254.9 330.2 255.7 337.3 252.1 337.3C250.8 337.3 250.3 335.9 250.3 335.9L247.9 337.1C247.9 337.1 248.6 340.2 252.1 340.2C252.5 340.2 252.8 340.2 253.2 340.1H253.3C255.2 339.8 257.1 339 258.9 337.7C258.9 339.2 259.8 340.2 261.4 340.2C263.5 340.2 265.8 338.3 267.6 336.6C267.2 338.6 268.4 340.2 270.8 340.2C273.2 340.2 275.8 338.3 278.3 335.8C278.3 338.3 280.3 340.2 283.4 340.2C286.5 340.2 289.5 338.5 292.2 336.2L290.1 339.9H293.9L298.2 332.4V335.4C298.2 338.6 298.8 340.3 301.9 340.3C305 340.3 308.6 336.9 311.8 333.3C314 330.8 315.8 328.2 317.2 326.4C315.7 330.3 316.5 337.4 312.9 337.4C311.6 337.4 311.1 336 311.1 336L308.7 337.2C308.7 337.2 309.4 340.3 312.9 340.3C313.3 340.3 313.6 340.3 314 340.2H314.1C317.9 339.5 321.8 336.4 324.6 333.1ZM299.4 330.1L300.5 328.2C304.9 322.1 307.9 323.8 306.5 326.1L304.7 329.2C303.6 331.2 300.3 332.6 299.4 330.1Z" fill="white"/>
    <path d="M324.5 335.7C323.3 335.7 322.3 336.7 322.3 337.9C322.3 339.1 323.2 340.1 324.5 340.1C325.7 340.1 326.7 339.2 326.7 337.9C326.7 336.7 325.7 335.7 324.5 335.7Z" fill="white"/>
    <path d="M324.7 334.2H328.5L340.4 313.5H336.6L324.7 334.2Z" fill="white"/>
    <path d="M80.4 277.6C80.4 277.9 80.3 278.2 80.2 278.5C80.1 278.8 79.9 279.1 79.7 279.3C79.5 279.5 79.2 279.7 78.9 279.9C78.6 280 78.2 280.1 77.8 280.1C77.3 280.1 76.9 280 76.5 279.8C76.1 279.6 75.7 279.4 75.4 279.1C75.1 278.8 75 278.5 74.8 278.1C74.7 277.7 74.6 277.3 74.6 276.8C74.6 275.9 74.8 275.2 75.1 274.4C75.4 273.7 75.8 273 76.4 272.5C76.6 272.3 76.9 272 77.2 271.8C77.5 271.6 77.8 271.4 78.1 271.3C78.4 271.2 78.6 271 78.8 270.9C79 270.8 79.1 270.8 79.2 270.7L80.6 272.7C80.4 272.8 80.1 272.9 79.8 273.1C79.5 273.2 79.2 273.4 78.9 273.6C78.6 273.8 78.4 274.1 78.2 274.4C78 274.7 77.9 275 77.9 275.4C78.6 275.4 79.1 275.6 79.6 276C80.2 276.3 80.4 276.9 80.4 277.6ZM88.3 277.6C88.3 277.9 88.2 278.2 88.1 278.5C88 278.8 87.8 279.1 87.6 279.3C87.4 279.5 87.1 279.7 86.8 279.9C86.5 280 86.1 280.1 85.7 280.1C85.2 280.1 84.8 280 84.4 279.8C84 279.6 83.6 279.4 83.3 279.1C83.1 278.8 82.9 278.5 82.7 278.1C82.6 277.7 82.5 277.3 82.5 276.8C82.5 275.9 82.7 275.2 83 274.4C83.3 273.7 83.7 273 84.3 272.5C84.5 272.3 84.8 272 85.1 271.8C85.4 271.6 85.7 271.4 86 271.3C86.3 271.2 86.5 271 86.7 270.9C86.9 270.8 87 270.8 87.1 270.7L88.5 272.7C88.3 272.8 88 272.9 87.7 273.1C87.4 273.2 87.1 273.4 86.8 273.6C86.5 273.8 86.3 274.1 86.1 274.4C85.9 274.7 85.8 275 85.8 275.4C86.5 275.4 87 275.6 87.5 276C88 276.3 88.3 276.9 88.3 277.6Z" fill="white"/>
    <path d="M353.4 336.5C353.4 336.2 353.5 335.9 353.6 335.6C353.7 335.3 353.9 335 354.1 334.8C354.3 334.6 354.6 334.4 354.9 334.2C355.2 334.1 355.6 334 356 334C356.5 334 356.9 334.1 357.3 334.3C357.7 334.5 358.1 334.7 358.4 335C358.7 335.3 358.8 335.6 359 336C359.1 336.4 359.2 336.8 359.2 337.3C359.2 338.2 359 338.9 358.7 339.7C358.4 340.4 358 341.1 357.4 341.6C357.2 341.8 356.9 342.1 356.6 342.3C356.3 342.5 356 342.7 355.7 342.8C355.4 342.9 355.2 343.1 355 343.2C354.8 343.3 354.7 343.3 354.6 343.4L353.2 341.4C353.4 341.3 353.7 341.2 354 341C354.3 340.9 354.6 340.7 354.9 340.5C355.2 340.3 355.4 340 355.6 339.7C355.8 339.4 355.9 339.1 355.9 338.7C355.2 338.7 354.7 338.5 354.2 338.1C353.7 337.8 353.4 337.2 353.4 336.5ZM345.6 336.5C345.6 336.2 345.7 335.9 345.8 335.6C345.9 335.3 346.1 335 346.3 334.8C346.5 334.6 346.8 334.4 347.1 334.2C347.4 334.1 347.8 334 348.2 334C348.7 334 349.1 334.1 349.5 334.3C349.9 334.5 350.3 334.7 350.6 335C350.8 335.3 351 335.6 351.2 336C351.3 336.4 351.4 336.8 351.4 337.3C351.4 338.2 351.2 338.9 350.9 339.7C350.6 340.4 350.2 341.1 349.6 341.6C349.4 341.8 349.1 342.1 348.8 342.3C348.5 342.5 348.2 342.7 347.9 342.8C347.6 342.9 347.4 343.1 347.2 343.2C347 343.3 346.9 343.3 346.8 343.4L345.4 341.4C345.7 341.3 345.9 341.2 346.2 341C346.5 340.9 346.8 340.7 347.1 340.5C347.4 340.3 347.6 340 347.8 339.7C348 339.4 348.1 339.1 348.1 338.7C347.4 338.7 346.9 338.5 346.4 338.1C345.8 337.8 345.6 337.2 345.6 336.5Z" fill="white"/>
  </svg>
</svg>
