<svg xmlns="http://www.w3.org/2000/svg"><style>:root svg:not(:target){display:none}</style><svg viewBox="0 0 22 16" fill="currentColor" id="checked"><path d="M21.805 1.307L20.76.222c-.285-.296-.856-.296-1.141 0L8.298 11.957 2.403 5.843c-.286-.296-.856-.296-1.142 0L.214 6.928c-.285.295-.285.887 0 1.183l7.419 7.692c.19.197.38.197.57.197.191 0 .381-.099.571-.197L21.615 2.49c.476-.296.476-.789.19-1.183z"></path></svg><svg viewBox="0 0 320 37" fill="none" id="divider-advantages"><path fill-rule="evenodd" clip-rule="evenodd" d="M-225 0h384v37L-225 0zM543 0H159v37L543 0z" fill="#fff"></path></svg><svg fill="none" id="favicon" viewBox="0 0 32 32"><path fill="#81B3D3" d="M0 0h32v32H0z"></path><path d="M10.723 19.743c.023.023.034.045.034.067.023 0 .046.01.068.033.613.66 1.305 1.275 2.077 1.847.771.55 1.657.846 2.655.89.023 0 .046.011.068.033h.102c.023 0 .046.011.069.033h.374c.114-.022.216-.044.306-.066.364-.066.711-.2 1.022-.396.34-.198.601-.44.783-.725l.068-.132.068-.132c.045-.154.08-.297.102-.43a2.16 2.16 0 00.034-.362c0-.593-.272-1.088-.817-1.484a5.897 5.897 0 00-1.702-.957 5.066 5.066 0 00-.715-.197 9.509 9.509 0 00-.647-.165h-.068c-.023-.022-.045-.033-.068-.033a11.341 11.341 0 01-3.132-1.254c-.976-.593-1.645-1.44-2.009-2.54-.07-.23-.139-.46-.204-.692a7.682 7.682 0 01-.102-.759.94.94 0 01-.034-.23V11.3a4.3 4.3 0 01.102-.528c.07-.45.184-.89.34-1.32.16-.439.364-.835.613-1.187.726-1.165 1.657-2 2.792-2.506A8.92 8.92 0 0116.51 5c.295 0 .59.022.885.066.319.022.636.055.953.099.828.135 1.638.356 2.417.66.817.307 1.566.67 2.247 1.088l-1.872 4.057A13.172 13.172 0 0019.2 9.816a5.004 5.004 0 00-2.213-.495h-.272c-.522.066-1.01.297-1.464.692-.454.374-.68.781-.68 1.22v.199a.821.821 0 00.101.198c.046.154.125.296.239.429.113.131.238.252.374.362.25.198.613.385 1.09.561.476.154.975.308 1.497.462.431.11.851.22 1.26.33.409.088.749.176 1.021.264 1.271.44 2.224 1.176 2.86 2.21.635 1.01.964 2.088.987 3.232v.165c0 .132-.011.264-.034.396v.362a7.976 7.976 0 01-1.157 3.266 6.204 6.204 0 01-2.485 2.375c-.388.176-.786.33-1.192.461-.406.11-.814.209-1.226.297-.337.066-.678.11-1.02.132a7.706 7.706 0 01-.988.066h-.375c-1.361-.044-2.7-.33-4.017-.858A12.568 12.568 0 018 23.965l2.723-4.222z" fill="#fff"></path></svg><svg viewBox="0 0 74 69" fill="none" id="food-icon"><path d="M69.054 46H4.262c-2.3 0-4.121 2-4.121 4.3v3.5c0 2.3 1.82 4.2 4.121 4.2h.959v1c0 5.5 4.313 9.9 9.488 9.9h43.898c5.272 0 9.489-4.5 9.489-9.9v-1h.958c2.205 0 4.122-1.9 4.122-4.3v-3.5c0-2.2-1.821-4.2-4.122-4.2zm-3.738 13c0 3.8-2.97 6.9-6.613 6.9h-44.09C10.972 65.9 8 62.8 8 59v-1h57.316v1zm4.984-5.3c0 .7-.575 1.3-1.246 1.3H4.262c-.67 0-1.246-.6-1.246-1.3v-3.5c0-.6.575-1.2 1.246-1.2H69.15c.671 0 1.246.6 1.246 1.3v3.4H70.3zM15.668 37.9l5.176 4 5.271-4 5.272 4 5.271-4 5.176 4 5.271-4 5.272 4 5.272-4 5.271 4 6.039-4.7-1.63-2.4-4.409 3.3-5.271-4-5.272 4-5.272-4-5.271 4-5.176-4-5.271 4-5.272-4-5.271 4-5.176-4-5.272 4-4.409-3.3-1.725 2.4 6.134 4.7 5.272-4zM68.096 31.1c0-.6.096-2.6 0-3C67.425 12.5 53.623 0 36.658 0 19.693 0 5.795 12.5 5.125 28.1v3h62.97zM36.658 3C51.993 3 64.645 14.2 65.22 28.1H8C8.67 14.2 21.323 3 36.658 3z" fill="#81B3D2"></path><path d="M36.658 17c1.059 0 1.917-.895 1.917-2s-.858-2-1.917-2c-1.059 0-1.917.895-1.917 2s.858 2 1.917 2zM28.99 12.1c1.06 0 1.917-.896 1.917-2 0-1.105-.858-2-1.917-2-1.058 0-1.916.895-1.916 2 0 1.104.858 2 1.916 2zM44.326 12.1c1.059 0 1.917-.896 1.917-2 0-1.105-.858-2-1.917-2-1.059 0-1.917.895-1.917 2 0 1.104.858 2 1.917 2z" fill="#81B3D2"></path></svg><svg viewBox="0 0 81 73" fill="none" id="home-icon"><path d="M31.957 65.3H48.98V41.4H31.957v23.9zm13.937-2.9H35.042V44.3h10.745v18.1h.107z" fill="#81B3D2"></path><path d="M77.808 39.4l2.234-2.1-10.531-9.9V.4H54.83v13.2L40.255 0 .575 37.4l2.234 2.1 8.297-7.8v37.8H6.957v2.9h67.98v-2.9H69.51V31.6l8.297 7.8zm-19.893-36h8.404v21.1l-8.404-7.9V3.4zm8.51 66H14.298V28.7L40.255 4.2 66.32 28.7v40.7h.106z" fill="#81B3D2"></path><path d="M32.277 27.2c0 4.3 3.723 7.8 8.191 7.8 4.575 0 8.298-3.5 8.298-7.8s-3.723-7.7-8.298-7.7c-4.574 0-8.191 3.4-8.191 7.7zm8.191-5c2.872 0 5.32 2.2 5.32 5 0 2.7-2.341 5-5.32 5-2.872 0-5.319-2.2-5.319-5 0-2.7 2.447-5 5.32-5zM21.745 41.4h-3.192v3.9h3.192v-3.9zM28.021 41.4H24.83v3.9h3.191v-3.9zM21.745 47.4h-3.192v3.9h3.192v-3.9zM28.021 47.4H24.83v3.9h3.191v-3.9zM55.68 41.4h-3.19v3.9h3.19v-3.9zM62.064 41.4h-3.192v3.9h3.192v-3.9zM55.68 47.4h-3.19v3.9h3.19v-3.9zM62.064 47.4h-3.192v3.9h3.192v-3.9z" fill="#81B3D2"></path></svg><svg viewBox="0 0 27 35" fill="currentColor" id="html-academy-logo"><path d="M13.65.45h-.1L.05 1.85v24.7l13.5 8 13.4-8V1.85L13.65.45zm11.4 12.1l-11.5-6.8v-.1h-.1l-.1-.1v.1l-11.4 6.9v-9l11.5-1.2 11.6 1.2v9zm-11.6-5.3l11.5 6.7-4.5 2.6-7.1-4.2v1.4l5.9 3.5-.9.5-5-3v1.4l3.8 2.3-.8.5-3-1.8v1.4l1.9 1.1-1.8 1.1-11.4-6.7 11.4-6.8zm-11.5 8.3l11.4 6.8v1l-7.9-4.7v1.4l8 4.8v1.1l-8-4.7v1.4l8 4.8 8.1-4.9v-5.2l3.4-2v10l-11.5 6.9-11.5-6.8v-9.9z"></path></svg><svg viewBox="0 0 23 21" fill="none" id="like-icon"><path fill="#000" d="M12.964 3.78l-.628 3.045-.627 2.625h9.096v2.205L17.773 18.9h-9.41V8.4l4.6-4.62zM2.09 10.5v8.4-8.4zM13.8 0L6.9 6.93c-.418.315-.627.84-.627 1.47v10.5c0 1.155.94 2.1 2.09 2.1h9.41c.836 0 1.568-.525 1.881-1.26l3.137-7.455c.104-.21.104-.525.104-.735v-2.1H23c0-1.155-.94-2.1-2.09-2.1h-6.587l1.045-4.83v-.315c0-.42-.209-.84-.418-1.155L13.8 0zM4.182 8.4H0V21h4.182V8.4z"></path></svg><svg viewBox="0 0 185 96" fill="none" id="logo"><path d="M185 0H0l79.81 90.101c7.039 7.865 18.44 7.865 25.479 0L185 0z" fill="#81B3D3"></path><path d="M42.83.697L92.004 58.84l48.878-57.745L42.83.697z" fill="#23A9E1"></path><path d="M120.954 17.224c-5.056 0-10.013.1-15.07.1 5.949-6.87 8.626-6.173 15.07-.1zM80.107 22.6h26.471c-1.983-1.195-6.642-7.069-9.22-4.879-.198.2-7.436-8.86-12.195-4.48-4.163 3.784-6.047-.497-10.806 2.49-5.255 3.583 3.172 5.674 5.75 6.869z" fill="#fff"></path><path d="M92.302 0H41.838v22.4l50.166 61.23.298-.398 50.265-60.134V0H92.302zM54.429 1.792h5.453v17.124l-5.453-6.471V1.792zm-.793 9.757L48.68 5.675V1.792h4.957v9.757zM72.771 8.86L67.12 1.792h5.65v7.069zm-6.544 3.783L60.675 1.792h5.552v10.852zm-5.65-9.259l5.452 10.653c-2.776 2.09-4.66 3.982-5.453 4.878V3.385zm6.443-.498l5.552 6.87a41.788 41.788 0 00-3.073 1.891 53.637 53.637 0 00-2.479 1.793V2.886zm6.544-.199l4.759 4.182c-1.686.696-3.272 1.493-4.76 2.29V2.687zm5.552 3.883l-5.354-4.779h5.949v4.58c-.298 0-.397.1-.595.199zm18.936-4.779h4.957l-4.957 2.39v-2.39zm-5.75 0h4.362l-4.362 2.09v-2.09zm-.893 1.991l-4.164-1.99h4.164v1.99zm-5.452.498L80.9 1.792h5.057v2.489zm-5.552-1.892l4.66 2.29c-1.587.399-3.173.797-4.66 1.295V2.389zm6.345 0l3.37 1.593c-1.19.1-2.28.2-3.47.399V2.389h.1zm10.31.1v1.892c-1.09-.2-2.18-.3-3.37-.399l3.37-1.493zm6.445-.1v3.684c-1.487-.498-3.074-.995-4.759-1.394l4.759-2.29zm.694-.597h5.849l-5.353 4.779c-.199-.1-.298-.1-.496-.2V1.793zm13.483 0h5.552l-5.552 10.852V1.792zm-6.543 0h5.651l-5.651 6.97v-6.97zm-.793.896V9.16c-1.487-.796-3.074-1.593-4.759-2.29l4.759-4.18zm6.543.2V13.34c-.694-.498-1.487-.996-2.28-1.593-.992-.697-2.181-1.394-3.371-2.09l5.651-6.77zm6.345.497v15.133c-1.09-.996-2.875-2.688-5.453-4.58l5.453-10.553zm.793 15.93V1.791h5.453v11.35l-5.453 6.172c.099.1 0 .1 0 0zm6.246-17.523h4.957v4.68l-4.957 5.774V1.792zm-82.288 0V4.68l-2.479-2.887h2.479zm12.69 18.12l.1.1s3.569-3.883 9.12-7.567c5.255-3.485 13.187-7.567 22.11-7.467 8.823 0 16.953 4.181 22.108 7.666 5.552 3.684 9.22 7.467 9.319 7.566l-3.866 4.48c-6.841.897-11.798 6.074-18.441 4.979-3.37-.598-3.47-2.49-4.461-4.48-.694-1.494-1.884-1.295-3.47-1.892-1.388-.598-2.28-1.693-5.155-1.095-2.479.597-2.776 4.48-5.949 4.28-1.685-.099-1.785-2.488-4.164-5.475-6.246-7.567-12.095-6.471-16.061.498l30.04 35.742-31.23-37.335zm75.249-14.436V1.792h3.173l-3.173 3.684z" fill="#491213"></path><path d="M87.94 70.588l4.064-6.472 3.966 6.472-3.966 6.47-4.065-6.47z" fill="#23A9E1"></path><path d="M64.938 32.158c.496.597.893 1.294.793 2.09-.099.598-.892 1.593-.297 1.792.694-.896 1.487-1.891 2.181-2.787-.595-.2-5.353-5.775-5.353-6.472-1.091.598-2.083 1.195-3.173 1.693.198.697 1.289 0 1.884 0 .793.1 1.388.597 1.983 1.195-1.686 1.393-5.85 4.978-6.346 5.077-.198 0-1.09-.597-1.09-.1 0 .3.892.996.991 1.195.694.896 1.487 1.792 2.181 2.688.595-.298-.099-.697.199-1.194.297-.398 4.858-4.281 6.047-5.177zM59.684 25.189c.396-.1.595.398.991-.1-.793-.996-1.586-1.892-2.38-2.887-.396-.399-.792-.896-.693 0 .099.597-6.048 5.675-6.444 5.774-.496.2-.794-.398-1.091.1.694.896 1.487 1.692 2.181 2.588.198.299.496.598.694.896.297.299.198-.697.198-.597-.099-.498.496-.896.893-1.195 1.487-1.294 5.254-4.58 5.65-4.58zM50.96 24.293c-1.785.497-3.669-.2-4.165-1.992-.495-1.792.595-3.783 2.082-4.779 1.388-.995 3.57-.995 4.363.797.297.796.198 1.692-.1 2.489-.198.498-.594.995.1 1.294.892-1.095 1.685-2.19 2.577-3.285-1.09-.598-1.487-1.693-2.28-2.589-.892-1.095-2.082-2.09-3.47-2.29-2.875-.398-5.552 2.589-5.75 5.177-.1 1.494.396 2.788 1.19 3.983.793.995 1.883 1.593 2.379 2.787.297.1 2.677-.995 3.272-1.294-.1-.1-.1-.199-.199-.299 0 0-.694.2 0 0zM89.922 60.532c-1.19-.796-3.965-4.68-4.56-5.277-.1-.1-.198-.298-.298-.398 0 0-.297.2-.198.2-.198.099.1.597-.1.895-.792 1.195-5.75 4.978-5.948 5.177-.594.399-1.19-.199-1.487.3.694.895 2.776 3.484 2.974 3.583.496.1.1-.796.199-.995.099-.399 2.578-2.39 3.47-3.186.297-.299.694.398.892.697.297.497.496.995.297 1.593-.099.398-.694.896-.297 1.194.595-.697 2.38-2.787 2.578-2.986.297-.3-.595 0-.496-.1-.397.2-.694.2-1.09 0-.1-.1-1.091-1.095-.992-1.195.397-.398.991-.995 1.487-1.095.892-.199 1.586 1.493 1.686 2.09.099.598.099 1.195-.1 1.793-.099.398-.495.697 0 .896.694-.996 1.388-1.892 2.082-2.887.199-.2 0-.299-.099-.299.199 0-.099-.1 0 0zM79.81 56.35c2.18-1.891 2.478-5.077.793-7.267-1.884-2.49-5.354-3.087-7.733-1.095-2.181 1.891-2.479 4.977-.793 7.267 1.983 2.688 5.155 2.987 7.733 1.095 1.19-.895-.1.1 0 0zm-.496-4.679c-.595 1.494-2.181 3.087-3.668 3.684-1.785.697-3.074-.796-2.38-2.589.694-1.493 2.181-3.086 3.669-3.683 1.883-.697 3.073.896 2.379 2.588.1-.199-.396.896 0 0zM73.465 41.815c.495.1.892.498 1.288 0-.694-.896-1.487-1.792-2.18-2.589-.595.299 0 .498-.199.996-.198.398-2.578.796-3.172.896.198-.597.892-2.589 1.19-2.788.495-.398.892.398 1.288-.1l-2.677-3.285c-.297-.398-.595-.995-.991-.697 0 0 0 1.494-.1 1.693-.099.199-.892 3.584-1.883 4.48-.496.398-2.181 1.892-2.677 2.09-.496.2-.793-.597-1.19 0 .794.996 1.686 1.992 2.479 2.988.1.1.595.896.793.896.496.1.1-.896.1-1.096.197-.398 2.478-2.688 3.47-2.887 1.189-.199 2.974-.697 4.46-.597.298.1-.396 0 0 0z" fill="#fff"></path><path d="M67.219 22.8c-3.966-.2-2.38-3.983.396-4.78 2.578-.796 8.03 1.693 9.716 3.385-2.776.896-6.345.697-9.32.896-.197-3.186-.99-2.09-.792.498zM76.637 35.244c-8.526-.1-2.776-13.241.1-12.445 3.37 1.095 2.974 12.544-.1 12.445zM82.685 30.963c-.793 2.489-2.38 2.987-2.181-.1.198-3.484 2.478-2.688 4.858-3.982 1.983-1.095 3.073-5.177 6.543-2.788 1.586 1.096 3.371.2 3.867 1.792 0-.1-4.462 10.255-1.983 10.255-4.957 0-2.776-5.874-.892-9.856-1.785.896-4.76 6.67-2.38 7.566-1.289 1.693-5.155 3.883-7.138 2.29-1.487-1.095-.694-3.186-.694-5.177zM86.75 40.52c-3.47.996-8.03-1.194-2.479-2.29 3.47-.696 7.138.698 2.479 2.29.099 0-.1 0 0 0zM91.112 40.421c-.694-1.693.595-3.584 2.677-2.19 1.784 1.194-.892 3.086-2.677 2.19zM88.138 45c-2.38-.696-10.41-.597-5.156-2.787 1.686-.597 10.113.2 5.156 2.788zM98.548 48.286c-1.388-1.194-2.876-1.294-4.164 0-1.785-3.285-8.23-2.19-11.302-2.688 1.586 4.082 14.672 4.879 15.466 2.688zM96.664 50.775c-3.173-.1-6.643-.597-9.518.1 1.884.498 6.345 1.792 2.181 2.887 1.488 2.19 3.966 1.991 5.552.1-.694-.3-.991-.697-1.586-1.096 1.586-.298 3.173-1.194 3.371-1.99zM100.233 46.892c-5.254-3.086-3.966-5.376.397-7.566 2.28-1.095 7.237-5.177 9.319-3.883-3.272 3.883-6.543 7.666-9.716 11.45z" fill="#DC6243"></path><path d="M96.466 39.625c-4.462-4.58 6.642-4.182 8.427-5.775 1.289.398 10.707-8.263 12.987-7.666-1.685 1.892-5.155 8.064-7.733 8.064-1.982 0-3.965-.298-5.452 1.096-2.182 2.09-5.85 3.086-8.23 4.28z" fill="#F49774"></path><path d="M97.953 34.05c-2.479 1.294-4.759-3.884-.496-3.386 2.776.299 5.651-.199 8.229.2-1.983 2.29-4.66 3.583-7.733 3.185z" fill="#F4B1A4"></path><path d="M110.445 52.269c.198.597.297 1.294.198 1.99-.099.897-.991 2.888-2.181 2.29-1.19-.597-2.181-1.692-3.173-2.588.794-.896 1.488-1.692 2.876-1.294.396.1.694 0 .297-.299-.397-.199-3.073-1.991-3.272-1.792-.297.299.496.896.199 1.493-.199.399-.595.797-.893 1.195-.694-.597-1.883-1.294-1.09-2.29.495-.697 1.289-1.194 2.082-1.294.595-.1 1.784.398 1.983-.2-1.091-.497-2.182-.995-3.272-1.592.198.797-3.272 4.48-4.065 5.476-.099.1-.694.597-.694.796 0 .399.595.1.694.1.496-.2 6.742 5.077 6.94 5.476.099.298-.198.597 0 .697 0 0 .198.199.297.199.397-.498 4.462-5.974 5.354-6.173-.793-1.195-1.586-2.39-2.379-3.684-.595.299 0 .996.099 1.494zM104.298 58.94c-2.082-1.295-5.552 1.293-6.048 1.492-.991.498-1.784-.497-1.289-1.493.496-.796 1.388-1.195 2.28-1.294.298 0 1.29.199 1.488 0 .099-.2.198-.2 0-.299-.892-.597-1.686-1.195-2.578-1.692-.198 1.095-1.388 1.692-2.082 2.389-.793.896-1.487 1.892-1.487 3.186 0 1.095.694 2.09 1.685 2.688 1.091.597 2.28.1 3.272-.498.595-.398 1.289-.896 1.884-1.194.991-.498 2.28-.1 1.983 1.294-.298 1.095-1.388 2.09-2.38 2.29-.595.199-1.289.1-1.883-.1-.397-.1-.992-.697-1.19-.1 1.19.797 2.28 1.693 3.47 2.49.099-.797.496-1.096 1.09-1.593a13.288 13.288 0 001.983-2.091c1.19-1.693 1.587-4.082-.198-5.476z" fill="#fff"></path><path d="M104.298 58.94c-.595-.499.991.596 0 0zM140.683 19.514c-.694.697-8.328-2.29-8.923-2.788-.297-.1-.297-1.294-.694-.796l-1.189 1.493c-.397.498-.793.996-1.289 1.493-.298.299-.496.498 0 .697.793-.398 5.354 7.268 4.957 8.463-.694.398-6.841-5.078-7.039-5.377-.099-.1.297-.995-.198-.896-.199 0-.694.896-.893 1.096-.297.398-.595.697-.892 1.095.297.498.496 0 .991 0 .397.1 1.785 1.294 2.182 1.692-.694 0-2.677.1-2.876.1-.892.1-.396-.697-.991-.896-.793.896-1.487 1.792-2.28 2.787-.397.498-.893 1.096-1.289 1.593-.099.1 0 0 0 .1.297.299.099.2.595 0 .495-.2 6.543 4.878 6.741 5.177.397.398-.198.996.397 1.195.595-.697 1.19-1.494 1.785-2.19.099-.1.099-.1 0-.2-.397-.398-.496.2-.992.2-.496-.1-4.362-3.386-5.849-4.58 1.784-.1 7.237-.299 8.129-.299.298 0 1.091.896 1.091 1.195-.099.398-.496.597.099.796.496-.597.992-1.095 1.487-1.692l.199-.299c.099-.1.099-.1.198-.299l.198-.199c.397-.498 1.785-1.99 1.586-2.09-.495-.399-.694.497-1.288-.1-.298-.2-1.19-1.792-1.388-2.19-.298-.399.594-.896.991-1.096.793-.497 3.173-1.194 3.47.3 0 .298-.297.497-.099.696 0 0 .198.2.297.2.199-.2 2.38-2.788 3.272-3.983a2.729 2.729 0 01-.496-.398zm-7.336 2.19c.099 0 .198-.1 0 0-.298.199-.694.498-.992.796-.495-.896-.991-1.792-1.586-2.688 1.19.498 2.379.996 3.47 1.494-.198.1-.496.199-.892.398zM123.73 32.855c-2.38-1.992-5.552-1.394-7.535.796-1.884 2.29-1.685 5.675.595 7.566 2.28 1.892 5.651 1.394 7.535-.796 1.883-2.29 1.784-5.675-.595-7.566zm-.298 6.57s0 .1 0 0c-1.288 1.295-3.37.1-4.461-.697-1.091-.796-3.073-2.588-1.884-4.081 1.091-1.295 3.074-.2 4.164.497 1.19.797 3.371 2.589 2.281 4.182l-.1.1z" fill="#fff"></path><path d="M123.73 32.855c-.298-.2 1.19.995 0 0zM123.432 39.526c0-.1 0-.1 0 0l.1-.1c-.1 0-.1.1-.1.1zM117.186 41.914c.1.1.298.3 0 0-2.875-2.19-6.245-1.593-8.427 1.096a9395.1 9395.1 0 01-2.974 3.584c.397.498.793-.1 1.289.199.397.299 6.147 5.077 6.246 5.376.198.498-.297.498.099.896.198.1 4.461-5.177 4.858-6.173.892-1.792.297-3.683-1.091-4.978zm-1.288 6.77c-.199.3 0 .1-.694.697-.298.3-6.345-4.679-6.147-4.878.793-.896 2.578-1.593 3.569-1.294 2.181.497 5.155 3.186 3.272 5.475z" fill="#fff"></path></svg><svg viewBox="0 0 58 58" fill="none" id="mail-icon"><path d="M29 31c-.3 0-.5-.1-1-.3L21 27v7c0 .5.5 1 1 1h14c.5 0 1-.5 1-1v-7l-7 3.7c-.5.2-.7.3-1 .3zm7-8H22c-.5 0-1 .5-1 1v.8l8 4.2 8-4.2V24c0-.5-.5-1-1-1z" fill="#000"></path></svg><svg viewBox="0 0 78 76" fill="none" id="souvenir-icon"><path d="M74.443 22.124h-30c16.721-6.8 18.073-11.1 17.459-13.5-1.353-3.9-6.886-6.9-12.05-5.3-6.762 2.1-8.606 10.3-10.45 16.2-2.336-6-4.55-13.6-9.836-17.5-1.476-1.1-3.689-2.2-7.009-2-4.918.4-11.926 5.3-8.975 10.8 2.705 5.3 11.68 8.7 17.705 11.4H3.869c-1.967 0-3.443 1.3-3.443 2.8v11.2c0 1.6 1.599 2.8 3.443 2.8h.369v36H74.32v-36h.123c1.967 0 3.442-1.3 3.442-2.8v-11.2c0-1.6-1.598-2.9-3.442-2.9zM51.82 5.824c2.582-.3 6.024 1.3 6.393 3.2.492 2.7-4.057 5.2-6.147 6.3-3.074 1.7-6.025 2.6-8.853 4 .984-3.7 3.074-12.9 8.607-13.5zm-27.787 9.8c-2.705-1.5-7.869-4.4-7.746-7.7.123-3.6 7.008-6.5 10.697-3.8 4.672 3.3 6.885 11 8.606 16.4-3.934-1.6-7.623-2.8-11.557-4.9zm7.254 56.4H7.803v-33h23.484v33zm0-36H4.115v-10.9h27.172v10.9zm12.295 36h-8.73v-46.9h8.73v46.9zm27.05 0H47.27v-33h23.484v33h-.123zm3.565-36H47.27v-10.9h26.927v10.9z" fill="#81B3D2"></path></svg><svg id="sprite"><style>:root svg:not(:target){display:none}</style><svg id="sprite_0" viewBox="0 0 81 73" fill="none" xmlns="http://www.w3.org/2000/svg"><path d="M31.957 65.3H48.98V41.4H31.957v23.9zm13.937-2.9H35.042V44.3h10.745v18.1h.107z" fill="#81B3D2"></path><path d="M77.808 39.4l2.234-2.1-10.531-9.9V.4H54.83v13.2L40.255 0 .575 37.4l2.234 2.1 8.297-7.8v37.8H6.957v2.9h67.98v-2.9H69.51V31.6l8.297 7.8zm-19.893-36h8.404v21.1l-8.404-7.9V3.4zm8.51 66H14.298V28.7L40.255 4.2 66.32 28.7v40.7h.106z" fill="#81B3D2"></path><path d="M32.277 27.2c0 4.3 3.723 7.8 8.191 7.8 4.575 0 8.298-3.5 8.298-7.8s-3.723-7.7-8.298-7.7c-4.574 0-8.191 3.4-8.191 7.7zm8.191-5c2.872 0 5.32 2.2 5.32 5 0 2.7-2.341 5-5.32 5-2.872 0-5.319-2.2-5.319-5 0-2.7 2.447-5 5.32-5zM21.745 41.4h-3.192v3.9h3.192v-3.9zM28.021 41.4H24.83v3.9h3.191v-3.9zM21.745 47.4h-3.192v3.9h3.192v-3.9zM28.021 47.4H24.83v3.9h3.191v-3.9zM55.68 41.4h-3.19v3.9h3.19v-3.9zM62.064 41.4h-3.192v3.9h3.192v-3.9zM55.68 47.4h-3.19v3.9h3.19v-3.9zM62.064 47.4h-3.192v3.9h3.192v-3.9z" fill="#81B3D2"></path></svg><svg id="sprite_1" viewBox="0 0 74 69" fill="none" xmlns="http://www.w3.org/2000/svg"><path d="M69.054 46H4.262c-2.3 0-4.121 2-4.121 4.3v3.5c0 2.3 1.82 4.2 4.121 4.2h.959v1c0 5.5 4.313 9.9 9.488 9.9h43.898c5.272 0 9.489-4.5 9.489-9.9v-1h.958c2.205 0 4.122-1.9 4.122-4.3v-3.5c0-2.2-1.821-4.2-4.122-4.2zm-3.738 13c0 3.8-2.97 6.9-6.613 6.9h-44.09C10.972 65.9 8 62.8 8 59v-1h57.316v1zm4.984-5.3c0 .7-.575 1.3-1.246 1.3H4.262c-.67 0-1.246-.6-1.246-1.3v-3.5c0-.6.575-1.2 1.246-1.2H69.15c.671 0 1.246.6 1.246 1.3v3.4H70.3zM15.668 37.9l5.176 4 5.271-4 5.272 4 5.271-4 5.176 4 5.271-4 5.272 4 5.272-4 5.271 4 6.039-4.7-1.63-2.4-4.409 3.3-5.271-4-5.272 4-5.272-4-5.271 4-5.176-4-5.271 4-5.272-4-5.271 4-5.176-4-5.272 4-4.409-3.3-1.725 2.4 6.134 4.7 5.272-4zM68.096 31.1c0-.6.096-2.6 0-3C67.425 12.5 53.623 0 36.658 0 19.693 0 5.795 12.5 5.125 28.1v3h62.97zM36.658 3C51.993 3 64.645 14.2 65.22 28.1H8C8.67 14.2 21.323 3 36.658 3z" fill="#81B3D2"></path><path d="M36.658 17c1.059 0 1.917-.895 1.917-2s-.858-2-1.917-2c-1.059 0-1.917.895-1.917 2s.858 2 1.917 2zM28.99 12.1c1.06 0 1.917-.896 1.917-2 0-1.105-.858-2-1.917-2-1.058 0-1.916.895-1.916 2 0 1.104.858 2 1.916 2zM44.326 12.1c1.059 0 1.917-.896 1.917-2 0-1.105-.858-2-1.917-2-1.059 0-1.917.895-1.917 2 0 1.104.858 2 1.917 2z" fill="#81B3D2"></path></svg><svg id="sprite_2" viewBox="0 0 78 76" fill="none" xmlns="http://www.w3.org/2000/svg"><path d="M74.443 22.124h-30c16.721-6.8 18.073-11.1 17.459-13.5-1.353-3.9-6.886-6.9-12.05-5.3-6.762 2.1-8.606 10.3-10.45 16.2-2.336-6-4.55-13.6-9.836-17.5-1.476-1.1-3.689-2.2-7.009-2-4.918.4-11.926 5.3-8.975 10.8 2.705 5.3 11.68 8.7 17.705 11.4H3.869c-1.967 0-3.443 1.3-3.443 2.8v11.2c0 1.6 1.599 2.8 3.443 2.8h.369v36H74.32v-36h.123c1.967 0 3.442-1.3 3.442-2.8v-11.2c0-1.6-1.598-2.9-3.442-2.9zM51.82 5.824c2.582-.3 6.024 1.3 6.393 3.2.492 2.7-4.057 5.2-6.147 6.3-3.074 1.7-6.025 2.6-8.853 4 .984-3.7 3.074-12.9 8.607-13.5zm-27.787 9.8c-2.705-1.5-7.869-4.4-7.746-7.7.123-3.6 7.008-6.5 10.697-3.8 4.672 3.3 6.885 11 8.606 16.4-3.934-1.6-7.623-2.8-11.557-4.9zm7.254 56.4H7.803v-33h23.484v33zm0-36H4.115v-10.9h27.172v10.9zm12.295 36h-8.73v-46.9h8.73v46.9zm27.05 0H47.27v-33h23.484v33h-.123zm3.565-36H47.27v-10.9h26.927v10.9z" fill="#81B3D2"></path></svg><svg id="sprite_3" viewBox="0 0 49 48" fill="none" xmlns="http://www.w3.org/2000/svg"><path d="M36.133 17.948c.166-.546 0-.948-.795-.948h-2.625c-.668 0-.976.347-1.143.73 0 0-1.335 3.196-3.226 5.272-.612.602-.89.793-1.224.793-.167 0-.418-.191-.418-.738v-5.109c0-.656-.184-.948-.74-.948h-4.128c-.417 0-.668.304-.668.593 0 .621.946.765 1.043 2.513v3.798c0 .833-.153.984-.487.984-.89 0-3.055-3.211-4.34-6.885-.249-.715-.5-1.003-1.172-1.003h-2.627c-.75 0-.9.347-.9.73 0 .682.89 4.07 4.145 8.551 2.17 3.06 5.225 4.719 8.008 4.719 1.67 0 1.875-.368 1.875-1.003v-2.313c0-.737.158-.884.687-.884.39 0 1.057.192 2.615 1.667C31.793 30.216 32.086 31 33.088 31h2.625c.75 0 1.126-.368.91-1.096-.238-.724-1.088-1.775-2.215-3.022-.612-.71-1.53-1.475-1.809-1.858-.389-.491-.278-.71 0-1.147 0 0 3.2-4.426 3.533-5.929h.001z" fill="#fff"></path></svg><svg id="sprite_4" viewBox="0 0 49 48" fill="none" xmlns="http://www.w3.org/2000/svg"><path d="M35.122 16.622l-3.169 14.944c-.239 1.055-.862 1.317-1.748.82l-4.828-3.558-2.33 2.242c-.258.258-.473.473-.97.473l.347-4.917 8.948-8.086c.39-.346-.084-.54-.604-.192l-11.063 6.966-4.762-1.491c-1.036-.323-1.055-1.036.216-1.533l18.627-7.177c.863-.323 1.617.192 1.336 1.51z" fill="#fff"></path></svg><svg id="sprite_5" viewBox="0 0 49 48" fill="none" xmlns="http://www.w3.org/2000/svg"><path d="M31.864 17H17.496c-1.507 0-2.813 1.3-2.813 2.8v8.3c0 1.6 1.306 2.9 2.813 2.9h14.368c1.608 0 2.814-1.3 2.814-2.8v-8.4c.1-1.5-1.206-2.8-2.814-2.8zM21.716 27.4v-6.8L28.55 24l-6.833 3.4z" fill="#fff"></path></svg><svg id="sprite_6" viewBox="0 0 22 16" fill="currentColor" xmlns="http://www.w3.org/2000/svg"><path d="M21.805 1.307L20.76.222c-.285-.296-.856-.296-1.141 0L8.298 11.957 2.403 5.843c-.286-.296-.856-.296-1.142 0L.214 6.928c-.285.295-.285.887 0 1.183l7.419 7.692c.19.197.38.197.57.197.191 0 .381-.099.571-.197L21.615 2.49c.476-.296.476-.789.19-1.183z"></path></svg><svg id="sprite_7" viewBox="0 0 320 37" fill="none" xmlns="http://www.w3.org/2000/svg"><path fill-rule="evenodd" clip-rule="evenodd" d="M-225 0h384v37L-225 0zM543 0H159v37L543 0z" fill="#fff"></path></svg><svg id="sprite_8" viewBox="0 0 27 35" fill="currentColor" xmlns="http://www.w3.org/2000/svg"><path d="M13.65.45h-.1L.05 1.85v24.7l13.5 8 13.4-8V1.85L13.65.45zm11.4 12.1l-11.5-6.8v-.1h-.1l-.1-.1v.1l-11.4 6.9v-9l11.5-1.2 11.6 1.2v9zm-11.6-5.3l11.5 6.7-4.5 2.6-7.1-4.2v1.4l5.9 3.5-.9.5-5-3v1.4l3.8 2.3-.8.5-3-1.8v1.4l1.9 1.1-1.8 1.1-11.4-6.7 11.4-6.8zm-11.5 8.3l11.4 6.8v1l-7.9-4.7v1.4l8 4.8v1.1l-8-4.7v1.4l8 4.8 8.1-4.9v-5.2l3.4-2v10l-11.5 6.9-11.5-6.8v-9.9z"></path></svg><svg id="sprite_9" viewBox="0 0 23 21" fill="none" xmlns="http://www.w3.org/2000/svg"><path fill="#000" d="M12.964 3.78l-.628 3.045-.627 2.625h9.096v2.205L17.773 18.9h-9.41V8.4l4.6-4.62zM2.09 10.5v8.4-8.4zM13.8 0L6.9 6.93c-.418.315-.627.84-.627 1.47v10.5c0 1.155.94 2.1 2.09 2.1h9.41c.836 0 1.568-.525 1.881-1.26l3.137-7.455c.104-.21.104-.525.104-.735v-2.1H23c0-1.155-.94-2.1-2.09-2.1h-6.587l1.045-4.83v-.315c0-.42-.209-.84-.418-1.155L13.8 0zM4.182 8.4H0V21h4.182V8.4z"></path></svg><svg id="sprite_10" viewBox="0 0 185 96" fill="none" xmlns="http://www.w3.org/2000/svg"><path d="M185 0H0l79.81 90.101c7.039 7.865 18.44 7.865 25.479 0L185 0z" fill="#81B3D3"></path><path d="M42.83.697L92.004 58.84l48.878-57.745L42.83.697z" fill="#23A9E1"></path><path d="M120.954 17.224c-5.056 0-10.013.1-15.07.1 5.949-6.87 8.626-6.173 15.07-.1zM80.107 22.6h26.471c-1.983-1.195-6.642-7.069-9.22-4.879-.198.2-7.436-8.86-12.195-4.48-4.163 3.784-6.047-.497-10.806 2.49-5.255 3.583 3.172 5.674 5.75 6.869z" fill="#fff"></path><path d="M92.302 0H41.838v22.4l50.166 61.23.298-.398 50.265-60.134V0H92.302zM54.429 1.792h5.453v17.124l-5.453-6.471V1.792zm-.793 9.757L48.68 5.675V1.792h4.957v9.757zM72.771 8.86L67.12 1.792h5.65v7.069zm-6.544 3.783L60.675 1.792h5.552v10.852zm-5.65-9.259l5.452 10.653c-2.776 2.09-4.66 3.982-5.453 4.878V3.385zm6.443-.498l5.552 6.87a41.788 41.788 0 00-3.073 1.891 53.637 53.637 0 00-2.479 1.793V2.886zm6.544-.199l4.759 4.182c-1.686.696-3.272 1.493-4.76 2.29V2.687zm5.552 3.883l-5.354-4.779h5.949v4.58c-.298 0-.397.1-.595.199zm18.936-4.779h4.957l-4.957 2.39v-2.39zm-5.75 0h4.362l-4.362 2.09v-2.09zm-.893 1.991l-4.164-1.99h4.164v1.99zm-5.452.498L80.9 1.792h5.057v2.489zm-5.552-1.892l4.66 2.29c-1.587.399-3.173.797-4.66 1.295V2.389zm6.345 0l3.37 1.593c-1.19.1-2.28.2-3.47.399V2.389h.1zm10.31.1v1.892c-1.09-.2-2.18-.3-3.37-.399l3.37-1.493zm6.445-.1v3.684c-1.487-.498-3.074-.995-4.759-1.394l4.759-2.29zm.694-.597h5.849l-5.353 4.779c-.199-.1-.298-.1-.496-.2V1.793zm13.483 0h5.552l-5.552 10.852V1.792zm-6.543 0h5.651l-5.651 6.97v-6.97zm-.793.896V9.16c-1.487-.796-3.074-1.593-4.759-2.29l4.759-4.18zm6.543.2V13.34c-.694-.498-1.487-.996-2.28-1.593-.992-.697-2.181-1.394-3.371-2.09l5.651-6.77zm6.345.497v15.133c-1.09-.996-2.875-2.688-5.453-4.58l5.453-10.553zm.793 15.93V1.791h5.453v11.35l-5.453 6.172c.099.1 0 .1 0 0zm6.246-17.523h4.957v4.68l-4.957 5.774V1.792zm-82.288 0V4.68l-2.479-2.887h2.479zm12.69 18.12l.1.1s3.569-3.883 9.12-7.567c5.255-3.485 13.187-7.567 22.11-7.467 8.823 0 16.953 4.181 22.108 7.666 5.552 3.684 9.22 7.467 9.319 7.566l-3.866 4.48c-6.841.897-11.798 6.074-18.441 4.979-3.37-.598-3.47-2.49-4.461-4.48-.694-1.494-1.884-1.295-3.47-1.892-1.388-.598-2.28-1.693-5.155-1.095-2.479.597-2.776 4.48-5.949 4.28-1.685-.099-1.785-2.488-4.164-5.475-6.246-7.567-12.095-6.471-16.061.498l30.04 35.742-31.23-37.335zm75.249-14.436V1.792h3.173l-3.173 3.684z" fill="#491213"></path><path d="M87.94 70.588l4.064-6.472 3.966 6.472-3.966 6.47-4.065-6.47z" fill="#23A9E1"></path><path d="M64.938 32.158c.496.597.893 1.294.793 2.09-.099.598-.892 1.593-.297 1.792.694-.896 1.487-1.891 2.181-2.787-.595-.2-5.353-5.775-5.353-6.472-1.091.598-2.083 1.195-3.173 1.693.198.697 1.289 0 1.884 0 .793.1 1.388.597 1.983 1.195-1.686 1.393-5.85 4.978-6.346 5.077-.198 0-1.09-.597-1.09-.1 0 .3.892.996.991 1.195.694.896 1.487 1.792 2.181 2.688.595-.298-.099-.697.199-1.194.297-.398 4.858-4.281 6.047-5.177zM59.684 25.189c.396-.1.595.398.991-.1-.793-.996-1.586-1.892-2.38-2.887-.396-.399-.792-.896-.693 0 .099.597-6.048 5.675-6.444 5.774-.496.2-.794-.398-1.091.1.694.896 1.487 1.692 2.181 2.588.198.299.496.598.694.896.297.299.198-.697.198-.597-.099-.498.496-.896.893-1.195 1.487-1.294 5.254-4.58 5.65-4.58zM50.96 24.293c-1.785.497-3.669-.2-4.165-1.992-.495-1.792.595-3.783 2.082-4.779 1.388-.995 3.57-.995 4.363.797.297.796.198 1.692-.1 2.489-.198.498-.594.995.1 1.294.892-1.095 1.685-2.19 2.577-3.285-1.09-.598-1.487-1.693-2.28-2.589-.892-1.095-2.082-2.09-3.47-2.29-2.875-.398-5.552 2.589-5.75 5.177-.1 1.494.396 2.788 1.19 3.983.793.995 1.883 1.593 2.379 2.787.297.1 2.677-.995 3.272-1.294-.1-.1-.1-.199-.199-.299 0 0-.694.2 0 0zM89.922 60.532c-1.19-.796-3.965-4.68-4.56-5.277-.1-.1-.198-.298-.298-.398 0 0-.297.2-.198.2-.198.099.1.597-.1.895-.792 1.195-5.75 4.978-5.948 5.177-.594.399-1.19-.199-1.487.3.694.895 2.776 3.484 2.974 3.583.496.1.1-.796.199-.995.099-.399 2.578-2.39 3.47-3.186.297-.299.694.398.892.697.297.497.496.995.297 1.593-.099.398-.694.896-.297 1.194.595-.697 2.38-2.787 2.578-2.986.297-.3-.595 0-.496-.1-.397.2-.694.2-1.09 0-.1-.1-1.091-1.095-.992-1.195.397-.398.991-.995 1.487-1.095.892-.199 1.586 1.493 1.686 2.09.099.598.099 1.195-.1 1.793-.099.398-.495.697 0 .896.694-.996 1.388-1.892 2.082-2.887.199-.2 0-.299-.099-.299.199 0-.099-.1 0 0zM79.81 56.35c2.18-1.891 2.478-5.077.793-7.267-1.884-2.49-5.354-3.087-7.733-1.095-2.181 1.891-2.479 4.977-.793 7.267 1.983 2.688 5.155 2.987 7.733 1.095 1.19-.895-.1.1 0 0zm-.496-4.679c-.595 1.494-2.181 3.087-3.668 3.684-1.785.697-3.074-.796-2.38-2.589.694-1.493 2.181-3.086 3.669-3.683 1.883-.697 3.073.896 2.379 2.588.1-.199-.396.896 0 0zM73.465 41.815c.495.1.892.498 1.288 0-.694-.896-1.487-1.792-2.18-2.589-.595.299 0 .498-.199.996-.198.398-2.578.796-3.172.896.198-.597.892-2.589 1.19-2.788.495-.398.892.398 1.288-.1l-2.677-3.285c-.297-.398-.595-.995-.991-.697 0 0 0 1.494-.1 1.693-.099.199-.892 3.584-1.883 4.48-.496.398-2.181 1.892-2.677 2.09-.496.2-.793-.597-1.19 0 .794.996 1.686 1.992 2.479 2.988.1.1.595.896.793.896.496.1.1-.896.1-1.096.197-.398 2.478-2.688 3.47-2.887 1.189-.199 2.974-.697 4.46-.597.298.1-.396 0 0 0z" fill="#fff"></path><path d="M67.219 22.8c-3.966-.2-2.38-3.983.396-4.78 2.578-.796 8.03 1.693 9.716 3.385-2.776.896-6.345.697-9.32.896-.197-3.186-.99-2.09-.792.498zM76.637 35.244c-8.526-.1-2.776-13.241.1-12.445 3.37 1.095 2.974 12.544-.1 12.445zM82.685 30.963c-.793 2.489-2.38 2.987-2.181-.1.198-3.484 2.478-2.688 4.858-3.982 1.983-1.095 3.073-5.177 6.543-2.788 1.586 1.096 3.371.2 3.867 1.792 0-.1-4.462 10.255-1.983 10.255-4.957 0-2.776-5.874-.892-9.856-1.785.896-4.76 6.67-2.38 7.566-1.289 1.693-5.155 3.883-7.138 2.29-1.487-1.095-.694-3.186-.694-5.177zM86.75 40.52c-3.47.996-8.03-1.194-2.479-2.29 3.47-.696 7.138.698 2.479 2.29.099 0-.1 0 0 0zM91.112 40.421c-.694-1.693.595-3.584 2.677-2.19 1.784 1.194-.892 3.086-2.677 2.19zM88.138 45c-2.38-.696-10.41-.597-5.156-2.787 1.686-.597 10.113.2 5.156 2.788zM98.548 48.286c-1.388-1.194-2.876-1.294-4.164 0-1.785-3.285-8.23-2.19-11.302-2.688 1.586 4.082 14.672 4.879 15.466 2.688zM96.664 50.775c-3.173-.1-6.643-.597-9.518.1 1.884.498 6.345 1.792 2.181 2.887 1.488 2.19 3.966 1.991 5.552.1-.694-.3-.991-.697-1.586-1.096 1.586-.298 3.173-1.194 3.371-1.99zM100.233 46.892c-5.254-3.086-3.966-5.376.397-7.566 2.28-1.095 7.237-5.177 9.319-3.883-3.272 3.883-6.543 7.666-9.716 11.45z" fill="#DC6243"></path><path d="M96.466 39.625c-4.462-4.58 6.642-4.182 8.427-5.775 1.289.398 10.707-8.263 12.987-7.666-1.685 1.892-5.155 8.064-7.733 8.064-1.982 0-3.965-.298-5.452 1.096-2.182 2.09-5.85 3.086-8.23 4.28z" fill="#F49774"></path><path d="M97.953 34.05c-2.479 1.294-4.759-3.884-.496-3.386 2.776.299 5.651-.199 8.229.2-1.983 2.29-4.66 3.583-7.733 3.185z" fill="#F4B1A4"></path><path d="M110.445 52.269c.198.597.297 1.294.198 1.99-.099.897-.991 2.888-2.181 2.29-1.19-.597-2.181-1.692-3.173-2.588.794-.896 1.488-1.692 2.876-1.294.396.1.694 0 .297-.299-.397-.199-3.073-1.991-3.272-1.792-.297.299.496.896.199 1.493-.199.399-.595.797-.893 1.195-.694-.597-1.883-1.294-1.09-2.29.495-.697 1.289-1.194 2.082-1.294.595-.1 1.784.398 1.983-.2-1.091-.497-2.182-.995-3.272-1.592.198.797-3.272 4.48-4.065 5.476-.099.1-.694.597-.694.796 0 .399.595.1.694.1.496-.2 6.742 5.077 6.94 5.476.099.298-.198.597 0 .697 0 0 .198.199.297.199.397-.498 4.462-5.974 5.354-6.173-.793-1.195-1.586-2.39-2.379-3.684-.595.299 0 .996.099 1.494zM104.298 58.94c-2.082-1.295-5.552 1.293-6.048 1.492-.991.498-1.784-.497-1.289-1.493.496-.796 1.388-1.195 2.28-1.294.298 0 1.29.199 1.488 0 .099-.2.198-.2 0-.299-.892-.597-1.686-1.195-2.578-1.692-.198 1.095-1.388 1.692-2.082 2.389-.793.896-1.487 1.892-1.487 3.186 0 1.095.694 2.09 1.685 2.688 1.091.597 2.28.1 3.272-.498.595-.398 1.289-.896 1.884-1.194.991-.498 2.28-.1 1.983 1.294-.298 1.095-1.388 2.09-2.38 2.29-.595.199-1.289.1-1.883-.1-.397-.1-.992-.697-1.19-.1 1.19.797 2.28 1.693 3.47 2.49.099-.797.496-1.096 1.09-1.593a13.288 13.288 0 001.983-2.091c1.19-1.693 1.587-4.082-.198-5.476z" fill="#fff"></path><path d="M104.298 58.94c-.595-.499.991.596 0 0zM140.683 19.514c-.694.697-8.328-2.29-8.923-2.788-.297-.1-.297-1.294-.694-.796l-1.189 1.493c-.397.498-.793.996-1.289 1.493-.298.299-.496.498 0 .697.793-.398 5.354 7.268 4.957 8.463-.694.398-6.841-5.078-7.039-5.377-.099-.1.297-.995-.198-.896-.199 0-.694.896-.893 1.096-.297.398-.595.697-.892 1.095.297.498.496 0 .991 0 .397.1 1.785 1.294 2.182 1.692-.694 0-2.677.1-2.876.1-.892.1-.396-.697-.991-.896-.793.896-1.487 1.792-2.28 2.787-.397.498-.893 1.096-1.289 1.593-.099.1 0 0 0 .1.297.299.099.2.595 0 .495-.2 6.543 4.878 6.741 5.177.397.398-.198.996.397 1.195.595-.697 1.19-1.494 1.785-2.19.099-.1.099-.1 0-.2-.397-.398-.496.2-.992.2-.496-.1-4.362-3.386-5.849-4.58 1.784-.1 7.237-.299 8.129-.299.298 0 1.091.896 1.091 1.195-.099.398-.496.597.099.796.496-.597.992-1.095 1.487-1.692l.199-.299c.099-.1.099-.1.198-.299l.198-.199c.397-.498 1.785-1.99 1.586-2.09-.495-.399-.694.497-1.288-.1-.298-.2-1.19-1.792-1.388-2.19-.298-.399.594-.896.991-1.096.793-.497 3.173-1.194 3.47.3 0 .298-.297.497-.099.696 0 0 .198.2.297.2.199-.2 2.38-2.788 3.272-3.983a2.729 2.729 0 01-.496-.398zm-7.336 2.19c.099 0 .198-.1 0 0-.298.199-.694.498-.992.796-.495-.896-.991-1.792-1.586-2.688 1.19.498 2.379.996 3.47 1.494-.198.1-.496.199-.892.398zM123.73 32.855c-2.38-1.992-5.552-1.394-7.535.796-1.884 2.29-1.685 5.675.595 7.566 2.28 1.892 5.651 1.394 7.535-.796 1.883-2.29 1.784-5.675-.595-7.566zm-.298 6.57s0 .1 0 0c-1.288 1.295-3.37.1-4.461-.697-1.091-.796-3.073-2.588-1.884-4.081 1.091-1.295 3.074-.2 4.164.497 1.19.797 3.371 2.589 2.281 4.182l-.1.1z" fill="#fff"></path><path d="M123.73 32.855c-.298-.2 1.19.995 0 0zM123.432 39.526c0-.1 0-.1 0 0l.1-.1c-.1 0-.1.1-.1.1zM117.186 41.914c.1.1.298.3 0 0-2.875-2.19-6.245-1.593-8.427 1.096a9395.1 9395.1 0 01-2.974 3.584c.397.498.793-.1 1.289.199.397.299 6.147 5.077 6.246 5.376.198.498-.297.498.099.896.198.1 4.461-5.177 4.858-6.173.892-1.792.297-3.683-1.091-4.978zm-1.288 6.77c-.199.3 0 .1-.694.697-.298.3-6.345-4.679-6.147-4.878.793-.896 2.578-1.593 3.569-1.294 2.181.497 5.155 3.186 3.272 5.475z" fill="#fff"></path></svg><svg id="sprite_11" viewBox="0 0 58 58" fill="none" xmlns="http://www.w3.org/2000/svg"><path d="M29 31c-.3 0-.5-.1-1-.3L21 27v7c0 .5.5 1 1 1h14c.5 0 1-.5 1-1v-7l-7 3.7c-.5.2-.7.3-1 .3zm7-8H22c-.5 0-1 .5-1 1v.8l8 4.2 8-4.2V24c0-.5-.5-1-1-1z" fill="#000"></path></svg><svg id="sprite_12" viewBox="0 0 58 58" fill="none" xmlns="http://www.w3.org/2000/svg"><path d="M23.6 27.8c1.4 2.8 3.8 5.1 6.6 6.6l2.2-2.2c.3-.3.7-.4 1-.2 1.1.4 2.3.6 3.6.6.6 0 1 .4 1 1V37c0 .6-.4 1-1 1-9.4 0-17-7.6-17-17 0-.6.4-1 1-1h3.5c.6 0 1 .4 1 1 0 1.2.2 2.4.6 3.6.1.3 0 .7-.2 1l-2.3 2.2z" fill="#010101"></path></svg><svg id="sprite_13" viewBox="0 0 229 39" fill="none" xmlns="http://www.w3.org/2000/svg"><path d="M27.316 26.637c0 .25-.05.452-.05.653-.251 2.01-.903 3.97-1.955 5.78a11.456 11.456 0 01-4.26 4.221c-.652.302-1.354.553-2.055.804-.702.201-1.404.402-2.105.553-.602.1-1.153.201-1.755.252-.601.05-1.152.1-1.704.1h-.601a19.727 19.727 0 01-6.867-1.558C3.76 36.437 1.754 35.18 0 33.572l4.661-7.488.1.1.1.1a24.24 24.24 0 003.56 3.217c1.302.955 2.856 1.508 4.56 1.608.05 0 .1 0 .15.05.05 0 .1.051.15.051.051 0 .101 0 .151.05.05 0 .1.05.15.05.151 0 .301 0 .502-.05.15 0 .35-.05.501-.1.601-.1 1.203-.352 1.754-.704.552-.352 1.003-.754 1.303-1.306.05-.101.1-.151.1-.252.05-.1.1-.15.1-.251.101-.251.151-.503.151-.754.05-.251.05-.452.05-.653 0-1.056-.45-1.96-1.353-2.664a11.45 11.45 0 00-2.957-1.659c-.451-.15-.852-.301-1.203-.402-.4-.1-.752-.2-1.103-.25-.05 0-.1 0-.1-.051-.05 0-.1-.05-.1-.05a17.415 17.415 0 01-5.363-2.262C4.21 18.847 3.057 17.39 2.406 15.43l-.3-1.206c-.101-.452-.151-.854-.201-1.357-.05-.15-.05-.302-.05-.452v-.453c0-.301 0-.603.05-.955 0-.301.05-.603.15-.954.1-.754.3-1.558.601-2.312A8.31 8.31 0 013.71 5.629C4.962 3.569 6.566 2.11 8.52 1.206 10.375.452 12.43 0 14.535 0c.501 0 1.002.05 1.554.1.5.05 1.052.151 1.604.202 1.403.25 2.806.603 4.16 1.155a26.973 26.973 0 013.809 1.91l-3.208 7.187a28.007 28.007 0 00-3.308-2.06c-1.153-.604-2.406-.855-3.759-.855h-.501c-.902.1-1.704.503-2.506 1.206-.752.704-1.153 1.408-1.153 2.212 0 .1 0 .251.05.351 0 .101.05.252.15.352.1.252.2.503.401.754.2.252.401.453.652.654.451.351 1.053.653 1.854.954.802.302 1.654.553 2.557.855.751.2 1.453.402 2.155.553.701.15 1.303.351 1.754.502 2.155.754 3.81 2.06 4.912 3.87 1.102 1.81 1.654 3.72 1.704 5.73v.25c-.05.252-.05.503-.1.755zm30.072 3.116v8.342H34.633V.905h22.755v8.141h-12.78v6.484h12.028v7.94H44.607v6.283h12.78zm38.392-1.458c-1.203 2.563-2.907 4.674-5.162 6.282a16.313 16.313 0 01-5.915 2.564c-2.155.452-4.31.753-6.465.854-.602.05-1.253.05-1.855.05H64.456V.855h12.58c.602 0 1.203 0 1.754.05 2.105.1 4.16.402 6.215.854a14.634 14.634 0 015.614 2.563c2.155 1.508 3.859 3.518 5.062 6.031 1.203 2.513 1.904 5.076 2.055 7.69.05.25.05.452.05.703v1.508a21.36 21.36 0 01-2.005 8.041zm-8.22-9.197c0-.15 0-.302-.05-.452a12.73 12.73 0 00-1.052-4.272c-.602-1.357-1.454-2.463-2.556-3.317A6.884 6.884 0 0081.195 9.7c-1.002-.252-2.005-.352-3.057-.402h-3.759v20.505c.1 0 .25 0 .4.05.151 0 .251.05.402.05.15 0 .3 0 .4.05.1 0 .251.05.351.05.401 0 .802 0 1.203-.05.451 0 .852-.05 1.203-.1 1.003-.1 2.005-.251 2.957-.503.953-.25 1.855-.703 2.606-1.206 1.254-.904 2.156-2.11 2.757-3.668.602-1.558.902-3.167.902-4.825v-.553zm54.932 1.96c0 .402-.05.804-.15 1.206-.1.804-.201 1.608-.451 2.413-.201.804-.501 1.608-.802 2.362-1.654 3.769-4.16 6.684-7.618 8.795-3.459 2.06-7.067 3.116-10.877 3.116-.25 0-.551 0-.801-.05-.251 0-.502-.05-.802-.05-1.304-.101-2.607-.353-3.91-.704a20.084 20.084 0 01-3.759-1.458c-3.258-1.709-5.814-4.171-7.668-7.338-1.855-3.166-2.807-6.483-2.807-9.9 0-.503 0-1.005.05-1.508.05-.503.1-1.055.251-1.558.2-1.005.451-2.01.802-3.066.35-1.005.751-2.01 1.303-2.965 1.804-3.317 4.26-5.83 7.468-7.589 3.157-1.759 6.515-2.613 9.974-2.613.451 0 .952 0 1.403.05.501.05.952.1 1.403.1a21.556 21.556 0 018.32 3.015c2.757 1.81 4.912 4.172 6.416 7.138 1.503 2.965 2.255 6.08 2.255 9.297v1.307zm-10.124-2.11c0-.252-.05-.453-.05-.704a14.214 14.214 0 00-1.504-4.825 9.008 9.008 0 00-3.358-3.619 11.453 11.453 0 00-1.153-.502c-.401-.151-.751-.302-1.152-.402a9.23 9.23 0 00-1.153-.201c-.401-.05-.752-.1-1.153-.1-1.955 0-3.809.602-5.463 1.859a9.876 9.876 0 00-3.509 4.975c-.05.1-.05.15-.1.251 0 .1-.05.151-.05.252l-.301 1.055c-.1.352-.15.754-.25 1.156-.05.251-.05.553-.1.804 0 .252-.051.503-.051.804v.453c0 .15 0 .301.051.452.1 2.06.751 4.02 1.904 5.88 1.153 1.86 2.707 3.066 4.762 3.669.25.1.451.15.701.2l.752.152c.251.05.451.05.702.1.25 0 .451.05.701.05 2.055 0 3.91-.603 5.564-1.86 1.654-1.205 2.857-2.864 3.558-4.924l.301-1.206c.1-.453.15-.855.201-1.307.05-.252.05-.553.1-.804 0-.252.05-.503.05-.754v-.905zm43.855 19.147l-14.084-19.198c-.401-.452-.751-1.005-1.102-1.659-.351-.653-.702-1.306-1.003-2.01a19.608 19.608 0 01-.651-1.508 17.994 17.994 0 00-.602-1.357c.201 1.207.351 2.413.451 3.67a46.72 46.72 0 01.151 3.718v18.344h-9.774V.905h9.774l13.983 19.098c.351.552.702 1.105 1.003 1.708.351.603.651 1.207.952 1.86.251.502.451 1.005.702 1.508.25.502.451 1.005.701 1.457-.05-.452-.1-.854-.15-1.206l-.15-1.206a18.192 18.192 0 01-.151-2.413c-.05-.804-.05-1.658-.05-2.512V.954h9.724v37.19h-9.724v-.05zm42.653 0l-1.855-6.684h-14.334l-1.905 6.735h-10.024L203.489.955h12.63L229 38.145h-10.124v-.05zm-7.769-26.184c-.2-.603-.401-1.206-.551-1.86-.151-.653-.301-1.256-.451-1.91-.101-.25-.151-.452-.151-.653-.05-.2-.1-.402-.1-.603l-.15.603c-.05.201-.101.453-.151.654-.05.1-.05.15-.05.2 0 .051 0 .152-.05.202-.1.603-.251 1.156-.401 1.709l-.451 1.658-3.759 12.313h10.074l-3.809-12.313z" fill="#fff"></path></svg><svg id="sprite_14" viewBox="0 0 460 80" fill="none" xmlns="http://www.w3.org/2000/svg"><path d="M44.3 21.7c-3.6-3-8.1-5-12.9-5-3.6 0-8.3 2.1-8.3 6.3 0 4.4 5.3 6.1 8.6 7.1l5 1.5c10.4 3.1 18.5 8.3 18.5 20.4 0 7.4-1.8 15.1-7.7 20.1-5.9 5-13.7 7-21.2 7-9.4 0-18.7-3.2-26.3-8.5l8.3-15.7c4.9 4.3 10.6 7.7 17.3 7.7 4.6 0 9.4-2.3 9.4-7.5 0-5.5-7.6-7.3-11.8-8.5-12.4-3.3-20.4-6.5-20.4-21C2.8 10.4 13.6.5 28.6.5 36.1.5 45.4 2.9 52 6.7l-7.7 15zM91.6 19v12.5h21.9V48H91.6v12.9h23.2v16.5H72.2V2.5h42.6V19H91.6zM129.2 2.5h27.6c20.8 0 38 16.4 38 37.4s-17.3 37.4-38 37.4h-27.6V2.5zm19.5 58.3h4.4c11.6 0 21.5-6.4 21.5-20.9 0-13.4-8.8-20.9-21.3-20.9h-4.6v41.8zM286.7 38.5c0 24.2-17.4 41.3-41.4 41.3s-41.4-17.1-41.4-41.3c0-22.6 19.9-38.5 41.4-38.5s41.4 15.9 41.4 38.5zm-62.6.1c0 12.9 9.5 22.3 21.1 22.3 11.6 0 21.1-9.4 21.1-22.3 0-10.3-9.5-19.8-21.1-19.8-11.5.1-21.1 9.5-21.1 19.8zM297 2.5h19.5l35.6 45.8h.2V2.5h19.5v74.8h-19.5l-35.6-45.9h-.2v45.9H297V2.5zM407.1 64.3l-5.2 13h-20.6l28.8-74.8h21.2l28.2 74.8h-20.7l-4.9-13h-26.8zm13.6-38.7h-.2l-8 23.8h16.2l-8-23.8z" fill="#fff"></path></svg><svg id="sprite_15" viewBox="0 0 460 350" fill="none" xmlns="http://www.w3.org/2000/svg"><path d="M165.4 70l-.2.2c-1.4 1.5-3 2.2-4.5 2.2l2.8-4.9c1.8-3.1.1-6.1-2.7-6.1-2.3 0-4.1.9-5.8 3.9l-1.5 2.6-1.2 2.1-.2.2c-2.2 2.5-4.3 4.5-5.6 4.5-.7 0-1-.5-.3-1.6l6.4-11.2h2.4l.9-1.4h-2.5l2.8-4.9h-3l-2.8 4.9h-2.7l-.9 1.4h2.7l-6 10.4c-1.3 2.2-.4 4.3 2 4.3 1.7 0 3.7-1.3 5.5-3.1 0 3.8 5.3 4.6 8.5.5h.7c1.8 0 4.6-1.1 6.1-2.9 0-.5-.5-.9-.9-1.1zm-6.4.2h-.1c-1 0-1.8.8-1.8 1.8 0 .4.1.7.3 1v.1c-1.4 2.4-4.8 2-3.1-1.2l2.3-3.9 1.4-2.4c2.1-3.6 5-2.2 3.2.9l-2.2 3.7zM206.9 70l-.2.2c-2.2 2.5-4.9 4.5-7 4.5-1.8 0-2.9-1.2-1.6-3.6l.3-.5c1.9.8 5.6.4 7.8-3.5l.4-.7c1.6-2.8.1-4.8-2.4-4.8-2.4 0-4.3 1.3-5.6 3.5l-2.9 5-.2.2c-2.2 2.5-4.3 4.5-5.6 4.5-.7 0-1-.5-.3-1.6l4.3-7.6c1.3-2.3.1-3.9-1.6-3.9-1.3 0-2.7.7-4.2 2.3l4.8-8.3h-3L181.6 70l-.2.2c-2.2 2.5-4.3 4.5-5.6 4.5-.7 0-1-.5-.3-1.6l6.4-11.2h2.4l.9-1.4h-2.5l2.8-4.9h-3l-2.8 4.9H177l-.9 1.4h2.7l-6 10.4c-1.3 2.2-.4 4.3 2 4.3 1.2 0 2.5-.6 3.8-1.6l-.8 1.3h3l4.5-7.9c4.6-5.8 6.6-5 5.4-2.8l-3.9 6.8c-1.3 2.2-.4 4.3 2 4.3 1.8 0 3.8-1.4 5.6-3.2.1 1.9 1.7 3.2 4.1 3.2 3.4 0 6.8-2.6 9.2-5.5.1-.6-.4-1-.8-1.2zm-5.7-4.2c1.7-3 4.8-2.5 3 .6l-.4.7c-1.4 2.4-3.4 2.4-4.5 2l1.9-3.3zM316 70l-.2.2c-1.1 1.3-2.4 2.4-3.6 3.3 1-2.9.7-7.2 2.6-11.1l-2.2-1.2c-1.2 1.7-3.9 5.6-6.7 8.8l-.2.2c-2.2 2.5-4.3 4.5-5.6 4.5-.7 0-1-.5-.3-1.6l6.4-11.2h-3l-5.3 9.3c-2.3 2.1-4 3.2-4.6 3-.7-.3 0-1.4.4-2.1l5.8-10.2h-3l-4.7 8.1-.2.2c-1.4 1.5-3 2.2-4.5 2.2l2.8-4.9c1.8-3.1.1-6.1-2.7-6.1-2.3 0-4.1.9-5.8 3.9l-1.5 2.6-1.2 2.1-.2.2c-2.2 2.5-4.9 4.5-7 4.5-1.8 0-2.9-1.2-1.6-3.6l.3-.5c1.9.8 5.6.4 7.8-3.5l.4-.7c1.6-2.8.1-4.8-2.4-4.8-2.4 0-4.3 1.3-5.6 3.5l-2.9 5-.2.2c-2.5 2.9-4.6 4.7-7 5.7l6.7-11.5h-1.8c0-1.2-1.3-2.9-3.1-2.9-1.6 0-3.9 1.3-5.1 3.5l-2.9 5-.2.2c-2.2 2.5-4.3 4.5-5.6 4.5-.7 0-1-.5-.3-1.6l3-5.2c1-1.8.5-2.9-.4-4.1l-1.7-2c-.4-.5-.4-1.2.2-1.7l-1.6-1.7c-1.7 1.5-1.8 3.2-.8 4.6l.3.3c-1.3 1.9-3.1 4.4-5.1 6.7l-.2.2c-1.4 1.5-3 2.2-4.5 2.2l2.8-4.9c1.8-3.1.1-6.1-2.7-6.1-2.3 0-4.1.9-5.8 3.9L230 68l-1.2 2.1-.2.2c-2.5 2.9-4.6 4.7-7 5.7l6.7-11.5h-1.8c0-1.2-1.3-2.9-3.1-2.9-1.6 0-3.9 1.3-5.1 3.5l-4.2 7.3c-1.3 2.2-.4 4.3 2 4.3.8 0 1.8-.4 2.9-1l-.8 1.4c-4 1.2-6.6 2.9-6.6 5.1 0 2.9 4.4 3.5 6.6-.2l2.3-3.9c2.4-.7 4.7-2.2 7.2-4.5 0 3.8 5.3 4.6 8.5.5h.7c1.8 0 4.6-1.1 6.1-2.9 1.4-1.7 2.6-3.2 5-6.4l.4.5c.4.5.5 1.1.2 1.7l-3.2 5.5c-1.3 2.2-.4 4.3 2 4.3 1.5 0 3.2-1 4.8-2.4 0 1.4.9 2.4 2.6 2.4.8 0 1.8-.4 2.9-1L257 77c-4 1.2-6.6 2.9-6.6 5.1 0 2.9 4.4 3.5 6.6-.2l2.3-3.9c2.4-.8 4.8-2.2 7.3-4.6.1 1.9 1.6 3.2 4.1 3.2 2.4 0 4.9-1.4 6.9-3.2-.1 3.9 5.3 4.7 8.5.6h.7c.9 0 2.2-.3 3.3-.9-.8 2.1-.1 3.5 1.6 3.5 1.6 0 3.5-1.5 4.9-2.9-.3 1.6.7 2.9 2.6 2.9 2.5 0 5.3-2.6 7.8-5.5 1.7-2 3.2-4.1 4.3-5.5-1.2 3.1-.5 8.7-3.4 8.7-1 0-1.4-1.1-1.4-1.1l-1.9 1s.5 2.4 3.3 2.4c.3 0 .5 0 .8-.1h.1c3.1-.4 6.1-2.8 8.3-5.4-.1-.5-.6-1-1.1-1.1zm-42.9-4.2c1.7-3 4.8-2.5 3 .6l-.4.7c-1.4 2.4-3.4 2.4-4.5 2l1.9-3.3zm-57.2 15.6c-.6 1.1-1.6 1-1.6.1 0-.8.7-1.7 3-2.6l-1.4 2.5zm1.4-6.7c-.7 0-1-.5-.3-1.6l4.2-7.3c1.6-2.8 4.8-2.1 3.3.6l-2.3 4c-1.8 2.9-3.7 4.3-4.9 4.3zm18.4-4.5h-.1c-1 0-1.8.8-1.8 1.8 0 .4.1.7.3 1v.1c-1.4 2.4-4.8 2-3.1-1.2l2.3-3.9 1.4-2.4c2.1-3.6 5-2.2 3.2.9l-2.2 3.7zm18.8 11.2c-.6 1.1-1.6 1-1.6.1 0-.8.7-1.7 3-2.6l-1.4 2.5zm1.4-6.7c-.7 0-1-.5-.3-1.6l4.2-7.3c1.6-2.8 4.8-2.1 3.3.6l-2.3 4c-1.8 2.9-3.7 4.3-4.9 4.3zm29.5-4.5h-.1c-1 0-1.8.8-1.8 1.8 0 .4.1.7.3 1v.1c-1.4 2.4-4.8 2-3.1-1.2L283 68l1.4-2.4c2.1-3.6 5-2.2 3.2.9l-2.2 3.7zM130.3 66.8h-28.9v2h28.9v-2zM357.3 66.8h-28.9v2h28.9v-2z" fill="#766458"></path><path d="M163.2 0h7.7l-1.2 44.9h-14.5l-2-18.5-2 18.5h-14.6L135.5 0h7.6l.6 37.2h.8L149.4 0h7.6l4.9 37.2h.8l.5-37.2zM195 37.2V45h-20.9V0H195v7.7h-13.3v10.8h10.6v7.7h-10.6v10.9H195v.1zM216.4 37.2V45h-18.3V0h7.6v37.2h10.7zM232.6 28.4l7.7-1.8v13.6c0 2.6-2.2 4.7-4.7 4.7h-11.5c-2.6 0-4.7-2.2-4.7-4.7V4.7c0-2.6 2.1-4.7 4.7-4.7h11.5c2.5 0 4.7 2.1 4.7 4.7v9.1l-7.7 1.8v-8h-5.5v29.5h5.5v-8.7zM261.1 0c2.5 0 4.7 2.1 4.7 4.7v35.4c0 2.6-2.2 4.7-4.7 4.7h-11.5c-2.6 0-4.7-2.2-4.7-4.7V4.7c0-2.6 2.1-4.7 4.7-4.7h11.5zm-3 7.7h-5.5v29.5h5.5V7.7zM290.8 0h7.6v44.9h-7.6V22.8l-3.1 11.4h-7.5l-3-11.4v22.1h-7.6V0h7.6l6.8 21.7L290.8 0zM323.1 37.2V45h-20.9V0h20.9v7.7h-13.3v10.8h10.6v7.7h-10.6v10.9h13.3v.1z" fill="#81B3D3"></path><path d="M44.5 157.6c-3.6-3-8.1-5-12.9-5-3.6 0-8.3 2.1-8.3 6.3 0 4.4 5.3 6.1 8.6 7.1l5 1.5c10.4 3.1 18.5 8.3 18.5 20.4 0 7.4-1.8 15.1-7.7 20.1-5.9 5-13.7 7-21.2 7-9.4 0-18.7-3.2-26.3-8.5L8.3 191c4.9 4.3 10.6 7.7 17.3 7.7 4.6 0 9.4-2.3 9.4-7.5 0-5.5-7.6-7.3-11.8-8.5C11 179.1 3 176 3 161.5c0-15.2 10.8-25.1 25.8-25.1 7.5 0 16.8 2.4 23.4 6.2l-7.7 15zM91.8 154.8v12.5h21.9v16.5H91.8v12.9H115v16.5H72.4v-74.8H115v16.5l-23.2-.1zM129.4 138.4H157c20.8 0 38 16.4 38 37.4s-17.3 37.4-38 37.4h-27.6v-74.8zm19.5 58.3h4.4c11.6 0 21.5-6.4 21.5-20.9 0-13.4-8.8-20.9-21.3-20.9h-4.6v41.8zM286.9 174.4c0 24.2-17.4 41.3-41.4 41.3s-41.4-17.1-41.4-41.3c0-22.6 19.9-38.5 41.4-38.5s41.4 15.9 41.4 38.5zm-62.6.1c0 12.9 9.5 22.3 21.1 22.3 11.6 0 21.1-9.4 21.1-22.3 0-10.3-9.5-19.8-21.1-19.8-11.5 0-21.1 9.5-21.1 19.8zM297.2 138.4h19.5l35.6 45.8h.2v-45.8H372v74.8h-19.5l-35.6-45.9h-.2v45.9h-19.5v-74.8zM407.3 200.2l-5.2 13h-20.6l28.8-74.8h21.2l28.2 74.8H439l-4.9-13h-26.8zm13.6-38.7h-.2l-8 23.8h16.2l-8-23.8zM108.1 287.7c7.7-2.6 8.2-12.2.7-12.2-2.1 0-4.6 1.5-6.3 4.4l-10.2 17.7c-.5.8-.9 1.5-1.5 2.2-2.6-3.6-1.9-9 1.8-11.4l-1.5-1.9c-8 5.1-5.6 19.7 7.7 19.7 11.3 0 16.6-13.6 9.3-18.5zm-9.4 15.6c-2.3 0-4-.5-5.5-1.3.7-.8 1.3-1.7 1.9-2.7l6.4-11.1 1 .1c8.9 1.9 5.4 15-3.8 15zm4.1-17.3l3.1-5.3c2.8-4.8 6.3-2 4.4 1.6-1.5 2.8-3.6 3.6-7.5 3.7z" fill="#fff"></path><path d="M140.2 300c-.6 2.2.6 4.1 3.1 4.1 1.5 0 3.4-1 5.3-2.5.2 1.5 1.4 2.5 3.3 2.5 2 0 4.2-1.4 6.4-3.4-.4 2 .5 3.4 2.4 3.4 2.1 0 4.4-1.9 6.2-3.6-.4 2 .8 3.6 3.2 3.6 3.1 0 6.7-3.4 9.9-7 0-.1-.1-.1-.1-.2 2.1-2.4 3.9-5 5.3-6.8-1.5 3.9-.7 11-4.3 11-1.3 0-1.8-1.4-1.8-1.4l-2.4 1.2s.7 3.1 4.2 3.1c.4 0 .7 0 1.1-.1h.1c2.8-.4 5.5-2.1 7.9-4.2.1 2.5 2 4.3 5.1 4.3 4.3 0 8.6-3.4 11.7-7-.3-.5-.9-1.1-1.4-1.3l-.3.3c-2.7 3.2-6.2 5.7-8.9 5.7-2.3 0-3.7-1.5-2-4.5l.4-.7c2.4 1 7 .5 9.9-4.4l.5-.9c2-3.5.1-6.1-3-6.1s-5.5 1.6-7.1 4.4l-3.7 6.3h-.1l-.3.3c-1.4 1.6-3.1 3.1-4.6 4.1 1.2-3.6.9-9.2 3.3-14l-2.8-1.5c-1.6 2.2-5 7.1-8.4 11.1l.1.1-.1.2c-2.7 3.2-5.4 5.7-7.1 5.7-.8 0-1.3-.6-.4-2.1l8.1-14.2h-3.8l-6.7 11.8c-2.9 2.6-5.1 4.1-5.8 3.8-.9-.4 0-1.8.5-2.6l7.4-12.9h-3.8l-6 10.4c-.1-.1-.2-.1-.3-.2l-.3.3c-2.7 3.2-5.4 5.7-7.1 5.7-.8 0-1.3-.6-.4-2.1l6.1-10.7h-2.2c.1-1.6-1.5-3.8-4-3.8-2 0-4.9 1.6-6.5 4.4l-3.8 6.6c-.2-.2-.4-.3-.6-.4l-.3.3c-2.7 3.2-6.2 5.7-8.9 5.7-2.3 0-3.7-1.5-2-4.5l3.9-6.8c2.2-3.8 6.1-3.1 3.8.8l-.5.9h3.1l.5-.9c2-3.5.1-6.1-3-6.1s-5.5 1.6-7.1 4.4l-3.8 6.5c-.1-.1-.2-.1-.3-.2l-.3.3c-2.7 3.2-6.2 5.7-8.9 5.7-2.3 0-3.7-1.5-2-4.5l.4-.7c2.4 1 7 .5 9.9-4.4l.5-.9c2-3.5.1-6.1-3-6.1s-5.5 1.6-7.1 4.4l-4 6.8c-2.4 4-.3 7.8 4.2 7.8 3.3 0 6.7-2 9.4-4.6-.1 2.6 1.9 4.6 5.1 4.6 3.2-.2 6.3-2 9-4.3zm58-9.6c2.2-3.8 6.1-3.1 3.8.8l-.5.9c-1.8 3.1-4.3 3-5.7 2.5l2.4-4.2zm-54.2 9.3l5.3-9.2c2-3.5 6.1-2.6 4.2.8l-3 5.2c-2.3 3.6-4.6 5.3-6.1 5.3-.8-.1-1.3-.6-.4-2.1zm-24.2-9.3c2.2-3.8 6.1-3.1 3.8.8l-.5.9c-1.8 3.1-4.3 3-5.7 2.5l2.4-4.2zM248.4 304.1c4.3 0 8.6-3.4 11.7-7-.3-.5-.9-1.1-1.4-1.3l-.3.3c-2.7 3.2-6.2 5.7-8.9 5.7-2.3 0-3.7-1.5-2-4.5l.4-.7c2.4 1 7 .5 9.9-4.4l.5-.9c2-3.5.1-6.1-3-6.1s-5.5 1.6-7.1 4.4l-3.7 6.3s-.1 0-.1-.1l-.3.3c-2.7 3.2-5.4 5.7-7.1 5.7-.8 0-1.3-.6-.4-2.1l5.5-9.6c1.6-2.9.1-5-2-5-1.6 0-3.4.9-5.3 2.9l6.1-10.5H237L226.3 296c-.1-.1-.3-.2-.4-.3l-.3.3c-2.7 3.2-5.4 5.7-7.1 5.7-.8 0-1.3-.6-.4-2.1l8.1-14.2h3.1l1.1-1.8h-3.1l3.6-6.2h-3.8l-3.6 6.2h-3.4l-1.1 1.8h3.5l-7.6 13.2c-1.6 2.8-.5 5.4 2.6 5.4 1.9 0 3.9-1.2 6-3l-1.5 2.6h3.8l5.8-10c5.8-7.3 8.4-6.4 6.8-3.6l-4.9 8.6c-1.6 2.8-.5 5.4 2.6 5.4 2.3 0 4.9-1.8 7.3-4.2 0 2.5 1.9 4.3 5 4.3zm3.1-13.7c2.2-3.8 6.1-3.1 3.8.8l-.5.9c-1.8 3.1-4.3 3-5.7 2.5l2.4-4.2zM363.4 295.8l-.3.3c-2.7 3.2-5.4 5.7-7.1 5.7-.8 0-1.3-.6-.4-2.1l12.8-22.2h-3.8l-5.6 9.6c-.7-1.1-1.9-2-3.5-2-2 0-4.9 1.6-6.5 4.4l-3.7 6.4c-.1 0-.2-.1-.2-.1l-.3.3c-2.7 3.2-5.4 5.7-7.1 5.7-.8 0-1.3-.6-.4-2.1l5.5-9.6c1.6-2.9.1-5-2-5-1.6 0-3.4.9-5.3 2.8l1.4-2.5h-3.8l-6.1 10.5c-.1-.1-.2-.2-.4-.2l-.3.3c-2.7 3.2-5.4 5.7-7.1 5.7-.8 0-1.3-.6-.4-2.1l6.1-10.7H323c.1-1.6-1.5-3.8-4-3.8-2 0-4.9 1.6-6.5 4.4l-3.7 6.3-.2.2c-2.7 3.2-5.4 5.7-7.1 5.7-.8 0-1.3-.6-.4-2.1l3.8-6.6c1.3-2.3.7-3.6-.5-5.1l-2.1-2.6c-.5-.7-.5-1.5.2-2.2l-2-2.2c-2.2 1.9-2.3 4.1-1 5.8l.3.4c-1.7 2.4-3.9 5.6-6.4 8.5l.3.3c-3.1 3.6-5.8 5.9-8.8 7.2l4.8-8.2H286l-.4.7c-2 3.5-4.3 6.1-7.3 6.1-2.6 0-3.1-2.6-.8-6.5l1.1-1.9c.7.1 1.4.2 2.2.2 13.5 0 20-18.1 8.1-18.1-2.1 0-4.6 1.5-6.3 4.4l-5.9 10.2c-2.2-1.2-3.4-3.3-3.4-5.4 0-1.8.8-3.5 2.4-4.8l-1.2-2.2c-2.7 1.9-3.9 4.5-3.9 7.1 0 3 1.7 5.9 4.8 7.5l-1.1 2c-2.7 4.6-2.2 9.7 3.2 9.7 1.6 0 3-.5 4.1-1.2l-1 1.7c-5.1 1.6-8.3 3.6-8.3 6.5 0 3.6 5.6 4.4 8.3-.3l2.9-5c3.9-1.2 7.8-3.9 12-8.8-.1-.1-.1-.2-.2-.4 1.7-2 3.1-3.9 6-7.8l.5.6c.5.6.7 1.4.2 2.2l-4 7c-1.6 2.8-.5 5.4 2.6 5.4 1.9 0 4-1.2 6-3 0 1.7 1.1 3 3.3 3 1.5 0 3.4-1 5.3-2.5.2 1.5 1.4 2.5 3.3 2.5 1.8 0 3.8-1.1 5.7-2.8l-1.4 2.4h3.8l5.8-10.1c5.8-7.3 8.4-6.3 6.7-3.5l-4.9 8.6c-1.6 2.8-.5 5.4 2.6 5.4 2 0 4.2-1.4 6.4-3.3-.2 1.9 1 3.3 3.3 3.3 1.5 0 3.4-1 5.3-2.5.2 1.5 1.4 2.5 3.3 2.5 3.1 0 6.7-3.4 9.9-7-.4-.2-1.1-.8-1.6-1zm-77.9-14.2c1.1-1.9 2.4-2.8 3.4-2.8 6 0 1.8 12.3-8.1 12.3h-.8l5.5-9.5zm-8.1 28.6c-.8 1.4-2.1 1.2-2.1.2s.9-2.1 3.8-3.2l-1.7 3zm39.7-13.8c-2.3 3.6-4.6 5.3-6.1 5.3-.8 0-1.3-.6-.4-2.1l5.3-9.2c2-3.5 6.1-2.6 4.2.8l-3 5.2zm36.7-.2c-2.3 3.8-4.6 5.5-6.2 5.5-.8 0-1.3-.6-.4-2.1l5.3-9.2c2-3.5 6.1-2.6 4.2.8l-2.9 5zM236.7 331.8l-.3.3c-2.7 3.2-5.4 5.7-7.1 5.7-.8 0-1.3-.6-.4-2.1l5.5-9.6c1.6-2.9.1-5-2-5-1.6 0-3.4.9-5.3 2.8l1.4-2.5h-3.8l-6.1 10.6c-.2-.1-.3-.2-.5-.3l-.3.3c-1.7 1.9-3.8 2.8-5.7 2.8l3.6-6.2c2.3-4 .2-7.7-3.4-7.7-2.9 0-5.2 1.2-7.4 5l-1.9 3.2-1.6 2.8c-.1-.1-.2-.1-.3-.2l-.3.3c-3.1 3.6-5.8 5.9-8.8 7.2l10.4-17.8h-3.8l-6.7 11.7c-2.9 2.7-5.2 4.2-5.9 3.9-.9-.4 0-1.8.5-2.6l7.4-12.9h-3.8L184 332c-.1-.1-.2-.1-.3-.2l-.3.3c-2.7 3.2-5.4 5.7-7.1 5.7-.8 0-1.3-.6-.4-2.1l5.5-9.6c1.6-2.9.1-5-2-5-1.6 0-3.4.9-5.3 2.8l1.4-2.5h-3.8l-6.1 10.5c-.1-.1-.2-.2-.4-.2l-.3.3c-2.7 3.2-5.4 5.7-7.1 5.7-.8 0-1.3-.6-.4-2.1l6.1-10.7h-2.2c.1-1.6-1.5-3.8-4-3.8-2 0-4.9 1.6-6.5 4.4l-3.9 6.8c-.3-.2-.6-.4-.8-.5l-.3.3c-2.7 3.2-6.1 5.7-9.8 5.7-2.6 0-4.2-2.6-1.9-6.5l1.1-1.9c.7.1 1.4.2 2.2.2 4 0 8.6-2.1 11.6-7.3 1.1-1.9 1.5-3.6 1.5-5.1 0-3.4-2.2-5.7-5-5.7-2.1 0-4.6 1.5-6.3 4.4l-5.9 10.2c-2.2-1.2-3.4-3.3-3.4-5.4 0-1.8.8-3.5 2.4-4.8l-1.2-2.2c-2.7 1.9-3.9 4.5-3.9 7.1 0 3 1.7 5.9 4.8 7.5l-1.1 2c-2.7 4.6-1.1 9.7 4.3 9.7 4.2 0 7.4-1.9 10-4.4-.8 2.4.4 4.4 3.1 4.4 1.5 0 3.4-1 5.3-2.5.2 1.5 1.4 2.5 3.3 2.5 1.8 0 3.8-1.1 5.7-2.8l-1.4 2.4h3.8l5.8-10.1c5.8-7.3 8.4-6.3 6.7-3.5l-4.9 8.6c-1.6 2.8-.5 5.4 2.6 5.4 2 0 4.3-1.4 6.5-3.4-.5 2.1.5 3.4 2.4 3.4 1.8 0 3.9-1.5 5.6-3.1l-2.1 3.6c-5.1 1.5-8.4 3.6-8.4 6.5 0 3.6 5.6 4.4 8.3-.3l2.9-5c3.2-1 6.3-3 9.6-6.2-.5 5.3 6.5 6.5 10.8 1.1h.8c1.4 0 3.3-.5 5-1.5l-2.5 4.4h3.8l5.8-10.1c5.8-7.3 8.4-6.3 6.7-3.5l-4.9 8.6c-1.6 2.8-.5 5.4 2.6 5.4s6.7-3.4 9.9-7c-.1-.3-.8-.9-1.3-1.1zm-94.4-14.2c1.1-1.9 2.4-2.8 3.4-2.8 1.4 0 2.1.9 2.1 2.3 0 3.5-4.3 9.9-10.2 9.9h-.8l5.5-9.4zm13.4 14.8c-2.3 3.6-4.6 5.3-6.1 5.3-.8 0-1.3-.6-.4-2.1l5.3-9.2c2-3.5 6.1-2.6 4.2.8l-3 5.2zm28.8 13.8c-.8 1.4-2.1 1.2-2.1.2s.9-2.1 3.8-3.2l-1.7 3zm25.6-14.2h-.2c-1.2 0-2.2 1-2.2 2.3 0 .5.1.9.4 1.3v.1c-1.8 3.1-6.1 2.5-3.9-1.5l2.9-5 1.8-3.1c2.7-4.5 6.3-2.7 4 1.2l-2.8 4.7zM324.6 333.1c-.2-.6-.9-1.2-1.4-1.3l-.3.3c-1.4 1.6-3.1 3.1-4.6 4.1 1.2-3.6.9-9.2 3.3-14l-2.8-1.5c-1.6 2.2-5 7.1-8.4 11.1l-.3.3c-2.7 3.2-5.4 5.7-7.1 5.7-.8 0-1.6-.8-1.6-2.6v-1.6c2.7.3 5.5-1.4 7.3-4.5l1-1.8c3.5-6.1-2.2-8.1-6.1-4.5l5.4-9.4h-3.8l-10.8 18.8c-.2-.2-.5-.4-.7-.5l-.3.3c-2.7 3.2-6.2 5.7-8.9 5.7-2.3 0-3.7-1.5-2-4.5l3.9-6.8c2.2-3.8 6.1-3.1 3.8.8l-.5.9h3.1l.5-.9c2-3.5.1-6.1-3-6.1s-5.5 1.6-7.1 4.4l-3.7 6.4c-.1 0-.2-.1-.2-.1l-.3.3c-2.7 3.2-5.4 5.7-7.1 5.7-.8 0-1.3-.6-.4-2.1l8.1-14.2h-3.8l-6.7 11.8c-2.9 2.6-5.1 4.1-5.8 3.8-.9-.4 0-1.8.5-2.6l7.4-12.9h-3.8l-7.4 12.7c-.8.7-1.7 1.4-2.4 2 1.2-3.6.9-9.2 3.3-14l-2.8-1.5c-1.6 2.2-10.3 13.8-13.8 17.8.3.5.9.9 1.4 1.3 2.2-2.5 9.4-11.8 10.7-13.6-1.5 3.9-.7 11-4.3 11-1.3 0-1.8-1.4-1.8-1.4l-2.4 1.2s.7 3.1 4.2 3.1c.4 0 .7 0 1.1-.1h.1c1.9-.3 3.8-1.1 5.6-2.4 0 1.5.9 2.5 2.5 2.5 2.1 0 4.4-1.9 6.2-3.6-.4 2 .8 3.6 3.2 3.6 2.4 0 5-1.9 7.5-4.4 0 2.5 2 4.4 5.1 4.4 3.1 0 6.1-1.7 8.8-4l-2.1 3.7h3.8l4.3-7.5v3c0 3.2.6 4.9 3.7 4.9s6.7-3.4 9.9-7c2.2-2.5 4-5.1 5.4-6.9-1.5 3.9-.7 11-4.3 11-1.3 0-1.8-1.4-1.8-1.4l-2.4 1.2s.7 3.1 4.2 3.1c.4 0 .7 0 1.1-.1h.1c3.8-.7 7.7-3.8 10.5-7.1zm-25.2-3l1.1-1.9c4.4-6.1 7.4-4.4 6-2.1l-1.8 3.1c-1.1 2-4.4 3.4-5.3.9zM324.5 335.7c-1.2 0-2.2 1-2.2 2.2 0 1.2.9 2.2 2.2 2.2 1.2 0 2.2-.9 2.2-2.2 0-1.2-1-2.2-2.2-2.2zM324.7 334.2h3.8l11.9-20.7h-3.8l-11.9 20.7zM80.4 277.6c0 .3-.1.6-.2.9-.1.3-.3.6-.5.8-.2.2-.5.4-.8.6-.3.1-.7.2-1.1.2-.5 0-.9-.1-1.3-.3-.4-.2-.8-.4-1.1-.7-.3-.3-.4-.6-.6-1-.1-.4-.2-.8-.2-1.3 0-.9.2-1.6.5-2.4.3-.7.7-1.4 1.3-1.9.2-.2.5-.5.8-.7.3-.2.6-.4.9-.5.3-.1.5-.3.7-.4.2-.1.3-.1.4-.2l1.4 2c-.2.1-.5.2-.8.4-.3.1-.6.3-.9.5-.3.2-.5.5-.7.8-.2.3-.3.6-.3 1 .7 0 1.2.2 1.7.6.6.3.8.9.8 1.6zm7.9 0c0 .3-.1.6-.2.9-.1.3-.3.6-.5.8-.2.2-.5.4-.8.6-.3.1-.7.2-1.1.2-.5 0-.9-.1-1.3-.3-.4-.2-.8-.4-1.1-.7-.2-.3-.4-.6-.6-1-.1-.4-.2-.8-.2-1.3 0-.9.2-1.6.5-2.4.3-.7.7-1.4 1.3-1.9.2-.2.5-.5.8-.7.3-.2.6-.4.9-.5.3-.1.5-.3.7-.4.2-.1.3-.1.4-.2l1.4 2c-.2.1-.5.2-.8.4-.3.1-.6.3-.9.5-.3.2-.5.5-.7.8-.2.3-.3.6-.3 1 .7 0 1.2.2 1.7.6.5.3.8.9.8 1.6zM353.4 336.5c0-.3.1-.6.2-.9.1-.3.3-.6.5-.8.2-.2.5-.4.8-.6.3-.1.7-.2 1.1-.2.5 0 .9.1 1.3.3.4.2.8.4 1.1.7.3.3.4.6.6 1 .1.4.2.8.2 1.3 0 .9-.2 1.6-.5 2.4-.3.7-.7 1.4-1.3 1.9-.2.2-.5.5-.8.7-.3.2-.6.4-.9.5-.3.1-.5.3-.7.4-.2.1-.3.1-.4.2l-1.4-2c.2-.1.5-.2.8-.4.3-.1.6-.3.9-.5.3-.2.5-.5.7-.8.2-.3.3-.6.3-1-.7 0-1.2-.2-1.7-.6-.5-.3-.8-.9-.8-1.6zm-7.8 0c0-.3.1-.6.2-.9.1-.3.3-.6.5-.8.2-.2.5-.4.8-.6.3-.1.7-.2 1.1-.2.5 0 .9.1 1.3.3.4.2.8.4 1.1.7.2.3.4.6.6 1 .1.4.2.8.2 1.3 0 .9-.2 1.6-.5 2.4-.3.7-.7 1.4-1.3 1.9-.2.2-.5.5-.8.7-.3.2-.6.4-.9.5-.3.1-.5.3-.7.4-.2.1-.3.1-.4.2l-1.4-2c.3-.1.5-.2.8-.4.3-.1.6-.3.9-.5.3-.2.5-.5.7-.8.2-.3.3-.6.3-1-.7 0-1.2-.2-1.7-.6-.6-.3-.8-.9-.8-1.6z" fill="#fff"></path></svg></svg><svg viewBox="0 0 49 48" fill="none" id="telegram-icon"><path d="M35.122 16.622l-3.169 14.944c-.239 1.055-.862 1.317-1.748.82l-4.828-3.558-2.33 2.242c-.258.258-.473.473-.97.473l.347-4.917 8.948-8.086c.39-.346-.084-.54-.604-.192l-11.063 6.966-4.762-1.491c-1.036-.323-1.055-1.036.216-1.533l18.627-7.177c.863-.323 1.617.192 1.336 1.51z" fill="#fff"></path></svg><svg viewBox="0 0 58 58" fill="none" id="telephone-icon"><path d="M23.6 27.8c1.4 2.8 3.8 5.1 6.6 6.6l2.2-2.2c.3-.3.7-.4 1-.2 1.1.4 2.3.6 3.6.6.6 0 1 .4 1 1V37c0 .6-.4 1-1 1-9.4 0-17-7.6-17-17 0-.6.4-1 1-1h3.5c.6 0 1 .4 1 1 0 1.2.2 2.4.6 3.6.1.3 0 .7-.2 1l-2.3 2.2z" fill="#010101"></path></svg><svg viewBox="0 0 460 80" fill="none" id="text-sedona-desktop"><path d="M44.3 21.7c-3.6-3-8.1-5-12.9-5-3.6 0-8.3 2.1-8.3 6.3 0 4.4 5.3 6.1 8.6 7.1l5 1.5c10.4 3.1 18.5 8.3 18.5 20.4 0 7.4-1.8 15.1-7.7 20.1-5.9 5-13.7 7-21.2 7-9.4 0-18.7-3.2-26.3-8.5l8.3-15.7c4.9 4.3 10.6 7.7 17.3 7.7 4.6 0 9.4-2.3 9.4-7.5 0-5.5-7.6-7.3-11.8-8.5-12.4-3.3-20.4-6.5-20.4-21C2.8 10.4 13.6.5 28.6.5 36.1.5 45.4 2.9 52 6.7l-7.7 15zM91.6 19v12.5h21.9V48H91.6v12.9h23.2v16.5H72.2V2.5h42.6V19H91.6zM129.2 2.5h27.6c20.8 0 38 16.4 38 37.4s-17.3 37.4-38 37.4h-27.6V2.5zm19.5 58.3h4.4c11.6 0 21.5-6.4 21.5-20.9 0-13.4-8.8-20.9-21.3-20.9h-4.6v41.8zM286.7 38.5c0 24.2-17.4 41.3-41.4 41.3s-41.4-17.1-41.4-41.3c0-22.6 19.9-38.5 41.4-38.5s41.4 15.9 41.4 38.5zm-62.6.1c0 12.9 9.5 22.3 21.1 22.3 11.6 0 21.1-9.4 21.1-22.3 0-10.3-9.5-19.8-21.1-19.8-11.5.1-21.1 9.5-21.1 19.8zM297 2.5h19.5l35.6 45.8h.2V2.5h19.5v74.8h-19.5l-35.6-45.9h-.2v45.9H297V2.5zM407.1 64.3l-5.2 13h-20.6l28.8-74.8h21.2l28.2 74.8h-20.7l-4.9-13h-26.8zm13.6-38.7h-.2l-8 23.8h16.2l-8-23.8z" fill="#fff"></path></svg><svg viewBox="0 0 229 39" fill="none" id="text-sedona"><path d="M27.316 26.637c0 .25-.05.452-.05.653-.251 2.01-.903 3.97-1.955 5.78a11.456 11.456 0 01-4.26 4.221c-.652.302-1.354.553-2.055.804-.702.201-1.404.402-2.105.553-.602.1-1.153.201-1.755.252-.601.05-1.152.1-1.704.1h-.601a19.727 19.727 0 01-6.867-1.558C3.76 36.437 1.754 35.18 0 33.572l4.661-7.488.1.1.1.1a24.24 24.24 0 003.56 3.217c1.302.955 2.856 1.508 4.56 1.608.05 0 .1 0 .15.05.05 0 .1.051.15.051.051 0 .101 0 .151.05.05 0 .1.05.15.05.151 0 .301 0 .502-.05.15 0 .35-.05.501-.1.601-.1 1.203-.352 1.754-.704.552-.352 1.003-.754 1.303-1.306.05-.101.1-.151.1-.252.05-.1.1-.15.1-.251.101-.251.151-.503.151-.754.05-.251.05-.452.05-.653 0-1.056-.45-1.96-1.353-2.664a11.45 11.45 0 00-2.957-1.659c-.451-.15-.852-.301-1.203-.402-.4-.1-.752-.2-1.103-.25-.05 0-.1 0-.1-.051-.05 0-.1-.05-.1-.05a17.415 17.415 0 01-5.363-2.262C4.21 18.847 3.057 17.39 2.406 15.43l-.3-1.206c-.101-.452-.151-.854-.201-1.357-.05-.15-.05-.302-.05-.452v-.453c0-.301 0-.603.05-.955 0-.301.05-.603.15-.954.1-.754.3-1.558.601-2.312A8.31 8.31 0 013.71 5.629C4.962 3.569 6.566 2.11 8.52 1.206 10.375.452 12.43 0 14.535 0c.501 0 1.002.05 1.554.1.5.05 1.052.151 1.604.202 1.403.25 2.806.603 4.16 1.155a26.973 26.973 0 013.809 1.91l-3.208 7.187a28.007 28.007 0 00-3.308-2.06c-1.153-.604-2.406-.855-3.759-.855h-.501c-.902.1-1.704.503-2.506 1.206-.752.704-1.153 1.408-1.153 2.212 0 .1 0 .251.05.351 0 .101.05.252.15.352.1.252.2.503.401.754.2.252.401.453.652.654.451.351 1.053.653 1.854.954.802.302 1.654.553 2.557.855.751.2 1.453.402 2.155.553.701.15 1.303.351 1.754.502 2.155.754 3.81 2.06 4.912 3.87 1.102 1.81 1.654 3.72 1.704 5.73v.25c-.05.252-.05.503-.1.755zm30.072 3.116v8.342H34.633V.905h22.755v8.141h-12.78v6.484h12.028v7.94H44.607v6.283h12.78zm38.392-1.458c-1.203 2.563-2.907 4.674-5.162 6.282a16.313 16.313 0 01-5.915 2.564c-2.155.452-4.31.753-6.465.854-.602.05-1.253.05-1.855.05H64.456V.855h12.58c.602 0 1.203 0 1.754.05 2.105.1 4.16.402 6.215.854a14.634 14.634 0 015.614 2.563c2.155 1.508 3.859 3.518 5.062 6.031 1.203 2.513 1.904 5.076 2.055 7.69.05.25.05.452.05.703v1.508a21.36 21.36 0 01-2.005 8.041zm-8.22-9.197c0-.15 0-.302-.05-.452a12.73 12.73 0 00-1.052-4.272c-.602-1.357-1.454-2.463-2.556-3.317A6.884 6.884 0 0081.195 9.7c-1.002-.252-2.005-.352-3.057-.402h-3.759v20.505c.1 0 .25 0 .4.05.151 0 .251.05.402.05.15 0 .3 0 .4.05.1 0 .251.05.351.05.401 0 .802 0 1.203-.05.451 0 .852-.05 1.203-.1 1.003-.1 2.005-.251 2.957-.503.953-.25 1.855-.703 2.606-1.206 1.254-.904 2.156-2.11 2.757-3.668.602-1.558.902-3.167.902-4.825v-.553zm54.932 1.96c0 .402-.05.804-.15 1.206-.1.804-.201 1.608-.451 2.413-.201.804-.501 1.608-.802 2.362-1.654 3.769-4.16 6.684-7.618 8.795-3.459 2.06-7.067 3.116-10.877 3.116-.25 0-.551 0-.801-.05-.251 0-.502-.05-.802-.05-1.304-.101-2.607-.353-3.91-.704a20.084 20.084 0 01-3.759-1.458c-3.258-1.709-5.814-4.171-7.668-7.338-1.855-3.166-2.807-6.483-2.807-9.9 0-.503 0-1.005.05-1.508.05-.503.1-1.055.251-1.558.2-1.005.451-2.01.802-3.066.35-1.005.751-2.01 1.303-2.965 1.804-3.317 4.26-5.83 7.468-7.589 3.157-1.759 6.515-2.613 9.974-2.613.451 0 .952 0 1.403.05.501.05.952.1 1.403.1a21.556 21.556 0 018.32 3.015c2.757 1.81 4.912 4.172 6.416 7.138 1.503 2.965 2.255 6.08 2.255 9.297v1.307zm-10.124-2.11c0-.252-.05-.453-.05-.704a14.214 14.214 0 00-1.504-4.825 9.008 9.008 0 00-3.358-3.619 11.453 11.453 0 00-1.153-.502c-.401-.151-.751-.302-1.152-.402a9.23 9.23 0 00-1.153-.201c-.401-.05-.752-.1-1.153-.1-1.955 0-3.809.602-5.463 1.859a9.876 9.876 0 00-3.509 4.975c-.05.1-.05.15-.1.251 0 .1-.05.151-.05.252l-.301 1.055c-.1.352-.15.754-.25 1.156-.05.251-.05.553-.1.804 0 .252-.051.503-.051.804v.453c0 .15 0 .301.051.452.1 2.06.751 4.02 1.904 5.88 1.153 1.86 2.707 3.066 4.762 3.669.25.1.451.15.701.2l.752.152c.251.05.451.05.702.1.25 0 .451.05.701.05 2.055 0 3.91-.603 5.564-1.86 1.654-1.205 2.857-2.864 3.558-4.924l.301-1.206c.1-.453.15-.855.201-1.307.05-.252.05-.553.1-.804 0-.252.05-.503.05-.754v-.905zm43.855 19.147l-14.084-19.198c-.401-.452-.751-1.005-1.102-1.659-.351-.653-.702-1.306-1.003-2.01a19.608 19.608 0 01-.651-1.508 17.994 17.994 0 00-.602-1.357c.201 1.207.351 2.413.451 3.67a46.72 46.72 0 01.151 3.718v18.344h-9.774V.905h9.774l13.983 19.098c.351.552.702 1.105 1.003 1.708.351.603.651 1.207.952 1.86.251.502.451 1.005.702 1.508.25.502.451 1.005.701 1.457-.05-.452-.1-.854-.15-1.206l-.15-1.206a18.192 18.192 0 01-.151-2.413c-.05-.804-.05-1.658-.05-2.512V.954h9.724v37.19h-9.724v-.05zm42.653 0l-1.855-6.684h-14.334l-1.905 6.735h-10.024L203.489.955h12.63L229 38.145h-10.124v-.05zm-7.769-26.184c-.2-.603-.401-1.206-.551-1.86-.151-.653-.301-1.256-.451-1.91-.101-.25-.151-.452-.151-.653-.05-.2-.1-.402-.1-.603l-.15.603c-.05.201-.101.453-.151.654-.05.1-.05.15-.05.2 0 .051 0 .152-.05.202-.1.603-.251 1.156-.401 1.709l-.451 1.658-3.759 12.313h10.074l-3.809-12.313z" fill="#fff"></path></svg><svg viewBox="0 0 49 48" fill="none" id="vk-icon"><path d="M36.133 17.948c.166-.546 0-.948-.795-.948h-2.625c-.668 0-.976.347-1.143.73 0 0-1.335 3.196-3.226 5.272-.612.602-.89.793-1.224.793-.167 0-.418-.191-.418-.738v-5.109c0-.656-.184-.948-.74-.948h-4.128c-.417 0-.668.304-.668.593 0 .621.946.765 1.043 2.513v3.798c0 .833-.153.984-.487.984-.89 0-3.055-3.211-4.34-6.885-.249-.715-.5-1.003-1.172-1.003h-2.627c-.75 0-.9.347-.9.73 0 .682.89 4.07 4.145 8.551 2.17 3.06 5.225 4.719 8.008 4.719 1.67 0 1.875-.368 1.875-1.003v-2.313c0-.737.158-.884.687-.884.39 0 1.057.192 2.615 1.667C31.793 30.216 32.086 31 33.088 31h2.625c.75 0 1.126-.368.91-1.096-.238-.724-1.088-1.775-2.215-3.022-.612-.71-1.53-1.475-1.809-1.858-.389-.491-.278-.71 0-1.147 0 0 3.2-4.426 3.533-5.929h.001z" fill="#fff"></path></svg><svg viewBox="0 0 460 350" fill="none" id="welcome"><path d="M165.4 70l-.2.2c-1.4 1.5-3 2.2-4.5 2.2l2.8-4.9c1.8-3.1.1-6.1-2.7-6.1-2.3 0-4.1.9-5.8 3.9l-1.5 2.6-1.2 2.1-.2.2c-2.2 2.5-4.3 4.5-5.6 4.5-.7 0-1-.5-.3-1.6l6.4-11.2h2.4l.9-1.4h-2.5l2.8-4.9h-3l-2.8 4.9h-2.7l-.9 1.4h2.7l-6 10.4c-1.3 2.2-.4 4.3 2 4.3 1.7 0 3.7-1.3 5.5-3.1 0 3.8 5.3 4.6 8.5.5h.7c1.8 0 4.6-1.1 6.1-2.9 0-.5-.5-.9-.9-1.1zm-6.4.2h-.1c-1 0-1.8.8-1.8 1.8 0 .4.1.7.3 1v.1c-1.4 2.4-4.8 2-3.1-1.2l2.3-3.9 1.4-2.4c2.1-3.6 5-2.2 3.2.9l-2.2 3.7zM206.9 70l-.2.2c-2.2 2.5-4.9 4.5-7 4.5-1.8 0-2.9-1.2-1.6-3.6l.3-.5c1.9.8 5.6.4 7.8-3.5l.4-.7c1.6-2.8.1-4.8-2.4-4.8-2.4 0-4.3 1.3-5.6 3.5l-2.9 5-.2.2c-2.2 2.5-4.3 4.5-5.6 4.5-.7 0-1-.5-.3-1.6l4.3-7.6c1.3-2.3.1-3.9-1.6-3.9-1.3 0-2.7.7-4.2 2.3l4.8-8.3h-3L181.6 70l-.2.2c-2.2 2.5-4.3 4.5-5.6 4.5-.7 0-1-.5-.3-1.6l6.4-11.2h2.4l.9-1.4h-2.5l2.8-4.9h-3l-2.8 4.9H177l-.9 1.4h2.7l-6 10.4c-1.3 2.2-.4 4.3 2 4.3 1.2 0 2.5-.6 3.8-1.6l-.8 1.3h3l4.5-7.9c4.6-5.8 6.6-5 5.4-2.8l-3.9 6.8c-1.3 2.2-.4 4.3 2 4.3 1.8 0 3.8-1.4 5.6-3.2.1 1.9 1.7 3.2 4.1 3.2 3.4 0 6.8-2.6 9.2-5.5.1-.6-.4-1-.8-1.2zm-5.7-4.2c1.7-3 4.8-2.5 3 .6l-.4.7c-1.4 2.4-3.4 2.4-4.5 2l1.9-3.3zM316 70l-.2.2c-1.1 1.3-2.4 2.4-3.6 3.3 1-2.9.7-7.2 2.6-11.1l-2.2-1.2c-1.2 1.7-3.9 5.6-6.7 8.8l-.2.2c-2.2 2.5-4.3 4.5-5.6 4.5-.7 0-1-.5-.3-1.6l6.4-11.2h-3l-5.3 9.3c-2.3 2.1-4 3.2-4.6 3-.7-.3 0-1.4.4-2.1l5.8-10.2h-3l-4.7 8.1-.2.2c-1.4 1.5-3 2.2-4.5 2.2l2.8-4.9c1.8-3.1.1-6.1-2.7-6.1-2.3 0-4.1.9-5.8 3.9l-1.5 2.6-1.2 2.1-.2.2c-2.2 2.5-4.9 4.5-7 4.5-1.8 0-2.9-1.2-1.6-3.6l.3-.5c1.9.8 5.6.4 7.8-3.5l.4-.7c1.6-2.8.1-4.8-2.4-4.8-2.4 0-4.3 1.3-5.6 3.5l-2.9 5-.2.2c-2.5 2.9-4.6 4.7-7 5.7l6.7-11.5h-1.8c0-1.2-1.3-2.9-3.1-2.9-1.6 0-3.9 1.3-5.1 3.5l-2.9 5-.2.2c-2.2 2.5-4.3 4.5-5.6 4.5-.7 0-1-.5-.3-1.6l3-5.2c1-1.8.5-2.9-.4-4.1l-1.7-2c-.4-.5-.4-1.2.2-1.7l-1.6-1.7c-1.7 1.5-1.8 3.2-.8 4.6l.3.3c-1.3 1.9-3.1 4.4-5.1 6.7l-.2.2c-1.4 1.5-3 2.2-4.5 2.2l2.8-4.9c1.8-3.1.1-6.1-2.7-6.1-2.3 0-4.1.9-5.8 3.9L230 68l-1.2 2.1-.2.2c-2.5 2.9-4.6 4.7-7 5.7l6.7-11.5h-1.8c0-1.2-1.3-2.9-3.1-2.9-1.6 0-3.9 1.3-5.1 3.5l-4.2 7.3c-1.3 2.2-.4 4.3 2 4.3.8 0 1.8-.4 2.9-1l-.8 1.4c-4 1.2-6.6 2.9-6.6 5.1 0 2.9 4.4 3.5 6.6-.2l2.3-3.9c2.4-.7 4.7-2.2 7.2-4.5 0 3.8 5.3 4.6 8.5.5h.7c1.8 0 4.6-1.1 6.1-2.9 1.4-1.7 2.6-3.2 5-6.4l.4.5c.4.5.5 1.1.2 1.7l-3.2 5.5c-1.3 2.2-.4 4.3 2 4.3 1.5 0 3.2-1 4.8-2.4 0 1.4.9 2.4 2.6 2.4.8 0 1.8-.4 2.9-1L257 77c-4 1.2-6.6 2.9-6.6 5.1 0 2.9 4.4 3.5 6.6-.2l2.3-3.9c2.4-.8 4.8-2.2 7.3-4.6.1 1.9 1.6 3.2 4.1 3.2 2.4 0 4.9-1.4 6.9-3.2-.1 3.9 5.3 4.7 8.5.6h.7c.9 0 2.2-.3 3.3-.9-.8 2.1-.1 3.5 1.6 3.5 1.6 0 3.5-1.5 4.9-2.9-.3 1.6.7 2.9 2.6 2.9 2.5 0 5.3-2.6 7.8-5.5 1.7-2 3.2-4.1 4.3-5.5-1.2 3.1-.5 8.7-3.4 8.7-1 0-1.4-1.1-1.4-1.1l-1.9 1s.5 2.4 3.3 2.4c.3 0 .5 0 .8-.1h.1c3.1-.4 6.1-2.8 8.3-5.4-.1-.5-.6-1-1.1-1.1zm-42.9-4.2c1.7-3 4.8-2.5 3 .6l-.4.7c-1.4 2.4-3.4 2.4-4.5 2l1.9-3.3zm-57.2 15.6c-.6 1.1-1.6 1-1.6.1 0-.8.7-1.7 3-2.6l-1.4 2.5zm1.4-6.7c-.7 0-1-.5-.3-1.6l4.2-7.3c1.6-2.8 4.8-2.1 3.3.6l-2.3 4c-1.8 2.9-3.7 4.3-4.9 4.3zm18.4-4.5h-.1c-1 0-1.8.8-1.8 1.8 0 .4.1.7.3 1v.1c-1.4 2.4-4.8 2-3.1-1.2l2.3-3.9 1.4-2.4c2.1-3.6 5-2.2 3.2.9l-2.2 3.7zm18.8 11.2c-.6 1.1-1.6 1-1.6.1 0-.8.7-1.7 3-2.6l-1.4 2.5zm1.4-6.7c-.7 0-1-.5-.3-1.6l4.2-7.3c1.6-2.8 4.8-2.1 3.3.6l-2.3 4c-1.8 2.9-3.7 4.3-4.9 4.3zm29.5-4.5h-.1c-1 0-1.8.8-1.8 1.8 0 .4.1.7.3 1v.1c-1.4 2.4-4.8 2-3.1-1.2L283 68l1.4-2.4c2.1-3.6 5-2.2 3.2.9l-2.2 3.7zM130.3 66.8h-28.9v2h28.9v-2zM357.3 66.8h-28.9v2h28.9v-2z" fill="#766458"></path><path d="M163.2 0h7.7l-1.2 44.9h-14.5l-2-18.5-2 18.5h-14.6L135.5 0h7.6l.6 37.2h.8L149.4 0h7.6l4.9 37.2h.8l.5-37.2zM195 37.2V45h-20.9V0H195v7.7h-13.3v10.8h10.6v7.7h-10.6v10.9H195v.1zM216.4 37.2V45h-18.3V0h7.6v37.2h10.7zM232.6 28.4l7.7-1.8v13.6c0 2.6-2.2 4.7-4.7 4.7h-11.5c-2.6 0-4.7-2.2-4.7-4.7V4.7c0-2.6 2.1-4.7 4.7-4.7h11.5c2.5 0 4.7 2.1 4.7 4.7v9.1l-7.7 1.8v-8h-5.5v29.5h5.5v-8.7zM261.1 0c2.5 0 4.7 2.1 4.7 4.7v35.4c0 2.6-2.2 4.7-4.7 4.7h-11.5c-2.6 0-4.7-2.2-4.7-4.7V4.7c0-2.6 2.1-4.7 4.7-4.7h11.5zm-3 7.7h-5.5v29.5h5.5V7.7zM290.8 0h7.6v44.9h-7.6V22.8l-3.1 11.4h-7.5l-3-11.4v22.1h-7.6V0h7.6l6.8 21.7L290.8 0zM323.1 37.2V45h-20.9V0h20.9v7.7h-13.3v10.8h10.6v7.7h-10.6v10.9h13.3v.1z" fill="#81B3D3"></path><path d="M44.5 157.6c-3.6-3-8.1-5-12.9-5-3.6 0-8.3 2.1-8.3 6.3 0 4.4 5.3 6.1 8.6 7.1l5 1.5c10.4 3.1 18.5 8.3 18.5 20.4 0 7.4-1.8 15.1-7.7 20.1-5.9 5-13.7 7-21.2 7-9.4 0-18.7-3.2-26.3-8.5L8.3 191c4.9 4.3 10.6 7.7 17.3 7.7 4.6 0 9.4-2.3 9.4-7.5 0-5.5-7.6-7.3-11.8-8.5C11 179.1 3 176 3 161.5c0-15.2 10.8-25.1 25.8-25.1 7.5 0 16.8 2.4 23.4 6.2l-7.7 15zM91.8 154.8v12.5h21.9v16.5H91.8v12.9H115v16.5H72.4v-74.8H115v16.5l-23.2-.1zM129.4 138.4H157c20.8 0 38 16.4 38 37.4s-17.3 37.4-38 37.4h-27.6v-74.8zm19.5 58.3h4.4c11.6 0 21.5-6.4 21.5-20.9 0-13.4-8.8-20.9-21.3-20.9h-4.6v41.8zM286.9 174.4c0 24.2-17.4 41.3-41.4 41.3s-41.4-17.1-41.4-41.3c0-22.6 19.9-38.5 41.4-38.5s41.4 15.9 41.4 38.5zm-62.6.1c0 12.9 9.5 22.3 21.1 22.3 11.6 0 21.1-9.4 21.1-22.3 0-10.3-9.5-19.8-21.1-19.8-11.5 0-21.1 9.5-21.1 19.8zM297.2 138.4h19.5l35.6 45.8h.2v-45.8H372v74.8h-19.5l-35.6-45.9h-.2v45.9h-19.5v-74.8zM407.3 200.2l-5.2 13h-20.6l28.8-74.8h21.2l28.2 74.8H439l-4.9-13h-26.8zm13.6-38.7h-.2l-8 23.8h16.2l-8-23.8zM108.1 287.7c7.7-2.6 8.2-12.2.7-12.2-2.1 0-4.6 1.5-6.3 4.4l-10.2 17.7c-.5.8-.9 1.5-1.5 2.2-2.6-3.6-1.9-9 1.8-11.4l-1.5-1.9c-8 5.1-5.6 19.7 7.7 19.7 11.3 0 16.6-13.6 9.3-18.5zm-9.4 15.6c-2.3 0-4-.5-5.5-1.3.7-.8 1.3-1.7 1.9-2.7l6.4-11.1 1 .1c8.9 1.9 5.4 15-3.8 15zm4.1-17.3l3.1-5.3c2.8-4.8 6.3-2 4.4 1.6-1.5 2.8-3.6 3.6-7.5 3.7z" fill="#fff"></path><path d="M140.2 300c-.6 2.2.6 4.1 3.1 4.1 1.5 0 3.4-1 5.3-2.5.2 1.5 1.4 2.5 3.3 2.5 2 0 4.2-1.4 6.4-3.4-.4 2 .5 3.4 2.4 3.4 2.1 0 4.4-1.9 6.2-3.6-.4 2 .8 3.6 3.2 3.6 3.1 0 6.7-3.4 9.9-7 0-.1-.1-.1-.1-.2 2.1-2.4 3.9-5 5.3-6.8-1.5 3.9-.7 11-4.3 11-1.3 0-1.8-1.4-1.8-1.4l-2.4 1.2s.7 3.1 4.2 3.1c.4 0 .7 0 1.1-.1h.1c2.8-.4 5.5-2.1 7.9-4.2.1 2.5 2 4.3 5.1 4.3 4.3 0 8.6-3.4 11.7-7-.3-.5-.9-1.1-1.4-1.3l-.3.3c-2.7 3.2-6.2 5.7-8.9 5.7-2.3 0-3.7-1.5-2-4.5l.4-.7c2.4 1 7 .5 9.9-4.4l.5-.9c2-3.5.1-6.1-3-6.1s-5.5 1.6-7.1 4.4l-3.7 6.3h-.1l-.3.3c-1.4 1.6-3.1 3.1-4.6 4.1 1.2-3.6.9-9.2 3.3-14l-2.8-1.5c-1.6 2.2-5 7.1-8.4 11.1l.1.1-.1.2c-2.7 3.2-5.4 5.7-7.1 5.7-.8 0-1.3-.6-.4-2.1l8.1-14.2h-3.8l-6.7 11.8c-2.9 2.6-5.1 4.1-5.8 3.8-.9-.4 0-1.8.5-2.6l7.4-12.9h-3.8l-6 10.4c-.1-.1-.2-.1-.3-.2l-.3.3c-2.7 3.2-5.4 5.7-7.1 5.7-.8 0-1.3-.6-.4-2.1l6.1-10.7h-2.2c.1-1.6-1.5-3.8-4-3.8-2 0-4.9 1.6-6.5 4.4l-3.8 6.6c-.2-.2-.4-.3-.6-.4l-.3.3c-2.7 3.2-6.2 5.7-8.9 5.7-2.3 0-3.7-1.5-2-4.5l3.9-6.8c2.2-3.8 6.1-3.1 3.8.8l-.5.9h3.1l.5-.9c2-3.5.1-6.1-3-6.1s-5.5 1.6-7.1 4.4l-3.8 6.5c-.1-.1-.2-.1-.3-.2l-.3.3c-2.7 3.2-6.2 5.7-8.9 5.7-2.3 0-3.7-1.5-2-4.5l.4-.7c2.4 1 7 .5 9.9-4.4l.5-.9c2-3.5.1-6.1-3-6.1s-5.5 1.6-7.1 4.4l-4 6.8c-2.4 4-.3 7.8 4.2 7.8 3.3 0 6.7-2 9.4-4.6-.1 2.6 1.9 4.6 5.1 4.6 3.2-.2 6.3-2 9-4.3zm58-9.6c2.2-3.8 6.1-3.1 3.8.8l-.5.9c-1.8 3.1-4.3 3-5.7 2.5l2.4-4.2zm-54.2 9.3l5.3-9.2c2-3.5 6.1-2.6 4.2.8l-3 5.2c-2.3 3.6-4.6 5.3-6.1 5.3-.8-.1-1.3-.6-.4-2.1zm-24.2-9.3c2.2-3.8 6.1-3.1 3.8.8l-.5.9c-1.8 3.1-4.3 3-5.7 2.5l2.4-4.2zM248.4 304.1c4.3 0 8.6-3.4 11.7-7-.3-.5-.9-1.1-1.4-1.3l-.3.3c-2.7 3.2-6.2 5.7-8.9 5.7-2.3 0-3.7-1.5-2-4.5l.4-.7c2.4 1 7 .5 9.9-4.4l.5-.9c2-3.5.1-6.1-3-6.1s-5.5 1.6-7.1 4.4l-3.7 6.3s-.1 0-.1-.1l-.3.3c-2.7 3.2-5.4 5.7-7.1 5.7-.8 0-1.3-.6-.4-2.1l5.5-9.6c1.6-2.9.1-5-2-5-1.6 0-3.4.9-5.3 2.9l6.1-10.5H237L226.3 296c-.1-.1-.3-.2-.4-.3l-.3.3c-2.7 3.2-5.4 5.7-7.1 5.7-.8 0-1.3-.6-.4-2.1l8.1-14.2h3.1l1.1-1.8h-3.1l3.6-6.2h-3.8l-3.6 6.2h-3.4l-1.1 1.8h3.5l-7.6 13.2c-1.6 2.8-.5 5.4 2.6 5.4 1.9 0 3.9-1.2 6-3l-1.5 2.6h3.8l5.8-10c5.8-7.3 8.4-6.4 6.8-3.6l-4.9 8.6c-1.6 2.8-.5 5.4 2.6 5.4 2.3 0 4.9-1.8 7.3-4.2 0 2.5 1.9 4.3 5 4.3zm3.1-13.7c2.2-3.8 6.1-3.1 3.8.8l-.5.9c-1.8 3.1-4.3 3-5.7 2.5l2.4-4.2zM363.4 295.8l-.3.3c-2.7 3.2-5.4 5.7-7.1 5.7-.8 0-1.3-.6-.4-2.1l12.8-22.2h-3.8l-5.6 9.6c-.7-1.1-1.9-2-3.5-2-2 0-4.9 1.6-6.5 4.4l-3.7 6.4c-.1 0-.2-.1-.2-.1l-.3.3c-2.7 3.2-5.4 5.7-7.1 5.7-.8 0-1.3-.6-.4-2.1l5.5-9.6c1.6-2.9.1-5-2-5-1.6 0-3.4.9-5.3 2.8l1.4-2.5h-3.8l-6.1 10.5c-.1-.1-.2-.2-.4-.2l-.3.3c-2.7 3.2-5.4 5.7-7.1 5.7-.8 0-1.3-.6-.4-2.1l6.1-10.7H323c.1-1.6-1.5-3.8-4-3.8-2 0-4.9 1.6-6.5 4.4l-3.7 6.3-.2.2c-2.7 3.2-5.4 5.7-7.1 5.7-.8 0-1.3-.6-.4-2.1l3.8-6.6c1.3-2.3.7-3.6-.5-5.1l-2.1-2.6c-.5-.7-.5-1.5.2-2.2l-2-2.2c-2.2 1.9-2.3 4.1-1 5.8l.3.4c-1.7 2.4-3.9 5.6-6.4 8.5l.3.3c-3.1 3.6-5.8 5.9-8.8 7.2l4.8-8.2H286l-.4.7c-2 3.5-4.3 6.1-7.3 6.1-2.6 0-3.1-2.6-.8-6.5l1.1-1.9c.7.1 1.4.2 2.2.2 13.5 0 20-18.1 8.1-18.1-2.1 0-4.6 1.5-6.3 4.4l-5.9 10.2c-2.2-1.2-3.4-3.3-3.4-5.4 0-1.8.8-3.5 2.4-4.8l-1.2-2.2c-2.7 1.9-3.9 4.5-3.9 7.1 0 3 1.7 5.9 4.8 7.5l-1.1 2c-2.7 4.6-2.2 9.7 3.2 9.7 1.6 0 3-.5 4.1-1.2l-1 1.7c-5.1 1.6-8.3 3.6-8.3 6.5 0 3.6 5.6 4.4 8.3-.3l2.9-5c3.9-1.2 7.8-3.9 12-8.8-.1-.1-.1-.2-.2-.4 1.7-2 3.1-3.9 6-7.8l.5.6c.5.6.7 1.4.2 2.2l-4 7c-1.6 2.8-.5 5.4 2.6 5.4 1.9 0 4-1.2 6-3 0 1.7 1.1 3 3.3 3 1.5 0 3.4-1 5.3-2.5.2 1.5 1.4 2.5 3.3 2.5 1.8 0 3.8-1.1 5.7-2.8l-1.4 2.4h3.8l5.8-10.1c5.8-7.3 8.4-6.3 6.7-3.5l-4.9 8.6c-1.6 2.8-.5 5.4 2.6 5.4 2 0 4.2-1.4 6.4-3.3-.2 1.9 1 3.3 3.3 3.3 1.5 0 3.4-1 5.3-2.5.2 1.5 1.4 2.5 3.3 2.5 3.1 0 6.7-3.4 9.9-7-.4-.2-1.1-.8-1.6-1zm-77.9-14.2c1.1-1.9 2.4-2.8 3.4-2.8 6 0 1.8 12.3-8.1 12.3h-.8l5.5-9.5zm-8.1 28.6c-.8 1.4-2.1 1.2-2.1.2s.9-2.1 3.8-3.2l-1.7 3zm39.7-13.8c-2.3 3.6-4.6 5.3-6.1 5.3-.8 0-1.3-.6-.4-2.1l5.3-9.2c2-3.5 6.1-2.6 4.2.8l-3 5.2zm36.7-.2c-2.3 3.8-4.6 5.5-6.2 5.5-.8 0-1.3-.6-.4-2.1l5.3-9.2c2-3.5 6.1-2.6 4.2.8l-2.9 5zM236.7 331.8l-.3.3c-2.7 3.2-5.4 5.7-7.1 5.7-.8 0-1.3-.6-.4-2.1l5.5-9.6c1.6-2.9.1-5-2-5-1.6 0-3.4.9-5.3 2.8l1.4-2.5h-3.8l-6.1 10.6c-.2-.1-.3-.2-.5-.3l-.3.3c-1.7 1.9-3.8 2.8-5.7 2.8l3.6-6.2c2.3-4 .2-7.7-3.4-7.7-2.9 0-5.2 1.2-7.4 5l-1.9 3.2-1.6 2.8c-.1-.1-.2-.1-.3-.2l-.3.3c-3.1 3.6-5.8 5.9-8.8 7.2l10.4-17.8h-3.8l-6.7 11.7c-2.9 2.7-5.2 4.2-5.9 3.9-.9-.4 0-1.8.5-2.6l7.4-12.9h-3.8L184 332c-.1-.1-.2-.1-.3-.2l-.3.3c-2.7 3.2-5.4 5.7-7.1 5.7-.8 0-1.3-.6-.4-2.1l5.5-9.6c1.6-2.9.1-5-2-5-1.6 0-3.4.9-5.3 2.8l1.4-2.5h-3.8l-6.1 10.5c-.1-.1-.2-.2-.4-.2l-.3.3c-2.7 3.2-5.4 5.7-7.1 5.7-.8 0-1.3-.6-.4-2.1l6.1-10.7h-2.2c.1-1.6-1.5-3.8-4-3.8-2 0-4.9 1.6-6.5 4.4l-3.9 6.8c-.3-.2-.6-.4-.8-.5l-.3.3c-2.7 3.2-6.1 5.7-9.8 5.7-2.6 0-4.2-2.6-1.9-6.5l1.1-1.9c.7.1 1.4.2 2.2.2 4 0 8.6-2.1 11.6-7.3 1.1-1.9 1.5-3.6 1.5-5.1 0-3.4-2.2-5.7-5-5.7-2.1 0-4.6 1.5-6.3 4.4l-5.9 10.2c-2.2-1.2-3.4-3.3-3.4-5.4 0-1.8.8-3.5 2.4-4.8l-1.2-2.2c-2.7 1.9-3.9 4.5-3.9 7.1 0 3 1.7 5.9 4.8 7.5l-1.1 2c-2.7 4.6-1.1 9.7 4.3 9.7 4.2 0 7.4-1.9 10-4.4-.8 2.4.4 4.4 3.1 4.4 1.5 0 3.4-1 5.3-2.5.2 1.5 1.4 2.5 3.3 2.5 1.8 0 3.8-1.1 5.7-2.8l-1.4 2.4h3.8l5.8-10.1c5.8-7.3 8.4-6.3 6.7-3.5l-4.9 8.6c-1.6 2.8-.5 5.4 2.6 5.4 2 0 4.3-1.4 6.5-3.4-.5 2.1.5 3.4 2.4 3.4 1.8 0 3.9-1.5 5.6-3.1l-2.1 3.6c-5.1 1.5-8.4 3.6-8.4 6.5 0 3.6 5.6 4.4 8.3-.3l2.9-5c3.2-1 6.3-3 9.6-6.2-.5 5.3 6.5 6.5 10.8 1.1h.8c1.4 0 3.3-.5 5-1.5l-2.5 4.4h3.8l5.8-10.1c5.8-7.3 8.4-6.3 6.7-3.5l-4.9 8.6c-1.6 2.8-.5 5.4 2.6 5.4s6.7-3.4 9.9-7c-.1-.3-.8-.9-1.3-1.1zm-94.4-14.2c1.1-1.9 2.4-2.8 3.4-2.8 1.4 0 2.1.9 2.1 2.3 0 3.5-4.3 9.9-10.2 9.9h-.8l5.5-9.4zm13.4 14.8c-2.3 3.6-4.6 5.3-6.1 5.3-.8 0-1.3-.6-.4-2.1l5.3-9.2c2-3.5 6.1-2.6 4.2.8l-3 5.2zm28.8 13.8c-.8 1.4-2.1 1.2-2.1.2s.9-2.1 3.8-3.2l-1.7 3zm25.6-14.2h-.2c-1.2 0-2.2 1-2.2 2.3 0 .5.1.9.4 1.3v.1c-1.8 3.1-6.1 2.5-3.9-1.5l2.9-5 1.8-3.1c2.7-4.5 6.3-2.7 4 1.2l-2.8 4.7zM324.6 333.1c-.2-.6-.9-1.2-1.4-1.3l-.3.3c-1.4 1.6-3.1 3.1-4.6 4.1 1.2-3.6.9-9.2 3.3-14l-2.8-1.5c-1.6 2.2-5 7.1-8.4 11.1l-.3.3c-2.7 3.2-5.4 5.7-7.1 5.7-.8 0-1.6-.8-1.6-2.6v-1.6c2.7.3 5.5-1.4 7.3-4.5l1-1.8c3.5-6.1-2.2-8.1-6.1-4.5l5.4-9.4h-3.8l-10.8 18.8c-.2-.2-.5-.4-.7-.5l-.3.3c-2.7 3.2-6.2 5.7-8.9 5.7-2.3 0-3.7-1.5-2-4.5l3.9-6.8c2.2-3.8 6.1-3.1 3.8.8l-.5.9h3.1l.5-.9c2-3.5.1-6.1-3-6.1s-5.5 1.6-7.1 4.4l-3.7 6.4c-.1 0-.2-.1-.2-.1l-.3.3c-2.7 3.2-5.4 5.7-7.1 5.7-.8 0-1.3-.6-.4-2.1l8.1-14.2h-3.8l-6.7 11.8c-2.9 2.6-5.1 4.1-5.8 3.8-.9-.4 0-1.8.5-2.6l7.4-12.9h-3.8l-7.4 12.7c-.8.7-1.7 1.4-2.4 2 1.2-3.6.9-9.2 3.3-14l-2.8-1.5c-1.6 2.2-10.3 13.8-13.8 17.8.3.5.9.9 1.4 1.3 2.2-2.5 9.4-11.8 10.7-13.6-1.5 3.9-.7 11-4.3 11-1.3 0-1.8-1.4-1.8-1.4l-2.4 1.2s.7 3.1 4.2 3.1c.4 0 .7 0 1.1-.1h.1c1.9-.3 3.8-1.1 5.6-2.4 0 1.5.9 2.5 2.5 2.5 2.1 0 4.4-1.9 6.2-3.6-.4 2 .8 3.6 3.2 3.6 2.4 0 5-1.9 7.5-4.4 0 2.5 2 4.4 5.1 4.4 3.1 0 6.1-1.7 8.8-4l-2.1 3.7h3.8l4.3-7.5v3c0 3.2.6 4.9 3.7 4.9s6.7-3.4 9.9-7c2.2-2.5 4-5.1 5.4-6.9-1.5 3.9-.7 11-4.3 11-1.3 0-1.8-1.4-1.8-1.4l-2.4 1.2s.7 3.1 4.2 3.1c.4 0 .7 0 1.1-.1h.1c3.8-.7 7.7-3.8 10.5-7.1zm-25.2-3l1.1-1.9c4.4-6.1 7.4-4.4 6-2.1l-1.8 3.1c-1.1 2-4.4 3.4-5.3.9zM324.5 335.7c-1.2 0-2.2 1-2.2 2.2 0 1.2.9 2.2 2.2 2.2 1.2 0 2.2-.9 2.2-2.2 0-1.2-1-2.2-2.2-2.2zM324.7 334.2h3.8l11.9-20.7h-3.8l-11.9 20.7zM80.4 277.6c0 .3-.1.6-.2.9-.1.3-.3.6-.5.8-.2.2-.5.4-.8.6-.3.1-.7.2-1.1.2-.5 0-.9-.1-1.3-.3-.4-.2-.8-.4-1.1-.7-.3-.3-.4-.6-.6-1-.1-.4-.2-.8-.2-1.3 0-.9.2-1.6.5-2.4.3-.7.7-1.4 1.3-1.9.2-.2.5-.5.8-.7.3-.2.6-.4.9-.5.3-.1.5-.3.7-.4.2-.1.3-.1.4-.2l1.4 2c-.2.1-.5.2-.8.4-.3.1-.6.3-.9.5-.3.2-.5.5-.7.8-.2.3-.3.6-.3 1 .7 0 1.2.2 1.7.6.6.3.8.9.8 1.6zm7.9 0c0 .3-.1.6-.2.9-.1.3-.3.6-.5.8-.2.2-.5.4-.8.6-.3.1-.7.2-1.1.2-.5 0-.9-.1-1.3-.3-.4-.2-.8-.4-1.1-.7-.2-.3-.4-.6-.6-1-.1-.4-.2-.8-.2-1.3 0-.9.2-1.6.5-2.4.3-.7.7-1.4 1.3-1.9.2-.2.5-.5.8-.7.3-.2.6-.4.9-.5.3-.1.5-.3.7-.4.2-.1.3-.1.4-.2l1.4 2c-.2.1-.5.2-.8.4-.3.1-.6.3-.9.5-.3.2-.5.5-.7.8-.2.3-.3.6-.3 1 .7 0 1.2.2 1.7.6.5.3.8.9.8 1.6zM353.4 336.5c0-.3.1-.6.2-.9.1-.3.3-.6.5-.8.2-.2.5-.4.8-.6.3-.1.7-.2 1.1-.2.5 0 .9.1 1.3.3.4.2.8.4 1.1.7.3.3.4.6.6 1 .1.4.2.8.2 1.3 0 .9-.2 1.6-.5 2.4-.3.7-.7 1.4-1.3 1.9-.2.2-.5.5-.8.7-.3.2-.6.4-.9.5-.3.1-.5.3-.7.4-.2.1-.3.1-.4.2l-1.4-2c.2-.1.5-.2.8-.4.3-.1.6-.3.9-.5.3-.2.5-.5.7-.8.2-.3.3-.6.3-1-.7 0-1.2-.2-1.7-.6-.5-.3-.8-.9-.8-1.6zm-7.8 0c0-.3.1-.6.2-.9.1-.3.3-.6.5-.8.2-.2.5-.4.8-.6.3-.1.7-.2 1.1-.2.5 0 .9.1 1.3.3.4.2.8.4 1.1.7.2.3.4.6.6 1 .1.4.2.8.2 1.3 0 .9-.2 1.6-.5 2.4-.3.7-.7 1.4-1.3 1.9-.2.2-.5.5-.8.7-.3.2-.6.4-.9.5-.3.1-.5.3-.7.4-.2.1-.3.1-.4.2l-1.4-2c.3-.1.5-.2.8-.4.3-.1.6-.3.9-.5.3-.2.5-.5.7-.8.2-.3.3-.6.3-1-.7 0-1.2-.2-1.7-.6-.6-.3-.8-.9-.8-1.6z" fill="#fff"></path></svg><svg viewBox="0 0 49 48" fill="none" id="youtube-icon"><path d="M31.864 17H17.496c-1.507 0-2.813 1.3-2.813 2.8v8.3c0 1.6 1.306 2.9 2.813 2.9h14.368c1.608 0 2.814-1.3 2.814-2.8v-8.4c.1-1.5-1.206-2.8-2.814-2.8zM21.716 27.4v-6.8L28.55 24l-6.833 3.4z" fill="#fff"></path></svg></svg>